<svg width="2152" height="1477" xmlns="http://www.w3.org/2000/svg" xmlns:xlink="http://www.w3.org/1999/xlink" xml:space="preserve" overflow="hidden"><defs><clipPath id="clip0"><rect x="4" y="6" width="2152" height="1477"/></clipPath><linearGradient x1="572" y1="662" x2="572" y2="764" gradientUnits="userSpaceOnUse" spreadMethod="reflect" id="fill1"><stop offset="0" stop-color="#8FB79D" stop-opacity="0.501961"/><stop offset="0.66" stop-color="#3E6A68" stop-opacity="0.74902"/><stop offset="1" stop-color="#017369" stop-opacity="0.901961"/></linearGradient></defs><g clip-path="url(#clip0)" transform="translate(-4 -6)"><text font-family="Arial,Arial_MSFontService,sans-serif" font-weight="400" font-size="41" transform="matrix(1 0 0 1 635.533 307)">Source node</text><path d="M623 490C607.26 490 594.5 470.814 594.5 447.148L594.5 373.352C594.5 349.685 581.74 330.5 566 330.5 581.74 330.5 594.5 311.314 594.5 287.648L594.5 213.852C594.5 190.185 607.26 171 623 171" stroke="#000000" stroke-width="2.29167" stroke-miterlimit="8" fill="none" fill-rule="evenodd"/><rect x="39.9999" y="240" width="267" height="184" stroke="#000000" stroke-width="2.29167" stroke-miterlimit="8" fill="#FFFFFF"/><rect x="46.0001" y="246" width="27.9998" height="27.9998" fill="#01493D"/><rect x="198" y="246" width="27.9998" height="27.9998" fill="#01493D"/><rect x="273" y="246" width="29.0002" height="27.9998" fill="#01493D"/><rect x="122" y="246" width="27.9998" height="27.9998" fill="#01493D"/><text fill="#12443A" font-family="Arial,Arial_MSFontService,sans-serif" font-weight="700" font-size="32" transform="matrix(1 0 0 1 82.0117 262)">…</text><rect x="160" y="246" width="28.0002" height="27.9998" fill="#01493D"/><rect x="235" y="246" width="28.9999" height="27.9998" fill="#01493D"/><rect x="46.0001" y="282" width="27.9998" height="28.0002" fill="#017369"/><rect x="83.9999" y="282" width="28.0002" height="28.0002" fill="#017369"/><rect x="198" y="282" width="27.9998" height="28.0002" fill="#017369"/><rect x="273" y="282" width="29.0002" height="28.0002" fill="#017369"/><text fill="#017369" font-family="Arial,Arial_MSFontService,sans-serif" font-weight="700" font-size="32" transform="matrix(1 0 0 1 119.897 298)">…</text><rect x="160" y="282" width="28.0002" height="28.0002" fill="#017369"/><rect x="235" y="282" width="28.9999" height="28.0002" fill="#017369"/><rect x="46.0001" y="318" width="27.9998" height="28.9999" fill="#248CAF"/><rect x="83.9999" y="318" width="28.0002" height="28.9999" fill="#248CAF"/><rect x="198" y="318" width="27.9998" height="28.9999" fill="#248CAF"/><rect x="273" y="318" width="29.0002" height="28.9999" fill="#248CAF"/><rect x="122" y="318" width="27.9998" height="28.9999" fill="#248CAF"/><text fill="#248CAF" font-family="Arial,Arial_MSFontService,sans-serif" font-weight="700" font-size="32" transform="matrix(1 0 0 1 157.783 335)">…</text><rect x="235" y="318" width="28.9999" height="28.9999" fill="#248CAF"/><rect x="46.0001" y="355" width="27.9998" height="27.9998" fill="#4DAC8E"/><rect x="83.9999" y="355" width="28.0002" height="27.9998" fill="#4DAC8E"/><rect x="273" y="355" width="29.0002" height="27.9998" fill="#4DAC8E"/><rect x="122" y="355" width="27.9998" height="27.9998" fill="#4DAC8E"/><text fill="#4DAC8E" font-family="Arial,Arial_MSFontService,sans-serif" font-weight="700" font-size="32" transform="matrix(1 0 0 1 195.668 371)">…</text><rect x="160" y="355" width="28.0002" height="27.9998" fill="#4DAC8E"/><rect x="235" y="355" width="28.9999" height="27.9998" fill="#4DAC8E"/><rect x="46.0001" y="391" width="27.9998" height="29.0002" fill="#8FB79D"/><rect x="83.9999" y="391" width="28.0002" height="29.0002" fill="#8FB79D"/><rect x="198" y="391" width="27.9998" height="29.0002" fill="#8FB79D"/><rect x="273" y="391" width="29.0002" height="29.0002" fill="#8FB79D"/><rect x="122" y="391" width="27.9998" height="29.0002" fill="#8FB79D"/><text fill="#8FB79D" font-family="Arial,Arial_MSFontService,sans-serif" font-weight="700" font-size="32" transform="matrix(1 0 0 1 233.553 408)">…</text><rect x="160" y="391" width="28.0002" height="29.0002" fill="#8FB79D"/><text font-family="Arial,Arial_MSFontService,sans-serif" font-weight="400" font-size="41" transform="matrix(1 0 0 1 597.35 628)">Destination node</text><rect x="626" y="89" width="28.0002" height="27.9998" fill="#8FB79D"/><rect x="778" y="89" width="28.0002" height="27.9998" fill="#238DB0"/><rect x="853" y="89" width="29.0002" height="27.9998" fill="#8FB79D"/><rect x="702" y="89" width="28.0002" height="27.9998" fill="#238DB0"/><text fill="#7F7F7F" font-family="Arial,Arial_MSFontService,sans-serif" font-weight="700" font-size="32" transform="matrix(1 0 0 1 662.058 105)">…</text><rect x="740" y="89" width="27.9998" height="27.9998" fill="#8FB79D"/><rect x="816" y="89" width="27.9998" height="27.9998" fill="#8FB79D"/><rect x="626" y="125" width="28.0002" height="27.9998" fill="#238DB0"/><rect x="664" y="125" width="27.9998" height="27.9998" fill="#8FB79D"/><rect x="778" y="125" width="28.0002" height="27.9998" fill="#8FB79D"/><rect x="853" y="125" width="29.0002" height="27.9998" fill="#238DB0"/><text fill="#7F7F7F" font-family="Arial,Arial_MSFontService,sans-serif" font-weight="700" font-size="32" transform="matrix(1 0 0 1 699.944 142)">…</text><rect x="740" y="125" width="27.9998" height="27.9998" fill="#238DB0"/><rect x="816" y="125" width="27.9998" height="27.9998" fill="#238DB0"/><rect x="626" y="162" width="28.0002" height="28.0002" fill="#8FB79D"/><rect x="664" y="162" width="27.9998" height="28.0002" fill="#238DB0"/><rect x="778" y="162" width="28.0002" height="28.0002" fill="#8FB79D"/><rect x="853" y="162" width="29.0002" height="28.0002" fill="#8FB79D"/><rect x="702" y="162" width="28.0002" height="28.0002" fill="#8FB79D"/><text fill="#7F7F7F" font-family="Arial,Arial_MSFontService,sans-serif" font-weight="700" font-size="32" transform="matrix(1 0 0 1 737.829 178)">…</text><rect x="816" y="162" width="27.9998" height="28.0002" fill="#238DB0"/><rect x="626" y="198" width="28.0002" height="27.9998" fill="#238DB0"/><rect x="664" y="198" width="27.9998" height="27.9998" fill="#8FB79D"/><rect x="853" y="198" width="29.0002" height="27.9998" fill="#238DB0"/><rect x="702" y="198" width="28.0002" height="27.9998" fill="#238DB0"/><text fill="#7F7F7F" font-family="Arial,Arial_MSFontService,sans-serif" font-weight="700" font-size="32" transform="matrix(1 0 0 1 775.715 215)">…</text><rect x="740" y="198" width="27.9998" height="27.9998" fill="#8FB79D"/><rect x="816" y="198" width="27.9998" height="27.9998" fill="#8FB79D"/><rect x="626" y="235" width="28.0002" height="27.9998" fill="#8FB79D"/><rect x="664" y="235" width="27.9998" height="27.9998" fill="#238DB0"/><rect x="778" y="235" width="28.0002" height="27.9998" fill="#238DB0"/><rect x="853" y="235" width="29.0002" height="27.9998" fill="#238DB0"/><rect x="702" y="235" width="28.0002" height="27.9998" fill="#8FB79D"/><text fill="#7F7F7F" font-family="Arial,Arial_MSFontService,sans-serif" font-weight="700" font-size="32" transform="matrix(1 0 0 1 813.6 251)">…</text><rect x="740" y="235" width="27.9998" height="27.9998" fill="#238DB0"/><rect x="626" y="408" width="28.0002" height="27.9998" fill="#8FB79D"/><rect x="778" y="408" width="28.0002" height="27.9998" fill="#238DB0"/><rect x="853" y="408" width="29.0002" height="27.9998" fill="#8FB79D"/><rect x="702" y="408" width="28.0002" height="27.9998" fill="#238DB0"/><text fill="#7F7F7F" font-family="Arial,Arial_MSFontService,sans-serif" font-weight="700" font-size="32" transform="matrix(1 0 0 1 662.058 424)">…</text><rect x="740" y="408" width="27.9998" height="27.9998" fill="#8FB79D"/><rect x="816" y="408" width="27.9998" height="27.9998" fill="#8FB79D"/><rect x="626" y="444" width="28.0002" height="27.9998" fill="#238DB0"/><rect x="664" y="444" width="27.9998" height="27.9998" fill="#8FB79D"/><rect x="778" y="444" width="28.0002" height="27.9998" fill="#8FB79D"/><rect x="853" y="444" width="29.0002" height="27.9998" fill="#238DB0"/><text fill="#7F7F7F" font-family="Arial,Arial_MSFontService,sans-serif" font-weight="700" font-size="32" transform="matrix(1 0 0 1 699.944 461)">…</text><rect x="740" y="444" width="27.9998" height="27.9998" fill="#238DB0"/><rect x="816" y="444" width="27.9998" height="27.9998" fill="#238DB0"/><rect x="626" y="481" width="28.0002" height="28.0002" fill="#8FB79D"/><rect x="664" y="481" width="27.9998" height="28.0002" fill="#238DB0"/><rect x="778" y="481" width="28.0002" height="28.0002" fill="#8FB79D"/><rect x="853" y="481" width="29.0002" height="28.0002" fill="#8FB79D"/><rect x="702" y="481" width="28.0002" height="28.0002" fill="#8FB79D"/><text fill="#7F7F7F" font-family="Arial,Arial_MSFontService,sans-serif" font-weight="700" font-size="32" transform="matrix(1 0 0 1 737.829 497)">…</text><rect x="816" y="481" width="27.9998" height="28.0002" fill="#238DB0"/><rect x="626" y="517" width="28.0002" height="27.9998" fill="#238DB0"/><rect x="664" y="517" width="27.9998" height="27.9998" fill="#8FB79D"/><rect x="853" y="517" width="29.0002" height="27.9998" fill="#238DB0"/><rect x="702" y="517" width="28.0002" height="27.9998" fill="#238DB0"/><text fill="#7F7F7F" font-family="Arial,Arial_MSFontService,sans-serif" font-weight="700" font-size="32" transform="matrix(1 0 0 1 775.715 534)">…</text><rect x="740" y="517" width="27.9998" height="27.9998" fill="#8FB79D"/><rect x="816" y="517" width="27.9998" height="27.9998" fill="#8FB79D"/><rect x="626" y="554" width="28.0002" height="27.9998" fill="#8FB79D"/><rect x="664" y="554" width="27.9998" height="27.9998" fill="#238DB0"/><rect x="778" y="554" width="28.0002" height="27.9998" fill="#238DB0"/><rect x="853" y="554" width="29.0002" height="27.9998" fill="#238DB0"/><rect x="702" y="554" width="28.0002" height="27.9998" fill="#8FB79D"/><text fill="#7F7F7F" font-family="Arial,Arial_MSFontService,sans-serif" font-weight="700" font-size="32" transform="matrix(1 0 0 1 813.6 570)">…</text><rect x="740" y="554" width="27.9998" height="27.9998" fill="#238DB0"/><rect x="1205" y="271" width="28.0002" height="28.0002" fill="#8FB79D"/><rect x="1205" y="119" width="28.0002" height="28.0002" fill="#238DB0"/><rect x="1205" y="43" width="28.0002" height="28.0002" fill="#238DB0"/><rect x="1205" y="195" width="28.0002" height="28.0002" fill="#238DB0"/><text fill="#7F7F7F" font-family="Arial,Arial_MSFontService,sans-serif" font-weight="700" font-size="32" transform="matrix(-1.83697e-16 -1 1 -1.83697e-16 1221.47 263)">…</text><rect x="1205" y="157" width="28.0002" height="27.9998" fill="#8FB79D"/><rect x="1205" y="81.0003" width="28.0002" height="27.9998" fill="#8FB79D"/><rect x="1205" y="590" width="28.0002" height="28.0002" fill="#238DB0"/><rect x="1205" y="438" width="28.0002" height="28.0002" fill="#238DB0"/><rect x="1205" y="362" width="28.0002" height="28.0002" fill="#8FB79D"/><rect x="1205" y="514" width="28.0002" height="28.0002" fill="#8FB79D"/><text fill="#7F7F7F" font-family="Arial,Arial_MSFontService,sans-serif" font-weight="700" font-size="32" transform="matrix(-1.83697e-16 -1 1 -1.83697e-16 1221.47 582)">…</text><rect x="1205" y="476" width="28.0002" height="27.9998" fill="#238DB0"/><rect x="1205" y="400" width="28.0002" height="27.9998" fill="#8FB79D"/><path d="M1237 171C1247.49 171 1256 183.79 1256 199.568L1256 301.932C1256 317.71 1264.51 330.5 1275 330.5 1264.51 330.5 1256 343.29 1256 359.068L1256 461.432C1256 477.21 1247.49 490 1237 490" stroke="#000000" stroke-width="2.29167" stroke-miterlimit="8" fill="none" fill-rule="evenodd"/><path d="M1371 330C1371 296.863 1398.31 270 1432 270 1465.69 270 1493 296.863 1493 330 1493 363.137 1465.69 390 1432 390 1398.31 390 1371 363.137 1371 330Z" fill="#238DB0" fill-rule="evenodd"/><path d="M1381 328.854 1469.59 328.854 1469.59 331.146 1381 331.146ZM1465.01 320.834 1483.34 330 1465.01 339.167Z" fill="#FFFFFF"/><path d="M1433.15 299.75 1433.15 373.488 1430.85 373.488 1430.85 299.75ZM1422.83 304.333 1432 286 1441.17 304.333Z" fill="#FFFFFF"/><path d="M0 0 32.8813 32.8813" stroke="#FFFFFF" stroke-width="2.29167" stroke-miterlimit="8" fill="none" fill-rule="evenodd" transform="matrix(1 0 0 -1 1432 329.881)"/><path d="M0 0 49.3221 8.22041" stroke="#FFFFFF" stroke-width="2.29167" stroke-miterlimit="8" fill="none" fill-rule="evenodd" transform="matrix(1 0 0 -1 1383 338.22)"/><path d="M1547 330C1547 296.863 1574.53 270 1608.5 270 1642.47 270 1670 296.863 1670 330 1670 363.137 1642.47 390 1608.5 390 1574.53 390 1547 363.137 1547 330Z" fill="#238DB0" fill-rule="evenodd"/><path d="M1557 328.854 1645.59 328.854 1645.59 331.146 1557 331.146ZM1641.01 320.834 1659.34 330 1641.01 339.167Z" fill="#FFFFFF"/><path d="M1610.15 299.75 1610.15 373.488 1607.85 373.488 1607.85 299.75ZM1599.83 304.333 1609 286 1618.17 304.333Z" fill="#FFFFFF"/><path d="M1650 289C1620.25 290.27 1614.1 313.236 1608.5 330.235 1602.9 347.234 1592.68 370.052 1567 371" stroke="#FFFFFF" stroke-width="2.29167" stroke-miterlimit="8" fill="none" fill-rule="evenodd"/><rect x="1839" y="240" width="267" height="184" stroke="#000000" stroke-width="2.29167" stroke-miterlimit="8" fill="#FFFFFF"/><rect x="1845" y="244" width="28.0002" height="28.9999" fill="#4DAC8E"/><rect x="1997" y="244" width="28.0002" height="28.9999" fill="#8FB79D"/><rect x="2072" y="244" width="28.9998" height="28.9999" fill="#4DAC8E"/><rect x="1921" y="244" width="28.0002" height="28.9999" fill="#8FB79D"/><text fill="#7F7F7F" font-family="Arial,Arial_MSFontService,sans-serif" font-weight="700" font-size="32" transform="matrix(1 0 0 1 1880.94 261)">…</text><rect x="1959" y="244" width="27.9999" height="28.9999" fill="#238DB0"/><rect x="2034" y="244" width="28.9998" height="28.9999" fill="#238DB0"/><rect x="1845" y="281" width="28.0002" height="28.0002" fill="#8FB79D"/><rect x="1883" y="281" width="27.9999" height="28.0002" fill="#01493D"/><rect x="1997" y="281" width="28.0002" height="28.0002" fill="#01493D"/><rect x="2072" y="281" width="28.9998" height="28.0002" fill="#017369"/><text fill="#7F7F7F" font-family="Arial,Arial_MSFontService,sans-serif" font-weight="700" font-size="32" transform="matrix(1 0 0 1 1918.83 297)">…</text><rect x="1959" y="281" width="27.9999" height="28.0002" fill="#017369"/><rect x="2034" y="281" width="28.9998" height="28.0002" fill="#8FB79D"/><rect x="1845" y="317" width="28.0002" height="29.0002" fill="#01493D"/><rect x="1883" y="317" width="27.9999" height="29.0002" fill="#238DB0"/><rect x="1997" y="317" width="28.0002" height="29.0002" fill="#4DAC8E"/><rect x="2072" y="317" width="28.9998" height="29.0002" fill="#01493D"/><rect x="1921" y="317" width="28.0002" height="29.0002" fill="#01493D"/><text fill="#7F7F7F" font-family="Arial,Arial_MSFontService,sans-serif" font-weight="700" font-size="32" transform="matrix(1 0 0 1 1956.71 334)">…</text><rect x="2034" y="317" width="28.9998" height="29.0002" fill="#01493D"/><rect x="1845" y="354" width="28.0002" height="27.9998" fill="#017369"/><rect x="1883" y="354" width="27.9999" height="27.9998" fill="#238DB0"/><rect x="2072" y="354" width="28.9998" height="27.9998" fill="#017369"/><rect x="1921" y="354" width="28.0002" height="27.9998" fill="#017369"/><text fill="#7F7F7F" font-family="Arial,Arial_MSFontService,sans-serif" font-weight="700" font-size="32" transform="matrix(1 0 0 1 1994.6 370)">…</text><rect x="1959" y="354" width="27.9999" height="27.9998" fill="#4DAC8E"/><rect x="2034" y="354" width="28.9998" height="27.9998" fill="#238DB0"/><rect x="1845" y="390" width="28.0002" height="27.9998" fill="#4DAC8E"/><rect x="1883" y="390" width="27.9999" height="27.9998" fill="#017369"/><rect x="1997" y="390" width="28.0002" height="27.9998" fill="#8FB79D"/><rect x="2072" y="390" width="28.9998" height="27.9998" fill="#017369"/><rect x="1921" y="390" width="28.0002" height="27.9998" fill="#238DB0"/><text fill="#7F7F7F" font-family="Arial,Arial_MSFontService,sans-serif" font-weight="700" font-size="32" transform="matrix(1 0 0 1 2032.48 407)">…</text><rect x="1959" y="390" width="27.9999" height="27.9998" fill="#8FB79D"/><rect x="1663" y="499" width="268" height="80.9998" stroke="#000000" stroke-width="2.29167" stroke-miterlimit="8" stroke-dasharray="9.16667 6.875" fill="#FFFFFF"/><rect x="1673" y="510" width="59.0001" height="57.9998" fill="#63A7CC"/><text fill="#FFFFFF" font-family="Arial,Arial_MSFontService,sans-serif" font-weight="700" font-size="32" transform="matrix(1 0 0 1 1692.86 551)">d</text><rect x="1768" y="510" width="58.0001" height="57.9998" fill="#63A7CC"/><text fill="#FFFFFF" font-family="Arial,Arial_MSFontService,sans-serif" font-weight="400" font-size="32" transform="matrix(1 0 0 1 1773.56 551)">1/</text><text fill="#FFFFFF" font-family="Arial,Arial_MSFontService,sans-serif" font-weight="700" font-size="32" transform="matrix(1 0 0 1 1800.49 551)">d</text><rect x="1862" y="510" width="57.9998" height="57.9998" fill="#63A7CC"/><text fill="#FFFFFF" font-family="Arial,Arial_MSFontService,sans-serif" font-weight="400" font-size="32" transform="matrix(1 0 0 1 1868.58 551)">1.0</text><path d="M311 328.854 355.715 328.854 355.715 331.146 311 331.146ZM351.131 320.834 369.465 330 351.131 339.167Z"/><path d="M882 169.854 926.715 169.854 926.715 172.146 882 172.146ZM922.131 161.833 940.465 171 922.131 180.167Z"/><path d="M882 488.854 926.715 488.854 926.715 491.146 882 491.146ZM922.131 480.833 940.465 490 922.131 499.167Z"/><path d="M1496 328.854 1527.72 328.854 1527.72 331.146 1496 331.146ZM1523.14 320.834 1541.47 330 1523.14 339.167Z"/><path d="M1136 169.854 1180.71 169.854 1180.71 172.146 1136 172.146ZM1176.13 161.833 1194.46 171 1176.13 180.167Z"/><path d="M1136 488.854 1180.71 488.854 1180.71 491.146 1136 491.146ZM1176.13 480.833 1194.46 490 1176.13 499.167Z"/><path d="M1777 328.854 1821.71 328.854 1821.71 331.146 1777 331.146ZM1817.13 320.834 1835.46 330 1817.13 339.167Z"/><path d="M942 171C942 118.533 985.428 76 1039 76 1092.57 76 1136 118.533 1136 171 1136 223.467 1092.57 266 1039 266 985.428 266 942 223.467 942 171Z" fill="#238DB0" fill-rule="evenodd"/><text fill="#FFFFFF" font-family="Arial,Arial_MSFontService,sans-serif" font-weight="700" font-size="41" transform="matrix(1 0 0 1 1012.06 253)">AT</text><path d="M1076.51 184C1085.07 184 1092.01 191.164 1092.01 200 1092.01 208.837 1085.07 216 1076.51 216 1067.95 216 1061.01 208.837 1061.01 200 1061.01 191.164 1067.95 184 1076.51 184Z" stroke="#333333" stroke-width="2.29167" stroke-miterlimit="8" fill="#FFFFFF" fill-rule="evenodd"/><path d="M1076.51 138.98C1085.07 138.98 1092.01 146.144 1092.01 154.98 1092.01 163.817 1085.07 170.98 1076.51 170.98 1067.95 170.98 1061.01 163.817 1061.01 154.98 1061.01 146.144 1067.95 138.98 1076.51 138.98Z" stroke="#333333" stroke-width="2.29167" stroke-miterlimit="8" fill="#FFFFFF" fill-rule="evenodd"/><path d="M1076.51 93.9605C1085.07 93.9605 1092.01 101.124 1092.01 109.961 1092.01 118.797 1085.07 125.961 1076.51 125.961 1067.95 125.961 1061.01 118.797 1061.01 109.961 1061.01 101.124 1067.95 93.9605 1076.51 93.9605Z" stroke="#333333" stroke-width="2.29167" stroke-miterlimit="8" fill="#FFFFFF" fill-rule="evenodd"/><path d="M1001.01 184.001C1009.85 184.001 1017.01 191.164 1017.01 200.001 1017.01 208.837 1009.85 216.001 1001.01 216.001 992.177 216.001 985.014 208.837 985.014 200.001 985.014 191.164 992.177 184.001 1001.01 184.001Z" stroke="#333333" stroke-width="2.29167" stroke-miterlimit="8" fill="#FFFFFF" fill-rule="evenodd"/><path d="M1001.01 138.981C1009.85 138.981 1017.01 146.144 1017.01 154.981 1017.01 163.817 1009.85 170.981 1001.01 170.981 992.177 170.981 985.014 163.817 985.014 154.981 985.014 146.144 992.177 138.981 1001.01 138.981Z" stroke="#333333" stroke-width="2.29167" stroke-miterlimit="8" fill="#FFFFFF" fill-rule="evenodd"/><path d="M1001.01 93.9605C1009.85 93.9605 1017.01 101.124 1017.01 109.961 1017.01 118.797 1009.85 125.961 1001.01 125.961 992.177 125.961 985.014 118.797 985.014 109.961 985.014 101.124 992.177 93.9605 1001.01 93.9605Z" stroke="#333333" stroke-width="2.29167" stroke-miterlimit="8" fill="#FFFFFF" fill-rule="evenodd"/><path d="M1017 200 1060.96 200" stroke="#FFFFFF" stroke-width="2.29167" stroke-miterlimit="8" fill="none" fill-rule="evenodd"/><path d="M1017 156 1060.96 156" stroke="#FFFFFF" stroke-width="2.29167" stroke-miterlimit="8" fill="none" fill-rule="evenodd"/><path d="M1017 110 1060.96 110" stroke="#FFFFFF" stroke-width="2.29167" stroke-miterlimit="8" fill="none" fill-rule="evenodd"/><path d="M942 490C942 437.533 985.428 395 1039 395 1092.57 395 1136 437.533 1136 490 1136 542.467 1092.57 585 1039 585 985.428 585 942 542.467 942 490Z" fill="#238DB0" fill-rule="evenodd"/><text fill="#FFFFFF" font-family="Arial,Arial_MSFontService,sans-serif" font-weight="700" font-size="41" transform="matrix(1 0 0 1 1012.06 572)">AT</text><path d="M1076.51 503C1085.07 503 1092.01 510.164 1092.01 519 1092.01 527.837 1085.07 535 1076.51 535 1067.95 535 1061.01 527.837 1061.01 519 1061.01 510.164 1067.95 503 1076.51 503Z" stroke="#333333" stroke-width="2.29167" stroke-miterlimit="8" fill="#FFFFFF" fill-rule="evenodd"/><path d="M1076.51 457.98C1085.07 457.98 1092.01 465.144 1092.01 473.98 1092.01 482.817 1085.07 489.98 1076.51 489.98 1067.95 489.98 1061.01 482.817 1061.01 473.98 1061.01 465.144 1067.95 457.98 1076.51 457.98Z" stroke="#333333" stroke-width="2.29167" stroke-miterlimit="8" fill="#FFFFFF" fill-rule="evenodd"/><path d="M1076.51 412.961C1085.07 412.961 1092.01 420.124 1092.01 428.961 1092.01 437.797 1085.07 444.961 1076.51 444.961 1067.95 444.961 1061.01 437.797 1061.01 428.961 1061.01 420.124 1067.95 412.961 1076.51 412.961Z" stroke="#333333" stroke-width="2.29167" stroke-miterlimit="8" fill="#FFFFFF" fill-rule="evenodd"/><path d="M1001.01 503.001C1009.85 503.001 1017.01 510.164 1017.01 519.001 1017.01 527.837 1009.85 535.001 1001.01 535.001 992.177 535.001 985.014 527.837 985.014 519.001 985.014 510.164 992.177 503.001 1001.01 503.001Z" stroke="#333333" stroke-width="2.29167" stroke-miterlimit="8" fill="#FFFFFF" fill-rule="evenodd"/><path d="M1001.01 457.981C1009.85 457.981 1017.01 465.144 1017.01 473.981 1017.01 482.817 1009.85 489.981 1001.01 489.981 992.177 489.981 985.014 482.817 985.014 473.981 985.014 465.144 992.177 457.981 1001.01 457.981Z" stroke="#333333" stroke-width="2.29167" stroke-miterlimit="8" fill="#FFFFFF" fill-rule="evenodd"/><path d="M1001.01 412.961C1009.85 412.961 1017.01 420.124 1017.01 428.961 1017.01 437.797 1009.85 444.961 1001.01 444.961 992.177 444.961 985.014 437.797 985.014 428.961 985.014 420.124 992.177 412.961 1001.01 412.961Z" stroke="#333333" stroke-width="2.29167" stroke-miterlimit="8" fill="#FFFFFF" fill-rule="evenodd"/><path d="M1017 519 1060.96 519" stroke="#FFFFFF" stroke-width="2.29167" stroke-miterlimit="8" fill="none" fill-rule="evenodd"/><path d="M1017 475 1060.96 475" stroke="#FFFFFF" stroke-width="2.29167" stroke-miterlimit="8" fill="none" fill-rule="evenodd"/><path d="M1017 429 1060.96 429" stroke="#FFFFFF" stroke-width="2.29167" stroke-miterlimit="8" fill="none" fill-rule="evenodd"/><path d="M370 330C370 277.533 413.428 235 467 235 520.572 235 564 277.533 564 330 564 382.467 520.572 425 467 425 413.428 425 370 382.467 370 330Z" fill="#238DB0" fill-rule="evenodd"/><text fill="#FFFFFF" font-family="Arial,Arial_MSFontService,sans-serif" font-weight="700" font-size="41" transform="matrix(1 0 0 1 423.087 410)">ANN</text><path d="M419.007 274.951 516.007 274.951" stroke="#505050" stroke-width="2.29167" stroke-miterlimit="8" fill="none" fill-rule="evenodd"/><path d="M419.007 274.998 516.007 320.998" stroke="#505050" stroke-width="2.29167" stroke-miterlimit="8" fill-rule="evenodd"/><path d="M419.007 275.005 516.007 367.005" stroke="#505050" stroke-width="2.29167" stroke-miterlimit="8" fill-rule="evenodd"/><path d="M419.007 320.998 516.007 274.998" stroke="#505050" stroke-width="2.29167" stroke-miterlimit="8" fill-rule="evenodd"/><path d="M419.007 321.03 516.007 321.03" stroke="#505050" stroke-width="2.29167" stroke-miterlimit="8" fill="none" fill-rule="evenodd"/><path d="M419.007 321.012 516.007 367.012" stroke="#505050" stroke-width="2.29167" stroke-miterlimit="8" fill-rule="evenodd"/><path d="M419.007 367.005 516.007 275.005" stroke="#505050" stroke-width="2.29167" stroke-miterlimit="8" fill-rule="evenodd"/><path d="M419.007 367.012 516.007 321.012" stroke="#505050" stroke-width="2.29167" stroke-miterlimit="8" fill-rule="evenodd"/><path d="M419.007 367.109 516.007 367.109" stroke="#505050" stroke-width="2.29167" stroke-miterlimit="8" fill="none" fill-rule="evenodd"/><path d="M429.992 274.492C429.992 280.843 424.844 285.992 418.492 285.992 412.141 285.992 406.992 280.843 406.992 274.492 406.992 268.14 412.141 262.992 418.492 262.992 424.844 262.992 429.992 268.14 429.992 274.492Z" stroke="#333333" stroke-width="2.29167" stroke-miterlimit="8" fill="#FFFFFF" fill-rule="evenodd"/><path d="M429.992 320.505C429.992 326.856 424.844 332.005 418.492 332.005 412.141 332.005 406.992 326.856 406.992 320.505 406.992 314.154 412.141 309.005 418.492 309.005 424.844 309.005 429.992 314.154 429.992 320.505Z" stroke="#333333" stroke-width="2.29167" stroke-miterlimit="8" fill="#FFFFFF" fill-rule="evenodd"/><path d="M429.992 367.519C429.992 373.87 424.844 379.019 418.492 379.019 412.141 379.019 406.992 373.87 406.992 367.519 406.992 361.167 412.141 356.019 418.492 356.019 424.844 356.019 429.992 361.167 429.992 367.519Z" stroke="#333333" stroke-width="2.29167" stroke-miterlimit="8" fill="#FFFFFF" fill-rule="evenodd"/><path d="M527.021 274.492C527.021 280.843 521.872 285.992 515.521 285.992 509.169 285.992 504.021 280.843 504.021 274.492 504.021 268.14 509.169 262.992 515.521 262.992 521.872 262.992 527.021 268.14 527.021 274.492Z" stroke="#333333" stroke-width="2.29167" stroke-miterlimit="8" fill="#FFFFFF" fill-rule="evenodd"/><path d="M527.021 320.505C527.021 326.856 521.872 332.005 515.521 332.005 509.169 332.005 504.021 326.856 504.021 320.505 504.021 314.154 509.169 309.005 515.521 309.005 521.872 309.005 527.021 314.154 527.021 320.505Z" stroke="#333333" stroke-width="2.29167" stroke-miterlimit="8" fill="#FFFFFF" fill-rule="evenodd"/><path d="M527.021 367.519C527.021 373.87 521.872 379.019 515.521 379.019 509.169 379.019 504.021 373.87 504.021 367.519 504.021 361.167 509.169 356.019 515.521 356.019 521.872 356.019 527.021 361.167 527.021 367.519Z" stroke="#333333" stroke-width="2.29167" stroke-miterlimit="8" fill="#FFFFFF" fill-rule="evenodd"/><path d="M749.92 79.5751 749.92 71.3236 749.92 63.0576 750.122 55.1189 750.629 47.1212 751.687 39.3686 753.55 32.1698 756.476 25.8789 758.465 23.1211 760.812 20.745 763.565 18.7801 766.739 17.2807 770.347 16.2927 774.385 15.8544 1605.17 15.854 1614.18 16.2194 1623.2 17.1315 1632.18 18.5718 1641.1 20.5219 1649.96 22.9637 1658.73 25.8791 1667.4 29.2501 1675.94 33.0586 1684.34 37.2868 1692.58 41.9166 1700.65 46.9302 1708.53 52.3166 1723.62 64.0953 1737.73 77.1326 1750.71 91.2795 1762.43 106.385 1767.77 114.272 1772.74 122.338 1777.33 130.576 1781.5 138.968 1785.25 147.496 1788.57 156.144 1791.42 164.893 1793.79 173.726 1795.67 182.625 1797.03 191.572 1797.87 200.55 1798.15 209.523 1797.89 309.253 1795.6 309.247 1795.85 209.537 1795.85 209.576 1795.58 200.657 1795.58 200.727 1794.75 191.817 1794.76 191.884 1793.41 183.003 1793.42 183.066 1791.56 174.23 1791.57 174.291 1789.21 165.517 1789.23 165.575 1786.4 156.882 1786.42 156.936 1783.12 148.342 1783.15 148.394 1779.42 139.915 1779.44 139.965 1775.29 131.62 1775.31 131.667 1770.75 123.474 1770.78 123.518 1765.84 115.495 1765.86 115.537 1760.55 107.701 1760.59 107.76 1748.93 92.7213 1748.99 92.7941 1736.07 78.7171 1736.14 78.7839 1722.1 65.8108 1722.17 65.8723 1707.15 54.1453 1707.21 54.1882 1699.37 48.8363 1699.42 48.8634 1691.39 43.8763 1691.44 43.9022 1683.24 39.2976 1683.28 39.322 1674.93 35.1177 1674.98 35.1407 1666.49 31.3544 1666.54 31.3758 1657.93 28.0253 1657.98 28.0447 1649.27 25.1477 1649.32 25.165 1640.53 22.7393 1640.59 22.7541 1631.72 20.8175 1631.78 20.8294 1622.87 19.3996 1622.93 19.4082 1613.99 18.5029 1614.06 18.5078 1605.1 18.1447 1605.14 18.1457 774.447 18.146 774.57 18.1393 770.685 18.5611 770.864 18.5271 767.441 19.4646 767.628 19.3955 764.636 20.8084 764.813 20.7049 762.224 22.553 762.373 22.4257 760.157 24.6686 760.272 24.5335 758.399 27.131 758.508 26.944 755.672 33.0414 755.742 32.8454 753.922 39.8776 753.948 39.7453 752.905 47.3899 752.913 47.3075 752.41 55.2422 752.412 55.1988 752.212 63.1012 752.212 63.0722 752.212 71.3237 752.212 79.5752ZM1805.92 304.69 1796.71 323 1787.59 304.644Z"/><path d="M1.14583-2.76555e-06 1.14616 135.776-1.14551 135.776-1.14583 2.76555e-06ZM9.16698 131.193 0.000360892 149.526-9.16635 131.193Z" transform="matrix(1 0 0 -1 1797 494.527)"/><text font-family="Arial,Arial_MSFontService,sans-serif" font-weight="400" font-size="41" transform="matrix(1 0 0 1 1609.32 628)">Distance information</text><text font-family="Arial,Arial_MSFontService,sans-serif" font-weight="400" font-size="41" transform="matrix(1 0 0 1 1861.61 226)">New feature</text><rect x="1178" y="1320" width="27.9999" height="27.9999" fill="#E8C56B"/><rect x="1178" y="1244" width="27.9999" height="27.9999" fill="#E8C56B"/><rect x="1178" y="1396" width="27.9999" height="28.0002" fill="#E8C56B"/><rect x="1178" y="1358" width="27.9999" height="27.9999" fill="#E47050"/><rect x="1178" y="1282" width="27.9999" height="28.0002" fill="#E47050"/><path d="M440 1299C423.984 1299 411 1279.48 411 1255.4L411 1183.1C411 1159.02 398.016 1139.5 382 1139.5 398.016 1139.5 411 1119.98 411 1095.9L411 1023.6C411 999.522 423.984 980 440 980" stroke="#000000" stroke-width="2.29167" stroke-miterlimit="8" fill="none" fill-rule="evenodd"/><path d="M1679 941C1679 888.533 1722.43 846 1776 846 1829.57 846 1873 888.533 1873 941 1873 993.467 1829.57 1036 1776 1036 1722.43 1036 1679 993.467 1679 941Z" fill="#E47050" fill-rule="evenodd"/><text fill="#FFFFFF" font-family="Arial,Arial_MSFontService,sans-serif" font-weight="700" font-size="41" transform="matrix(1 0 0 1 1735.77 1015)">E2N</text><path d="M1735.5 950.5 1821.81 950.537" stroke="#A80226" stroke-width="6.875" stroke-miterlimit="8" fill="none" fill-rule="evenodd"/><path d="M1715.23 913.507 1718.19 909.112 1723.5 905.616 1729.22 903.251 1735.23 901.984 1741.34 901.847 1747.36 902.876 1753.01 905.162 1758.05 908.62 1762.38 913.039 1765.89 918.217 1768.48 923.962 1770.04 930.084 1770.46 936.393 1769.64 942.569 1767.37 942.268 1768.17 936.205 1768.17 936.432 1767.76 930.342 1767.79 930.549 1766.28 924.625 1766.35 924.812 1763.84 919.249 1763.94 919.421 1760.54 914.41 1760.67 914.569 1756.49 910.304 1756.66 910.447 1751.81 907.122 1752.03 907.239 1746.61 905.047 1746.85 905.114 1741.06 904.124 1741.28 904.141 1735.39 904.273 1735.6 904.249 1729.8 905.472 1730 905.41 1724.48 907.692 1724.67 907.59 1719.64 910.9 1719.96 910.581 1717.14 914.784ZM1726.38 915.234 1708.77 925.721 1710.94 905.339Z"/><path d="M1782.72 941.949 1781.69 935.253 1782.08 928.708 1783.76 922.576 1786.57 916.993 1790.33 912.088 1794.91 907.985 1800.13 904.811 1805.85 902.695 1811.89 901.849 1817.99 902.321 1823.95 903.984 1829.66 906.753 1837.1 914.123 1835.49 915.751 1828.18 908.516 1828.48 908.732 1823.04 906.091 1823.23 906.163 1817.48 904.559 1817.7 904.598 1811.84 904.144 1812.08 904.136 1806.29 904.947 1806.53 904.887 1801.03 906.922 1801.23 906.827 1796.19 909.888 1796.36 909.762 1791.94 913.723 1792.09 913.568 1788.45 918.303 1788.57 918.12 1785.86 923.503 1785.94 923.292 1784.32 929.198 1784.36 928.964 1783.98 935.268 1783.97 935.024 1784.99 941.599ZM1841.36 906.03 1843.94 926.365 1826.13 916.225Z"/><path d="M1733.98 950.037C1733.98 962.74 1723.69 973.037 1710.98 973.037 1698.28 973.037 1687.98 962.74 1687.98 950.037 1687.98 937.335 1698.28 927.037 1710.98 927.037 1723.69 927.037 1733.98 937.335 1733.98 950.037Z" stroke="#000000" stroke-width="2.29167" stroke-miterlimit="8" fill="#FFE99D" fill-rule="evenodd"/><path d="M1867.98 950.037C1867.98 962.74 1857.69 973.037 1844.98 973.037 1832.28 973.037 1821.98 962.74 1821.98 950.037 1821.98 937.335 1832.28 927.037 1844.98 927.037 1857.69 927.037 1867.98 937.335 1867.98 950.037Z" stroke="#000000" stroke-width="2.29167" stroke-miterlimit="8" fill="#FFE99D" fill-rule="evenodd"/><rect x="1590" y="1094" width="92.0001" height="91.9998" fill="#EEC16F"/><text fill="#FFFFFF" font-family="Arial,Arial_MSFontService,sans-serif" font-weight="700" font-size="41" transform="matrix(1 0 0 1 1623.16 1155)">u</text><path d="M12.8325-28.9883 23.2427-22.6821 22.4219-21.4209 11.7114-26.4058 11.4912-26.4058 0.800781-21.4209 0-22.6821 10.1499-28.9883Z" fill="#FFFFFF" transform="matrix(1 0 0 1 1624.08 1153)"/><text fill="#000000" fill-opacity="0" font-family="Arial,Arial_MSFontService,sans-serif" font-size="7.56738" y="-22.3668">ෝ</text><path d="M463 1241.77C463 1229.75 472.748 1220 484.772 1220L659.228 1220C671.252 1220 681 1229.75 681 1241.77L681 1415.23C681 1427.25 671.252 1437 659.228 1437L484.772 1437C472.748 1437 463 1427.25 463 1415.23Z" fill="#238DB0" fill-rule="evenodd"/><text fill="#FFFFFF" font-family="Arial,Arial_MSFontService,sans-serif" font-weight="700" font-size="41" transform="matrix(1 0 0 1 513.542 1319)">AGAT </text><text fill="#FFFFFF" font-family="Arial,Arial_MSFontService,sans-serif" font-weight="700" font-size="41" transform="matrix(1 0 0 1 516.98 1369)">Layer</text><text fill="#1597A5" font-family="Arial,Arial_MSFontService,sans-serif" font-style="italic" font-weight="400" font-size="41" transform="matrix(1 0 0 1 700.26 1449)">n</text><path d="M464.396 1448C455.893 1448 449 1441.11 449 1432.6L449 1224.4C449 1215.89 455.893 1209 464.396 1209M679.604 1209C688.107 1209 695 1215.89 695 1224.4L695 1432.6C695 1441.11 688.107 1448 679.604 1448" stroke="#1597A5" stroke-width="2.29167" stroke-miterlimit="8" fill="none" fill-rule="evenodd"/><path d="M715 1332.85 759.715 1332.85 759.715 1335.15 715 1335.15ZM755.131 1324.83 773.465 1334 755.131 1343.17Z"/><path d="M720 939.854 764.715 939.854 764.715 942.146 720 942.146ZM760.131 931.833 778.465 941 760.131 950.167Z"/><path d="M989 939.854 1033.71 939.854 1033.71 942.146 989 942.146ZM1029.13 931.833 1047.46 941 1029.13 950.167Z"/><path d="M1317 939.854 1361.71 939.854 1361.71 942.146 1317 942.146ZM1357.13 931.833 1375.46 941 1357.13 950.167Z"/><path d="M1613 939.854 1657.71 939.854 1657.71 942.146 1613 942.146ZM1653.13 931.833 1671.46 941 1653.13 950.167Z"/><path d="M1008 1332.85 1052.71 1332.85 1052.71 1335.15 1008 1335.15ZM1048.13 1324.83 1066.46 1334 1048.13 1343.17Z"/><rect x="1054" y="840" width="29.0002" height="27.9998" fill="#E8C56B"/><rect x="1206" y="840" width="28.0002" height="27.9998" fill="#E47050"/><rect x="1282" y="840" width="28.0002" height="27.9998" fill="#E8C56B"/><rect x="1130" y="840" width="28.0002" height="27.9998" fill="#E47050"/><text fill="#7F7F7F" font-family="Arial,Arial_MSFontService,sans-serif" font-weight="700" font-size="32" transform="matrix(1 0 0 1 1090.41 856)">…</text><rect x="1168" y="840" width="27.9999" height="27.9998" fill="#E8C56B"/><rect x="1244" y="840" width="27.9999" height="27.9998" fill="#E8C56B"/><rect x="1054" y="876" width="29.0002" height="28.0002" fill="#E47050"/><rect x="1092" y="876" width="28.9999" height="28.0002" fill="#E8C56B"/><rect x="1206" y="876" width="28.0002" height="28.0002" fill="#E8C56B"/><rect x="1282" y="876" width="28.0002" height="28.0002" fill="#E47050"/><text fill="#7F7F7F" font-family="Arial,Arial_MSFontService,sans-serif" font-weight="700" font-size="32" transform="matrix(1 0 0 1 1128.3 893)">…</text><rect x="1168" y="876" width="27.9999" height="28.0002" fill="#E47050"/><rect x="1244" y="876" width="27.9999" height="28.0002" fill="#E47050"/><rect x="1054" y="913" width="29.0002" height="27.9998" fill="#E8C56B"/><rect x="1092" y="913" width="28.9999" height="27.9998" fill="#E47050"/><rect x="1206" y="913" width="28.0002" height="27.9998" fill="#E8C56B"/><rect x="1282" y="913" width="28.0002" height="27.9998" fill="#E8C56B"/><rect x="1130" y="913" width="28.0002" height="27.9998" fill="#E8C56B"/><text fill="#7F7F7F" font-family="Arial,Arial_MSFontService,sans-serif" font-weight="700" font-size="32" transform="matrix(1 0 0 1 1166.18 929)">…</text><rect x="1244" y="913" width="27.9999" height="27.9998" fill="#E47050"/><rect x="1054" y="949" width="29.0002" height="27.9998" fill="#E47050"/><rect x="1092" y="949" width="28.9999" height="27.9998" fill="#E8C56B"/><rect x="1282" y="949" width="28.0002" height="27.9998" fill="#E47050"/><rect x="1130" y="949" width="28.0002" height="27.9998" fill="#E47050"/><text fill="#7F7F7F" font-family="Arial,Arial_MSFontService,sans-serif" font-weight="700" font-size="32" transform="matrix(1 0 0 1 1204.07 965)">…</text><rect x="1168" y="949" width="27.9999" height="27.9998" fill="#E8C56B"/><rect x="1244" y="949" width="27.9999" height="27.9998" fill="#E8C56B"/><rect x="1054" y="1023" width="29.0002" height="27.9999" fill="#E8C56B"/><rect x="1092" y="1023" width="28.9999" height="27.9999" fill="#E47050"/><rect x="1206" y="1023" width="28.0002" height="27.9999" fill="#E47050"/><rect x="1282" y="1023" width="28.0002" height="27.9999" fill="#E47050"/><rect x="1130" y="1023" width="28.0002" height="27.9999" fill="#E8C56B"/><text fill="#7F7F7F" font-family="Arial,Arial_MSFontService,sans-serif" font-weight="700" font-size="32" transform="matrix(1 0 0 1 1241.95 1045)">…</text><rect x="1168" y="1023" width="27.9999" height="27.9999" fill="#E47050"/><text fill="#7F7F7F" font-family="Arial,Arial_MSFontService,sans-serif" font-weight="700" font-size="32" transform="matrix(6.12323e-17 1 -1 6.12323e-17 1065.99 985)">…</text><text fill="#7F7F7F" font-family="Arial,Arial_MSFontService,sans-serif" font-weight="700" font-size="32" transform="matrix(6.12323e-17 1 -1 6.12323e-17 1104.09 985)">…</text><text fill="#7F7F7F" font-family="Arial,Arial_MSFontService,sans-serif" font-weight="700" font-size="32" transform="matrix(6.12323e-17 1 -1 6.12323e-17 1142.36 985)">…</text><text fill="#7F7F7F" font-family="Arial,Arial_MSFontService,sans-serif" font-weight="700" font-size="32" transform="matrix(6.12323e-17 1 -1 6.12323e-17 1180.26 985)">…</text><text fill="#7F7F7F" font-family="Arial,Arial_MSFontService,sans-serif" font-weight="700" font-size="32" transform="matrix(6.12323e-17 1 -1 6.12323e-17 1292.18 985)">…</text><path d="M464.396 1054C455.893 1054 449 1047.11 449 1038.6L449 830.396C449 821.893 455.893 815 464.396 815M679.604 815C688.107 815 695 821.893 695 830.396L695 1038.6C695 1047.11 688.107 1054 679.604 1054" stroke="#1597A5" stroke-width="2.29167" stroke-miterlimit="8" fill="none" fill-rule="evenodd"/><path d="M463 846.872C463 834.792 472.792 825 484.872 825L659.128 825C671.208 825 681 834.792 681 846.872L681 1021.13C681 1033.21 671.208 1043 659.128 1043L484.872 1043C472.792 1043 463 1033.21 463 1021.13Z" fill="#238DB0" fill-rule="evenodd"/><text fill="#FFFFFF" font-family="Arial,Arial_MSFontService,sans-serif" font-weight="700" font-size="41" transform="matrix(1 0 0 1 513.542 925)">AGAT </text><text fill="#FFFFFF" font-family="Arial,Arial_MSFontService,sans-serif" font-weight="700" font-size="41" transform="matrix(1 0 0 1 516.98 975)">Layer</text><text fill="#1597A5" font-family="Arial,Arial_MSFontService,sans-serif" font-style="italic" font-weight="400" font-size="41" transform="matrix(1 0 0 1 700.26 1057)">n</text><path d="M787 1330C787 1277.53 830.428 1235 884 1235 937.572 1235 981 1277.53 981 1330 981 1382.47 937.572 1425 884 1425 830.428 1425 787 1382.47 787 1330Z" fill="#E47050" fill-rule="evenodd"/><text fill="#FFFFFF" font-family="Arial,Arial_MSFontService,sans-serif" font-weight="700" font-size="41" transform="matrix(1 0 0 1 840.336 1409)">ANN</text><path d="M836.007 1273.95 933.006 1273.95" stroke="#505050" stroke-width="2.29167" stroke-miterlimit="8" fill="none" fill-rule="evenodd"/><path d="M836.007 1274 933.006 1321" stroke="#505050" stroke-width="2.29167" stroke-miterlimit="8" fill-rule="evenodd"/><path d="M836.007 1274.01 933.006 1367.01" stroke="#505050" stroke-width="2.29167" stroke-miterlimit="8" fill-rule="evenodd"/><path d="M836.007 1321 933.006 1274" stroke="#505050" stroke-width="2.29167" stroke-miterlimit="8" fill-rule="evenodd"/><path d="M836.007 1321.03 933.006 1321.03" stroke="#505050" stroke-width="2.29167" stroke-miterlimit="8" fill="none" fill-rule="evenodd"/><path d="M836.007 1321.01 933.006 1367.01" stroke="#505050" stroke-width="2.29167" stroke-miterlimit="8" fill-rule="evenodd"/><path d="M836.007 1367.01 933.006 1274.01" stroke="#505050" stroke-width="2.29167" stroke-miterlimit="8" fill-rule="evenodd"/><path d="M836.007 1367.01 933.006 1321.01" stroke="#505050" stroke-width="2.29167" stroke-miterlimit="8" fill-rule="evenodd"/><path d="M836.007 1367.11 933.006 1367.11" stroke="#505050" stroke-width="2.29167" stroke-miterlimit="8" fill="none" fill-rule="evenodd"/><path d="M846.992 1274.49C846.992 1280.84 841.844 1285.99 835.492 1285.99 829.141 1285.99 823.992 1280.84 823.992 1274.49 823.992 1268.14 829.141 1262.99 835.492 1262.99 841.844 1262.99 846.992 1268.14 846.992 1274.49Z" stroke="#333333" stroke-width="2.29167" stroke-miterlimit="8" fill="#FFFFFF" fill-rule="evenodd"/><path d="M846.992 1320.51C846.992 1326.86 841.844 1332.01 835.492 1332.01 829.141 1332.01 823.992 1326.86 823.992 1320.51 823.992 1314.15 829.141 1309.01 835.492 1309.01 841.844 1309.01 846.992 1314.15 846.992 1320.51Z" stroke="#333333" stroke-width="2.29167" stroke-miterlimit="8" fill="#FFFFFF" fill-rule="evenodd"/><path d="M846.992 1366.52C846.992 1372.87 841.844 1378.02 835.492 1378.02 829.141 1378.02 823.992 1372.87 823.992 1366.52 823.992 1360.17 829.141 1355.02 835.492 1355.02 841.844 1355.02 846.992 1360.17 846.992 1366.52Z" stroke="#333333" stroke-width="2.29167" stroke-miterlimit="8" fill="#FFFFFF" fill-rule="evenodd"/><path d="M944.021 1274.49C944.021 1280.84 938.872 1285.99 932.521 1285.99 926.169 1285.99 921.021 1280.84 921.021 1274.49 921.021 1268.14 926.169 1262.99 932.521 1262.99 938.872 1262.99 944.021 1268.14 944.021 1274.49Z" stroke="#333333" stroke-width="2.29167" stroke-miterlimit="8" fill="#FFFFFF" fill-rule="evenodd"/><path d="M944.021 1320.51C944.021 1326.86 938.872 1332.01 932.521 1332.01 926.169 1332.01 921.021 1326.86 921.021 1320.51 921.021 1314.15 926.169 1309.01 932.521 1309.01 938.872 1309.01 944.021 1314.15 944.021 1320.51Z" stroke="#333333" stroke-width="2.29167" stroke-miterlimit="8" fill="#FFFFFF" fill-rule="evenodd"/><path d="M944.021 1366.52C944.021 1372.87 938.872 1378.02 932.521 1378.02 926.169 1378.02 921.021 1372.87 921.021 1366.52 921.021 1360.17 926.169 1355.02 932.521 1355.02 938.872 1355.02 944.021 1360.17 944.021 1366.52Z" stroke="#333333" stroke-width="2.29167" stroke-miterlimit="8" fill="#FFFFFF" fill-rule="evenodd"/><path d="M793.743 1434C787.81 1434 783 1429.19 783 1423.26L783 1235.74C783 1229.81 787.81 1225 793.743 1225M975.257 1225C981.19 1225 986 1229.81 986 1235.74L986 1423.26C986 1429.19 981.19 1434 975.257 1434" stroke="#E47050" stroke-width="2.29167" stroke-miterlimit="8" fill="none" fill-rule="evenodd"/><text fill="#A80226" font-family="Arial,Arial_MSFontService,sans-serif" font-style="italic" font-weight="400" font-size="41" transform="matrix(1 0 0 1 998.24 1433)">n'</text><path d="M787 941C787 888.533 830.428 846 884 846 937.572 846 981 888.533 981 941 981 993.467 937.572 1036 884 1036 830.428 1036 787 993.467 787 941Z" fill="#E47050" fill-rule="evenodd"/><text fill="#FFFFFF" font-family="Arial,Arial_MSFontService,sans-serif" font-weight="700" font-size="41" transform="matrix(1 0 0 1 843.807 1015)">N2E</text><path d="M844.5 950.5 930.812 950.537" stroke="#C00000" stroke-width="6.875" stroke-miterlimit="8" fill="none" fill-rule="evenodd"/><path d="M811.861 940.219 812.595 933.6 814.67 927.485 817.882 922.092 822.036 917.508 826.944 913.812 832.419 911.083 838.279 909.401 844.35 908.849 850.392 909.58 856.157 911.577 861.478 914.668 866.278 918.749 871.409 927.453 869.434 928.616 864.402 920.079 864.646 920.37 860.071 916.48 860.238 916.598 855.101 913.615 855.302 913.706 849.757 911.786 849.995 911.84 844.195 911.138 844.437 911.142 838.595 911.673 838.807 911.634 833.152 913.257 833.347 913.181 828.06 915.816 828.238 915.706 823.502 919.273 823.661 919.127 819.657 923.546 819.792 923.363 816.701 928.554 816.801 928.335 814.805 934.218 814.859 933.976 814.139 940.471ZM877.539 920.66 875 941 860.252 926.765Z"/><path d="M897.203 926.915 898.798 922.184 903.037 917.508 907.944 913.812 913.419 911.083 919.279 909.401 925.351 908.849 931.392 909.58 937.157 911.577 942.478 914.668 947.207 918.688 951.194 923.482 954.287 928.896 956.328 934.779 957.136 940.849 954.864 941.151 954.072 935.196 954.125 935.42 952.157 929.747 952.245 929.94 949.254 924.706 949.368 924.87 945.508 920.23 945.647 920.37 941.072 916.48 941.238 916.598 936.102 913.615 936.302 913.706 930.757 911.786 930.995 911.84 925.196 911.138 925.437 911.142 919.595 911.673 919.807 911.634 914.152 913.257 914.347 913.181 909.06 915.816 909.239 915.706 904.502 919.273 904.662 919.127 900.657 923.546 900.893 923.143 899.375 927.647ZM908.428 925.785 894 940.345 891.009 920.067Z"/><path d="M841.984 950.037C841.984 962.74 831.687 973.037 818.985 973.037 806.282 973.037 795.985 962.74 795.985 950.037 795.985 937.335 806.282 927.037 818.985 927.037 831.687 927.037 841.984 937.335 841.984 950.037Z" stroke="#000000" stroke-width="2.29167" stroke-miterlimit="8" fill="#A6A6A6" fill-rule="evenodd"/><path d="M975.985 950.037C975.985 962.74 965.687 973.037 952.984 973.037 940.282 973.037 929.984 962.74 929.984 950.037 929.984 937.335 940.282 927.037 952.984 927.037 965.687 927.037 975.985 937.335 975.985 950.037Z" stroke="#000000" stroke-width="2.29167" stroke-miterlimit="8" fill="#A6A6A6" fill-rule="evenodd"/><path d="M1387 934C1387 881.533 1430.43 839 1484 839 1537.57 839 1581 881.533 1581 934 1581 986.467 1537.57 1029 1484 1029 1430.43 1029 1387 986.467 1387 934Z" fill="#E47050" fill-rule="evenodd"/><text fill="#FFFFFF" font-family="Arial,Arial_MSFontService,sans-serif" font-weight="700" font-size="41" transform="matrix(1 0 0 1 1439.84 1013)">ANN</text><path d="M1435.01 877.951 1532.01 877.951" stroke="#505050" stroke-width="2.29167" stroke-miterlimit="8" fill="none" fill-rule="evenodd"/><path d="M1435.01 877.998 1532.01 924.998" stroke="#505050" stroke-width="2.29167" stroke-miterlimit="8" fill-rule="evenodd"/><path d="M1435.01 878.005 1532.01 971.005" stroke="#505050" stroke-width="2.29167" stroke-miterlimit="8" fill-rule="evenodd"/><path d="M1435.01 924.998 1532.01 877.998" stroke="#505050" stroke-width="2.29167" stroke-miterlimit="8" fill-rule="evenodd"/><path d="M1435.01 925.03 1532.01 925.03" stroke="#505050" stroke-width="2.29167" stroke-miterlimit="8" fill="none" fill-rule="evenodd"/><path d="M1435.01 925.012 1532.01 971.012" stroke="#505050" stroke-width="2.29167" stroke-miterlimit="8" fill-rule="evenodd"/><path d="M1435.01 971.005 1532.01 878.005" stroke="#505050" stroke-width="2.29167" stroke-miterlimit="8" fill-rule="evenodd"/><path d="M1435.01 971.012 1532.01 925.012" stroke="#505050" stroke-width="2.29167" stroke-miterlimit="8" fill-rule="evenodd"/><path d="M1435.01 971.109 1532.01 971.109" stroke="#505050" stroke-width="2.29167" stroke-miterlimit="8" fill="none" fill-rule="evenodd"/><path d="M1446.99 878.492C1446.99 884.843 1441.84 889.992 1435.49 889.992 1429.14 889.992 1423.99 884.843 1423.99 878.492 1423.99 872.14 1429.14 866.992 1435.49 866.992 1441.84 866.992 1446.99 872.14 1446.99 878.492Z" stroke="#333333" stroke-width="2.29167" stroke-miterlimit="8" fill="#FFFFFF" fill-rule="evenodd"/><path d="M1446.99 924.505C1446.99 930.856 1441.84 936.005 1435.49 936.005 1429.14 936.005 1423.99 930.856 1423.99 924.505 1423.99 918.154 1429.14 913.005 1435.49 913.005 1441.84 913.005 1446.99 918.154 1446.99 924.505Z" stroke="#333333" stroke-width="2.29167" stroke-miterlimit="8" fill="#FFFFFF" fill-rule="evenodd"/><path d="M1446.99 970.519C1446.99 976.87 1441.84 982.019 1435.49 982.019 1429.14 982.019 1423.99 976.87 1423.99 970.519 1423.99 964.167 1429.14 959.019 1435.49 959.019 1441.84 959.019 1446.99 964.167 1446.99 970.519Z" stroke="#333333" stroke-width="2.29167" stroke-miterlimit="8" fill="#FFFFFF" fill-rule="evenodd"/><path d="M1544.02 878.492C1544.02 884.843 1538.87 889.992 1532.52 889.992 1526.17 889.992 1521.02 884.843 1521.02 878.492 1521.02 872.14 1526.17 866.992 1532.52 866.992 1538.87 866.992 1544.02 872.14 1544.02 878.492Z" stroke="#333333" stroke-width="2.29167" stroke-miterlimit="8" fill="#FFFFFF" fill-rule="evenodd"/><path d="M1544.02 924.505C1544.02 930.856 1538.87 936.005 1532.52 936.005 1526.17 936.005 1521.02 930.856 1521.02 924.505 1521.02 918.154 1526.17 913.005 1532.52 913.005 1538.87 913.005 1544.02 918.154 1544.02 924.505Z" stroke="#333333" stroke-width="2.29167" stroke-miterlimit="8" fill="#FFFFFF" fill-rule="evenodd"/><path d="M1544.02 970.519C1544.02 976.87 1538.87 982.019 1532.52 982.019 1526.17 982.019 1521.02 976.87 1521.02 970.519 1521.02 964.167 1526.17 959.019 1532.52 959.019 1538.87 959.019 1544.02 964.167 1544.02 970.519Z" stroke="#333333" stroke-width="2.29167" stroke-miterlimit="8" fill="#FFFFFF" fill-rule="evenodd"/><path d="M1392.74 1038C1386.81 1038 1382 1033.19 1382 1027.26L1382 839.743C1382 833.81 1386.81 829 1392.74 829M1574.26 829C1580.19 829 1585 833.81 1585 839.743L1585 1027.26C1585 1033.19 1580.19 1038 1574.26 1038" stroke="#E47050" stroke-width="2.29167" stroke-miterlimit="8" fill="none" fill-rule="evenodd"/><text fill="#E47050" font-family="Arial,Arial_MSFontService,sans-serif" font-style="italic" font-weight="400" font-size="41" transform="matrix(1 0 0 1 1597.74 1043)">n'</text><rect x="2031" y="927" width="28.0002" height="27.9998" fill="#E8C56B"/><rect x="2031" y="1003" width="28.0002" height="27.9999" fill="#E47050"/><rect x="2031" y="851" width="28.0002" height="27.9998" fill="#E47050"/><rect x="2031" y="889" width="28.0002" height="28.0002" fill="#E8C56B"/><rect x="2031" y="965" width="28.0002" height="28.0002" fill="#E8C56B"/><rect x="1993" y="927" width="27.9999" height="27.9998" fill="#E47050"/><rect x="1993" y="1003" width="27.9999" height="27.9998" fill="#E8C56B"/><rect x="1993" y="851" width="27.9999" height="27.9998" fill="#E8C56B"/><rect x="1993" y="889" width="27.9999" height="28.0002" fill="#E47050"/><rect x="1993" y="965" width="27.9999" height="28.0002" fill="#E47050"/><rect x="1956" y="927" width="28.0002" height="27.9998" fill="#E8C56B"/><rect x="1956" y="1003" width="28.0002" height="27.9999" fill="#E47050"/><rect x="1956" y="851" width="28.0002" height="27.9998" fill="#E47050"/><rect x="1956" y="889" width="28.0002" height="28.0002" fill="#E47050"/><rect x="1956" y="965" width="28.0002" height="28.0002" fill="#E8C56B"/><path d="M1888 939.854 1932.71 939.854 1932.71 942.146 1888 942.146ZM1928.13 931.833 1946.46 941 1928.13 950.167Z"/><text font-family="Arial,Arial_MSFontService,sans-serif" font-weight="400" font-size="41" transform="matrix(1 0 0 1 1058.86 1232)">Atomic energy</text><text font-family="Arial,Arial_MSFontService,sans-serif" font-weight="400" font-size="41" transform="matrix(1 0 0 1 1891.23 823)">Atomic force</text><path d="M1.14583-3.12194e-06 1.14616 118.707-1.14551 118.707-1.14583 3.12194e-06ZM9.16698 114.124 0.000360892 132.457-9.16636 114.124Z" transform="matrix(1 0 0 -1 1636 1085.46)"/><path d="M1359 1279.15C1359 1271.33 1365.33 1265 1373.15 1265L2107.85 1265C2115.67 1265 2122 1271.33 2122 1279.15L2122 1391.85C2122 1399.67 2115.67 1406 2107.85 1406L1373.15 1406C1365.33 1406 1359 1399.67 1359 1391.85Z" fill="#E47050" fill-rule="evenodd"/><text fill="#FFFFFF" font-family="Arial,Arial_MSFontService,sans-serif" font-weight="700" font-size="41" transform="matrix(1 0 0 1 1378.56 1323)">N2E: </text><text fill="#FFFFFF" font-family="Arial,Arial_MSFontService,sans-serif" font-weight="400" font-size="41" transform="matrix(1 0 0 1 1483.98 1323)">aggregate node features to edges</text><text fill="#FFFFFF" font-family="Arial,Arial_MSFontService,sans-serif" font-weight="700" font-size="41" transform="matrix(1 0 0 1 1378.56 1385)">E2N: </text><text fill="#FFFFFF" font-family="Arial,Arial_MSFontService,sans-serif" font-weight="400" font-size="41" transform="matrix(1 0 0 1 1483.98 1385)">aggregate edge features to nodes</text><rect x="1711" y="1099" width="268" height="81.0001" stroke="#000000" stroke-width="2.29167" stroke-miterlimit="8" stroke-dasharray="9.16667 6.875" fill="#FFFFFF"/><rect x="1721" y="1110" width="58.9998" height="58.0001" fill="#EEC16F"/><text fill="#FFFFFF" font-family="Arial,Arial_MSFontService,sans-serif" font-weight="700" font-size="32" transform="matrix(1 0 0 1 1740.77 1151)">d</text><rect x="1815" y="1110" width="59.0001" height="58.0001" fill="#EEC16F"/><text fill="#FFFFFF" font-family="Arial,Arial_MSFontService,sans-serif" font-weight="400" font-size="32" transform="matrix(1 0 0 1 1821.47 1151)">1/</text><text fill="#FFFFFF" font-family="Arial,Arial_MSFontService,sans-serif" font-weight="700" font-size="32" transform="matrix(1 0 0 1 1848.4 1151)">d</text><rect x="1910" y="1110" width="58.0001" height="58.0001" fill="#EEC16F"/><text fill="#FFFFFF" font-family="Arial,Arial_MSFontService,sans-serif" font-weight="400" font-size="32" transform="matrix(1 0 0 1 1916.49 1151)">1.0</text><path d="M1846 1082 1846 1100.47" stroke="#000000" stroke-width="2.29167" stroke-miterlimit="8" fill="none" fill-rule="evenodd"/><path d="M1706 1055 1817.07 1055" stroke="#000000" stroke-width="2.29167" stroke-miterlimit="8" fill="none" fill-rule="evenodd"/><path d="M56.9993 28.7027C56.8882 44.328 44.2164 56.9501 28.5908 56.9999" stroke="#000000" stroke-width="2.29167" stroke-miterlimit="8" fill="none" fill-rule="evenodd" transform="matrix(1 0 0 -1 1789 1112)"/><path d="M1659.15 966.75 1659.15 1007.38 1656.85 1007.38 1656.85 966.75ZM1648.83 971.333 1658 953 1667.17 971.333Z"/><path d="M0.00125985 47.6552C0.191776 21.1503 21.8295-0.183412 48.3345 0.00119102" stroke="#000000" stroke-width="2.29167" stroke-miterlimit="8" fill="none" fill-rule="evenodd" transform="matrix(1 0 0 -1 1658 1055)"/><path d="M6.50003 37.9224C6.50003 21.6729 19.6728 8.5001 35.9223 8.5001L2109.08 8.5001C2125.33 8.5001 2138.5 21.6729 2138.5 37.9224L2138.5 605.078C2138.5 621.327 2125.33 634.5 2109.08 634.5L35.9223 634.5C19.6728 634.5 6.50003 621.327 6.50003 605.078Z" stroke="#595959" stroke-width="4.58333" stroke-miterlimit="8" fill="none" fill-rule="evenodd"/><path d="M6.50003 815.272C6.50003 797.725 20.7251 783.5 38.2725 783.5L2106.73 783.5C2124.27 783.5 2138.5 797.725 2138.5 815.272L2138.5 1427.73C2138.5 1445.27 2124.27 1459.5 2106.73 1459.5L38.2725 1459.5C20.7251 1459.5 6.50003 1445.27 6.50003 1427.73Z" stroke="#595959" stroke-width="4.58333" stroke-miterlimit="8" fill="none" fill-rule="evenodd"/><path d="M474 713 523 713 523 662 621 662 621 713 670 713 572 764Z" fill="url(#fill1)" fill-rule="evenodd"/><g><g><g><g><path d="M-417.751 863.693-423.798 861.798-423.325 860.284-417.278 862.178ZM-428.334 860.374-428.448 860.339-434.333 858.238-433.801 856.745-427.929 858.846-427.959 858.832-427.861 858.867ZM-438.827 856.606-444.715 854.263-444.129 852.79-438.241 855.134ZM-449.135 852.445-454.94 849.907-454.305 848.456-448.5 850.993ZM-459.286 847.923-465.012 845.206-464.333 843.775-458.608 846.492ZM-469.279 843.049-474.898 840.118-474.165 838.715-468.546 841.639ZM-479.069 837.788-484.247 834.864-484.603 834.65-483.786 833.294-483.44 833.502-483.459 833.495-478.292 836.405ZM-488.675 832.202-492.955 829.623-494.103 828.87-493.233 827.549-492.098 828.289-492.125 828.275-487.858 830.847ZM-498.076 826.264-501.403 824.079-503.355 822.717-502.448 821.417-500.506 822.772-500.524 822.758-497.207 824.936ZM-507.253 820-509.72 818.279-512.402 816.26-511.449 814.988-508.779 817-508.802 816.986-506.346 818.7ZM-516.2 813.398-517.783 812.209-521.16 809.395-520.146 808.178-516.785 810.978-516.816 810.951-515.247 812.133ZM-524.813 806.353-529.684 802.302-528.67 801.085-523.799 805.136ZM-533.372 799.219-537.967 794.856-536.876 793.709-532.281 798.071ZM-541.414 791.586-546.009 787.224-544.918 786.069-540.323 790.439ZM-549.39 783.809-553.691 779.156-552.527 778.077-548.226 782.737ZM-556.916 775.665-561.217 771.012-560.054 769.934-555.753 774.586ZM-564.261 767.293-568.24 762.363-567.007 761.368-563.029 766.297ZM-571.224 758.658-574.221 754.945-575.166 753.653-573.886 752.719-572.953 753.998-572.975 753.964-569.991 757.669ZM-577.968 749.816-580.203 746.753-581.649 744.624-580.338 743.732-578.9 745.854-578.915 745.827-576.689 748.875ZM-584.318 740.69-585.878 738.395-587.798 735.367-586.461 734.516-584.546 737.531-584.56 737.51-583.008 739.798ZM-590.345 731.35-591.292 729.857-593.625 725.902-592.26 725.094-589.934 729.041-589.948 729.02-589.008 730.5ZM-596.038 721.803-596.448 721.105-599.102 716.224-597.709 715.47-595.062 720.337-595.075 720.316-594.672 721.001ZM-601.38 712.02-604.203 706.351-602.785 705.646-599.962 711.315ZM-606.303 702.058-608.964 696.306-607.526 695.643-604.865 701.395ZM-610.909 691.944-613.373 686.104-611.914 685.488-609.45 691.327ZM-615.133 681.658-617.376 675.731-615.894 675.17-613.651 681.098ZM-618.969 671.229-621.044 665.242-619.547 664.723-617.471 670.711ZM-622.423 660.657-624.23 654.583-622.712 654.131-620.904 660.205ZM-418.755 855.956-408.399 865.628-422.35 868.11ZM-628.849 658.709-626.129 644.802-616.635 655.322Z" transform="matrix(-1 0 0 1.00181 -292.953 404.243)"/><path d="M-626.338 817.352-624.512 811.282-622.994 811.739-624.821 817.809ZM-623.142 806.733-623.086 806.547-621.096 800.705-619.596 801.216-621.582 807.044-621.573 807.017-621.625 807.19ZM-619.53 796.184-617.249 790.273-615.771 790.84-618.052 796.757ZM-615.493 785.827-613.039 779.986-611.578 780.601-614.033 786.443ZM-611.12 775.609-608.469 769.857-607.03 770.514-609.681 776.273ZM-606.37 765.557-603.515 759.902-602.1 760.614-604.956 766.276ZM-601.248 755.699-598.262 750.224-598.194 750.113-596.83 750.915-596.892 751.019-596.878 750.998-599.857 756.452ZM-595.776 746.02-593.064 741.43-592.508 740.559-591.172 741.409-591.72 742.273-591.707 742.253-594.412 746.829ZM-589.957 736.549-587.605 732.857-586.486 731.219-585.178 732.111-586.29 733.735-586.275 733.715-588.62 737.399ZM-583.802 727.292-581.888 724.492-580.136 722.093-578.857 723.033-580.601 725.419-580.586 725.398-582.495 728.191ZM-577.334 718.256-575.908 716.307-573.455 713.209-572.212 714.191-574.657 717.275-574.638 717.254-576.054 719.19ZM-570.503 709.483-569.627 708.377-566.449 704.589-565.234 705.605-568.405 709.386-568.391 709.373-569.261 710.465ZM-563.396 700.945-563.125 700.62-559.076 696.251-557.914 697.329-561.95 701.685-561.924 701.65-562.181 701.961ZM-555.846 692.767-551.537 688.118-550.375 689.195-554.683 693.845ZM-548.192 684.671-543.584 680.321-542.497 681.472-547.104 685.823ZM-540.128 677.057-535.52 672.707-534.432 673.859-539.04 678.21ZM-531.869 669.586-526.988 665.545-525.977 666.766-530.859 670.806ZM-523.327 662.515-519.076 658.996-518.382 658.483-517.441 659.757-518.117 660.257-518.083 660.231-522.316 663.735ZM-514.56 655.658-510.927 652.971-509.418 651.918-508.511 653.217-510.011 654.264-509.994 654.252-513.618 656.931ZM-505.521 649.198-502.611 647.168-500.25 645.633-499.387 646.962-501.737 648.489-501.715 648.474-504.613 650.497ZM-496.264 643.044-494.077 641.622-490.859 639.685-490.042 641.042-493.248 642.973-493.225 642.958-495.401 644.372ZM-486.787 637.234-485.369 636.381-481.258 634.085-480.486 635.469-484.585 637.758-484.563 637.745-485.97 638.592ZM-477.108 631.769-476.445 631.399-471.46 628.835-470.736 630.244-475.709 632.802-475.685 632.788-476.336 633.152ZM-467.208 626.654-461.477 623.949-460.801 625.382-466.531 628.087ZM-457.14 621.94-451.32 619.431-450.693 620.886-456.512 623.395ZM-446.91 617.594-441.013 615.273-440.433 616.747-446.33 619.068ZM-436.533 613.609-430.558 611.494-430.03 612.988-436.004 615.103ZM-426 610.035-419.942 608.177-419.478 609.692-425.536 611.55ZM-618.625 816.225-628.125 826.741-630.837 812.831ZM-423.03 603.266-409.099 605.859-419.533 615.448Z" transform="matrix(-1 0 0 1.00181 -292.953 404.243)"/><path d="M-549.612 735.927C-549.612 707.865-526.707 685.114-498.453 685.114-470.199 685.114-447.294 707.865-447.294 735.927-447.294 763.988-470.199 786.74-498.453 786.74-526.707 786.74-549.612 763.988-549.612 735.927Z" fill="#EF909F" fill-rule="evenodd" transform="matrix(-1 0 0 1.00181 -292.953 404.243)"/><path d="M-409.271 595.586C-409.271 567.522-386.366 544.772-358.112 544.772-329.858 544.772-306.953 567.522-306.953 595.586-306.953 623.649-329.858 646.399-358.112 646.399-386.366 646.399-409.271 623.649-409.271 595.586Z" fill="#EEC16F" fill-rule="evenodd" transform="matrix(-1 0 0 1.00181 -292.953 404.243)"/><path d="M-689.953 595.586C-689.953 567.522-667.048 544.772-638.794 544.772-610.54 544.772-587.635 567.522-587.635 595.586-587.635 623.649-610.54 646.399-638.794 646.399-667.048 646.399-689.953 623.649-689.953 595.586Z" fill="#248CAF" fill-rule="evenodd" transform="matrix(-1 0 0 1.00181 -292.953 404.243)"/><path d="M-689.953 876.268C-689.953 848.207-667.048 825.455-638.794 825.455-610.54 825.455-587.635 848.207-587.635 876.268-587.635 904.329-610.54 927.081-638.794 927.081-667.048 927.081-689.953 904.329-689.953 876.268Z" fill="#DF6633" fill-rule="evenodd" transform="matrix(-1 0 0 1.00181 -292.953 404.243)"/><path d="M-409.271 876.268C-409.271 848.207-386.366 825.455-358.112 825.455-329.858 825.455-306.953 848.207-306.953 876.268-306.953 904.329-329.858 927.081-358.112 927.081-386.366 927.081-409.271 904.329-409.271 876.268Z" fill="#A6A6A6" fill-rule="evenodd" transform="matrix(-1 0 0 1.00181 -292.953 404.243)"/><path d="M9.50587-0.792063 15.8431-0.792001 15.8431 0.792312 9.50587 0.79225ZM20.5961-0.791953 26.9333-0.79189 26.9333 0.792416 20.5961 0.79236ZM31.6863-0.791842 38.0235-0.79178 38.0235 0.792526 31.6862 0.792464ZM42.7764-0.791738 49.1137-0.791676 49.1137 0.792637 42.7764 0.792575ZM53.8666-0.791628 60.2039-0.791565 60.2038 0.792748 53.8666 0.792685ZM64.9568-0.791517 71.294-0.791455 71.294 0.792851 64.9567 0.792789ZM76.0469-0.791413 82.3844-0.791351 82.3844 0.792962 76.0469 0.7929ZM87.1373-0.791303 93.4741-0.791241 93.4741 0.793073 87.1373 0.79301ZM98.227-0.791192 104.565-0.79113 104.565 0.793176 98.227 0.793114ZM109.317-0.791088 115.655-0.791026 115.655 0.793287 109.317 0.793225ZM120.408-0.790978 126.745-0.790916 126.745 0.793397 120.408 0.793335ZM131.498-0.790867 137.835-0.790805 137.835 0.793508 131.498 0.793446ZM142.588-0.790757 148.925-0.790694 148.925 0.793612 142.588 0.79355ZM153.678-0.790653 160.015-0.790591 160.015 0.793722 153.678 0.79366ZM164.768-0.790542 168.866-0.790501 168.866 0.793805 164.768 0.793771ZM12.6744 6.33737 0 0 12.6745-6.33712ZM165.697-6.33562 178.372 0.00174649 165.697 6.33886Z" transform="matrix(-1 0 0 -1.00181 294.682 1001.25)"/><path d="M-638.002 655.905-638.002 662.242-639.586 662.242-639.586 655.905ZM-638.002 666.995-638.002 673.332-639.586 673.332-639.586 666.995ZM-638.002 678.085-638.002 684.422-639.586 684.422-639.586 678.085ZM-638.002 689.175-638.002 695.511-639.586 695.511-639.586 689.175ZM-638.002 700.268-638.002 706.6-639.586 706.6-639.586 700.268ZM-638.002 711.357-638.002 717.689-639.586 717.689-639.586 711.357ZM-638.002 722.446-638.002 728.785-639.586 728.785-639.586 722.446ZM-638.002 733.535-638.002 739.874-639.586 739.874-639.586 733.535ZM-638.002 744.624-638.002 750.963-639.586 750.963-639.586 744.624ZM-638.002 755.713-638.002 762.052-639.586 762.052-639.586 755.713ZM-638.002 766.809-638.002 773.141-639.586 773.141-639.586 766.809ZM-638.002 777.898-638.002 784.237-639.586 784.237-639.586 777.898ZM-638.002 788.987-638.002 795.326-639.586 795.326-639.586 788.987ZM-638.002 800.076-638.002 806.415-639.586 806.415-639.586 800.076ZM-638.002 811.165-638.002 815.437-639.586 815.437-639.586 811.165ZM-645.132 659.073-638.794 646.399-632.457 659.073ZM-632.457 812.264-638.794 824.943-645.131 812.264Z" transform="matrix(-1 0 0 1.00181 -292.953 404.243)"/><path d="M-578.129 875.127-571.792 875.127-571.792 876.717-578.129 876.717ZM-567.039 875.127-560.702 875.127-560.702 876.717-567.039 876.717ZM-555.949 875.127-549.612 875.127-549.612 876.717-555.949 876.717ZM-544.859 875.127-538.521 875.127-538.521 876.717-544.859 876.717ZM-533.768 875.127-527.432 875.127-527.432 876.717-533.768 876.717ZM-522.679 875.127-516.341 875.127-516.341 876.717-522.679 876.717ZM-511.588 875.127-505.251 875.127-505.251 876.717-511.588 876.717ZM-500.498 875.127-494.161 875.127-494.161 876.717-500.498 876.717ZM-489.408 875.127-483.071 875.127-483.071 876.717-489.408 876.717ZM-478.318 875.127-471.98 875.127-471.98 876.717-478.318 876.717ZM-467.227 875.127-460.891 875.127-460.891 876.717-467.227 876.717ZM-456.138 875.127-449.8 875.127-449.8 876.717-456.138 876.717ZM-445.047 875.127-438.71 875.127-438.71 876.717-445.047 876.717ZM-433.957 875.127-427.62 875.127-427.62 876.717-433.957 876.717ZM-422.867 875.127-418.77 875.127-418.77 876.717-422.867 876.717ZM-574.961 882.262-587.635 875.922-574.961 869.583ZM-421.938 869.583-409.264 875.922-421.938 882.262Z" transform="matrix(-1 0 0 1.00181 -292.953 404.243)"/><path d="M0.792167 9.50587 0.792181 15.8431-0.792132 15.8431-0.792139 9.50587ZM0.792181 20.5961 0.792195 26.9333-0.792118 26.9333-0.792125 20.5961ZM0.792202 31.6862 0.792208 38.0235-0.792105 38.0235-0.792112 31.6863ZM0.792215 42.7764 0.792222 49.1137-0.792084 49.1137-0.792098 42.7764ZM0.792229 53.8666 0.792236 60.2039-0.79207 60.2039-0.792077 53.8666ZM0.792243 64.9568 0.792257 71.294-0.792056 71.294-0.792063 64.9568ZM0.792264 76.0469 0.792271 82.3844-0.792042 82.3844-0.792049 76.0469ZM0.792278 87.1373 0.792284 93.4741-0.792022 93.4741-0.792036 87.1373ZM0.792291 98.227 0.792298 104.565-0.792008 104.565-0.792015 98.227ZM0.792305 109.317 0.792319 115.655-0.791994 115.655-0.792001 109.317ZM0.792326 120.408 0.792333 126.745-0.79198 126.745-0.791987 120.408ZM0.79234 131.498 0.792347 137.835-0.79196 137.835-0.791973 131.498ZM0.792354 142.588 0.79236 148.925-0.791946 148.925-0.79196 142.588ZM0.792367 153.678 0.792381 160.015-0.791932 160.015-0.791939 153.678ZM0.792388 164.768 0.792395 169.039-0.791918 169.039-0.791925 164.768ZM-6.33722 12.6745 0 0 6.33726 12.6745ZM6.33747 165.87 0.000249498 178.545-6.33701 165.87Z" transform="matrix(-1 0 0 -1.00181 65.1589 1230.68)"/><path d="M-542.061 693.859-546.539 689.377-545.418 688.258-540.94 692.739ZM-549.898 686.014-554.376 681.53-553.255 680.411-548.777 684.895ZM-557.735 678.168-562.214 673.684-561.092 672.565-556.614 677.048ZM-565.572 670.321-570.05 665.837-568.929 664.717-564.451 669.201ZM-573.409 662.474-577.887 657.99-576.766 656.87-572.288 661.354ZM-581.246 654.627-585.724 650.143-584.604 649.024-580.125 653.508ZM-589.083 646.78-593.561 642.296-592.441 641.177-587.962 645.661ZM-539.256 686.581-534.783 700.026-548.224 695.539ZM-598.372 645.327-602.845 631.881-589.404 636.37Z" transform="matrix(-1 0 0 1.00181 -292.953 404.243)"/><path d="M-401.719 834.207-406.198 829.72-405.076 828.6-400.599 833.087ZM-409.556 826.36-410.676 825.234-409.555 824.114-408.436 825.24ZM-414.035 821.874-418.513 817.387-417.392 816.267-412.913 820.754ZM-421.872 814.027-422.991 812.907-421.87 811.787-420.75 812.907ZM-426.349 809.54-430.828 805.06-429.707 803.94-425.229 808.42ZM-434.186 801.694-435.306 800.574-434.185 799.454-433.066 800.574ZM-438.665 797.214-443.143 792.727-442.022 791.607-437.544 796.094ZM-446.502 789.367-447.622 788.247-446.5 787.127-445.381 788.247ZM-450.98 784.88-455.458 780.393-454.337 779.28-449.859 783.76ZM-398.914 826.927-394.442 840.374-407.882 835.88ZM-458.031 785.668-462.504 772.222-449.063 776.709Z" transform="matrix(-1 0 0 1.00181 -292.953 404.243)"/><path d="M7.2779 6.16615 11.7562 10.6501 10.6352 11.7696 6.15692 7.28571ZM15.1149 14.0131 19.5931 18.497 18.4721 19.6166 13.9939 15.1326ZM22.9519 21.86 27.4301 26.3439 26.3091 27.4635 21.8309 22.9795ZM30.7888 29.7069 35.2671 34.1908 34.1461 35.3104 29.6678 30.8264ZM38.6258 37.5538 43.104 42.0377 41.9831 43.1573 37.5048 38.6734ZM46.4627 45.4007 50.941 49.8846 49.82 51.0042 45.3417 46.5202ZM54.2997 53.2476 58.778 57.7316 57.657 58.8511 53.1787 54.3672ZM4.47259 13.4461 0 0 13.4405 4.48962ZM63.5894 54.7021 68.062 68.1483 54.6215 63.6587Z" transform="matrix(1 0 0 1.00181 101.489 1037.27)"/><path d="M7.2779 6.16613 11.7561 10.6501 10.6352 11.7696 6.15688 7.28571ZM15.1148 14.013 19.5931 18.497 18.4721 19.6166 13.9938 15.1326ZM22.9518 21.86 27.4301 26.344 26.3091 27.4635 21.8308 22.9795ZM30.7887 29.7069 35.267 34.1908 34.146 35.3105 29.6678 30.8264ZM38.6257 37.5538 43.1039 42.0378 41.9829 43.1573 37.5047 38.6734ZM46.4627 45.4008 50.9409 49.8847 49.8199 51.0043 45.3417 46.5203ZM54.2996 53.2476 58.7778 57.7316 57.6568 58.8512 53.1786 54.3673ZM4.47256 13.4462 0 0 13.4405 4.48965ZM63.5895 54.7024 68.062 68.1486 54.6215 63.6589Z" transform="matrix(1 0 0 1.00181 241.83 1177.86)"/></g></g></g></g><rect x="1288" y="428" width="27.9999" height="28.0002" fill="#8FB79D"/><rect x="1288" y="276" width="27.9999" height="27.9998" fill="#238DB0"/><rect x="1288" y="200" width="27.9999" height="28.9999" fill="#238DB0"/><rect x="1288" y="352" width="27.9999" height="27.9998" fill="#238DB0"/><text fill="#7F7F7F" font-family="Arial,Arial_MSFontService,sans-serif" font-weight="700" font-size="32" transform="matrix(-1.83697e-16 -1 1 -1.83697e-16 1304.66 420)">…</text><rect x="1288" y="314" width="27.9999" height="28.0002" fill="#8FB79D"/><rect x="1288" y="238" width="27.9999" height="28.0002" fill="#8FB79D"/><path d="M1322 328.854 1353.72 328.854 1353.72 331.146 1322 331.146ZM1349.14 320.834 1367.47 330 1349.14 339.167Z"/><rect x="1727" y="428" width="27.9999" height="28.0002" fill="#8FB79D"/><rect x="1727" y="276" width="27.9999" height="27.9998" fill="#238DB0"/><rect x="1727" y="200" width="27.9999" height="28.9999" fill="#238DB0"/><rect x="1727" y="352" width="27.9999" height="27.9998" fill="#238DB0"/><text fill="#7F7F7F" font-family="Arial,Arial_MSFontService,sans-serif" font-weight="700" font-size="32" transform="matrix(-1.83697e-16 -1 1 -1.83697e-16 1743.48 420)">…</text><rect x="1727" y="314" width="27.9999" height="28.0002" fill="#8FB79D"/><rect x="1727" y="238" width="27.9999" height="28.0002" fill="#8FB79D"/><path d="M1676 328.854 1707.72 328.854 1707.72 331.146 1676 331.146ZM1703.14 320.834 1721.47 330 1703.14 339.167Z"/><text font-family="Arial,Arial_MSFontService,sans-serif" font-weight="400" font-size="41" transform="matrix(1 0 0 1 1287.72 176)">e</text><text font-family="Arial,Arial_MSFontService,sans-serif" font-weight="400" font-size="28" transform="matrix(1 0 0 1 1310.63 185)">ij</text><text font-family="Arial,Arial_MSFontService,sans-serif" font-weight="400" font-size="41" transform="matrix(1 0 0 1 1723.96 176)">α</text><text font-family="Arial,Arial_MSFontService,sans-serif" font-weight="400" font-size="28" transform="matrix(1 0 0 1 1748.02 185)">ij</text><text font-family="Arial,Arial_MSFontService,sans-serif" font-weight="400" font-size="41" transform="matrix(1 0 0 1 1327.87 435)">Leaky </text><text font-family="Arial,Arial_MSFontService,sans-serif" font-weight="400" font-size="41" transform="matrix(1 0 0 1 1449.33 435)">ReLU</text><text font-family="Arial,Arial_MSFontService,sans-serif" font-weight="400" font-size="41" transform="matrix(1 0 0 1 1531.86 256)">Softmax</text></g></svg>