<svg width="576" height="475" xmlns="http://www.w3.org/2000/svg" xmlns:xlink="http://www.w3.org/1999/xlink" xml:space="preserve" overflow="hidden"><defs><clipPath id="clip0"><rect x="545" y="131" width="576" height="475"/></clipPath></defs><g clip-path="url(#clip0)" transform="translate(-545 -131)"><path d="M0 0 74.4059 0" stroke="#000000" stroke-width="4.58333" stroke-miterlimit="8" fill="none" fill-rule="evenodd" transform="matrix(-0.941214 0.33781 0.33781 0.941214 1094.47 231.648)"/><path d="M0 0 33.6071 0 33.6071 69.8923 35.8199 70.0582 76.8953 70.0582" stroke="#000000" stroke-width="4.58333" stroke-miterlimit="8" fill="none" fill-rule="evenodd" transform="matrix(-0.941214 0.33781 0.33781 0.941214 1098.11 241.805)"/><path d="M0 56.6662 48.1287 56.6662 48.1287 0 85.3778 0" stroke="#000000" stroke-width="4.58333" stroke-miterlimit="8" fill="none" fill-rule="evenodd" transform="matrix(-0.941214 0.33781 0.33781 0.941214 1066.11 153.989)"/><path d="M41.8875 4.48939 96.9896 22.1477 120.177 76.0207 118.931 133.186 138.877 190.95 136.883 203.52 121.673 206.513 121.175 229.858 116.687 235.545 106.714 280.439 65.0753 280.439 16.9544 260.985 0 118.82 36.6516 104.753 27.4263 0 41.8875 4.48939Z" stroke="#0D0D0D" stroke-width="4.58333" stroke-miterlimit="8" fill="#BFBFBF" fill-rule="evenodd" transform="matrix(-0.941214 0.33781 0.33781 0.941214 1004.58 126.196)"/><rect x="0" y="0" width="28.1745" height="11.9719" transform="matrix(-0.919671 0.39269 0.39269 0.919671 969.314 275.573)"/><rect x="0" y="0" width="14.475" height="61.4246" stroke="#000000" stroke-width="4.58333" stroke-miterlimit="8" fill="none" transform="matrix(-0.941214 0.33781 0.33781 0.941214 1094.6 188.21)"/><rect x="0" y="0" width="8.36332" height="30.1179" stroke="#000000" stroke-width="4.58333" stroke-miterlimit="8" fill="none" transform="matrix(-0.941214 0.33781 0.33781 0.941214 1107.89 200.073)"/><path d="M0 0 10.9571 8.83537" stroke="#000000" stroke-width="2.29167" stroke-miterlimit="8" fill="none" fill-rule="evenodd" transform="matrix(0.973495 0.228709 0.228709 -0.973495 976.287 386.951)"/><path d="M595.5 555.5 683 404.5 770.5 555.5Z" stroke="#002FA7" stroke-width="12.6042" stroke-miterlimit="8" fill="none" fill-rule="evenodd"/><path d="M641.5 405C641.5 381.528 660.528 362.5 684 362.5 707.472 362.5 726.5 381.528 726.5 405 726.5 428.472 707.472 447.5 684 447.5 660.528 447.5 641.5 428.472 641.5 405Z" stroke="#BFBFBF" stroke-width="17.1875" stroke-miterlimit="8" fill="#002FA7" fill-rule="evenodd"/><path d="M553.5 555.5C553.5 532.304 572.304 513.5 595.5 513.5 618.696 513.5 637.5 532.304 637.5 555.5 637.5 578.696 618.696 597.5 595.5 597.5 572.304 597.5 553.5 578.696 553.5 555.5Z" stroke="#BFBFBF" stroke-width="17.1875" stroke-miterlimit="8" fill="#002FA7" fill-rule="evenodd"/><path d="M728.5 555.5C728.5 532.304 747.304 513.5 770.5 513.5 793.696 513.5 812.5 532.304 812.5 555.5 812.5 578.696 793.696 597.5 770.5 597.5 747.304 597.5 728.5 578.696 728.5 555.5Z" stroke="#BFBFBF" stroke-width="17.1875" stroke-miterlimit="8" fill="#002FA7" fill-rule="evenodd"/></g></svg>