<svg width="2152" height="2025" xmlns="http://www.w3.org/2000/svg" xmlns:xlink="http://www.w3.org/1999/xlink" xml:space="preserve" overflow="hidden"><defs><clipPath id="clip0"><rect x="4" y="13" width="2152" height="2025"/></clipPath><linearGradient x1="557" y1="668" x2="557" y2="1230" gradientUnits="userSpaceOnUse" spreadMethod="reflect" id="fill1"><stop offset="0" stop-color="#8FB79D" stop-opacity="0.501961"/><stop offset="0.66" stop-color="#3E6A68" stop-opacity="0.74902"/><stop offset="1" stop-color="#017369" stop-opacity="0.901961"/></linearGradient></defs><g clip-path="url(#clip0)" transform="translate(-4 -13)"><text font-family="Arial,Arial_MSFontService,sans-serif" font-weight="400" font-size="41" transform="matrix(1 0 0 1 635.533 314)">Source node</text><path d="M623 496C607.26 496 594.5 476.814 594.5 453.148L594.5 379.352C594.5 355.686 581.74 336.5 566 336.5 581.74 336.5 594.5 317.314 594.5 293.648L594.5 219.852C594.5 196.186 607.26 177 623 177" stroke="#000000" stroke-width="2.29167" stroke-miterlimit="8" fill="none" fill-rule="evenodd"/><rect x="39.9999" y="246" width="267" height="185" stroke="#000000" stroke-width="2.29167" stroke-miterlimit="8" fill="#FFFFFF"/><rect x="46.0001" y="252" width="27.9998" height="28.0002" fill="#01493D"/><rect x="198" y="252" width="27.9998" height="28.0002" fill="#01493D"/><rect x="273" y="252" width="29.0002" height="28.0002" fill="#01493D"/><rect x="122" y="252" width="27.9998" height="28.0002" fill="#01493D"/><text fill="#12443A" font-family="Arial,Arial_MSFontService,sans-serif" font-weight="700" font-size="32" transform="matrix(1 0 0 1 82.0117 269)">…</text><rect x="160" y="252" width="28.0002" height="28.0002" fill="#01493D"/><rect x="235" y="252" width="28.9999" height="28.0002" fill="#01493D"/><rect x="46.0001" y="289" width="27.9998" height="27.9998" fill="#017369"/><rect x="83.9999" y="289" width="28.0002" height="27.9998" fill="#017369"/><rect x="198" y="289" width="27.9998" height="27.9998" fill="#017369"/><rect x="273" y="289" width="29.0002" height="27.9998" fill="#017369"/><text fill="#017369" font-family="Arial,Arial_MSFontService,sans-serif" font-weight="700" font-size="32" transform="matrix(1 0 0 1 119.897 305)">…</text><rect x="160" y="289" width="28.0002" height="27.9998" fill="#017369"/><rect x="235" y="289" width="28.9999" height="27.9998" fill="#017369"/><rect x="46.0001" y="325" width="27.9998" height="28.0002" fill="#248CAF"/><rect x="83.9999" y="325" width="28.0002" height="28.0002" fill="#248CAF"/><rect x="198" y="325" width="27.9998" height="28.0002" fill="#248CAF"/><rect x="273" y="325" width="29.0002" height="28.0002" fill="#248CAF"/><rect x="122" y="325" width="27.9998" height="28.0002" fill="#248CAF"/><text fill="#248CAF" font-family="Arial,Arial_MSFontService,sans-serif" font-weight="700" font-size="32" transform="matrix(1 0 0 1 157.783 341)">…</text><rect x="235" y="325" width="28.9999" height="28.0002" fill="#248CAF"/><rect x="46.0001" y="361" width="27.9998" height="29.0002" fill="#4DAC8E"/><rect x="83.9999" y="361" width="28.0002" height="29.0002" fill="#4DAC8E"/><rect x="273" y="361" width="29.0002" height="29.0002" fill="#4DAC8E"/><rect x="122" y="361" width="27.9998" height="29.0002" fill="#4DAC8E"/><text fill="#4DAC8E" font-family="Arial,Arial_MSFontService,sans-serif" font-weight="700" font-size="32" transform="matrix(1 0 0 1 195.668 378)">…</text><rect x="160" y="361" width="28.0002" height="29.0002" fill="#4DAC8E"/><rect x="235" y="361" width="28.9999" height="29.0002" fill="#4DAC8E"/><rect x="46.0001" y="398" width="27.9998" height="27.9998" fill="#8FB79D"/><rect x="83.9999" y="398" width="28.0002" height="27.9998" fill="#8FB79D"/><rect x="198" y="398" width="27.9998" height="27.9998" fill="#8FB79D"/><rect x="273" y="398" width="29.0002" height="27.9998" fill="#8FB79D"/><rect x="122" y="398" width="27.9998" height="27.9998" fill="#8FB79D"/><text fill="#8FB79D" font-family="Arial,Arial_MSFontService,sans-serif" font-weight="700" font-size="32" transform="matrix(1 0 0 1 233.553 414)">…</text><rect x="160" y="398" width="28.0002" height="27.9998" fill="#8FB79D"/><text font-family="Arial,Arial_MSFontService,sans-serif" font-weight="400" font-size="41" transform="matrix(1 0 0 1 597.35 634)">Destination node</text><rect x="626" y="94.9999" width="28.0002" height="29.0002" fill="#8FB79D"/><rect x="778" y="94.9999" width="28.0002" height="29.0002" fill="#238DB0"/><rect x="853" y="94.9999" width="29.0002" height="29.0002" fill="#8FB79D"/><rect x="702" y="94.9999" width="28.0002" height="29.0002" fill="#238DB0"/><text fill="#7F7F7F" font-family="Arial,Arial_MSFontService,sans-serif" font-weight="700" font-size="32" transform="matrix(1 0 0 1 662.058 112)">…</text><rect x="740" y="94.9999" width="27.9998" height="29.0002" fill="#8FB79D"/><rect x="816" y="94.9999" width="27.9998" height="29.0002" fill="#8FB79D"/><rect x="626" y="132" width="28.0002" height="27.9998" fill="#238DB0"/><rect x="664" y="132" width="27.9998" height="27.9998" fill="#8FB79D"/><rect x="778" y="132" width="28.0002" height="27.9998" fill="#8FB79D"/><rect x="853" y="132" width="29.0002" height="27.9998" fill="#238DB0"/><text fill="#7F7F7F" font-family="Arial,Arial_MSFontService,sans-serif" font-weight="700" font-size="32" transform="matrix(1 0 0 1 699.944 148)">…</text><rect x="740" y="132" width="27.9998" height="27.9998" fill="#238DB0"/><rect x="816" y="132" width="27.9998" height="27.9998" fill="#238DB0"/><rect x="626" y="168" width="28.0002" height="27.9998" fill="#8FB79D"/><rect x="664" y="168" width="27.9998" height="27.9998" fill="#238DB0"/><rect x="778" y="168" width="28.0002" height="27.9998" fill="#8FB79D"/><rect x="853" y="168" width="29.0002" height="27.9998" fill="#8FB79D"/><rect x="702" y="168" width="28.0002" height="27.9998" fill="#8FB79D"/><text fill="#7F7F7F" font-family="Arial,Arial_MSFontService,sans-serif" font-weight="700" font-size="32" transform="matrix(1 0 0 1 737.829 185)">…</text><rect x="816" y="168" width="27.9998" height="27.9998" fill="#238DB0"/><rect x="626" y="205" width="28.0002" height="28.0002" fill="#238DB0"/><rect x="664" y="205" width="27.9998" height="28.0002" fill="#8FB79D"/><rect x="853" y="205" width="29.0002" height="28.0002" fill="#238DB0"/><rect x="702" y="205" width="28.0002" height="28.0002" fill="#238DB0"/><text fill="#7F7F7F" font-family="Arial,Arial_MSFontService,sans-serif" font-weight="700" font-size="32" transform="matrix(1 0 0 1 775.715 221)">…</text><rect x="740" y="205" width="27.9998" height="28.0002" fill="#8FB79D"/><rect x="816" y="205" width="27.9998" height="28.0002" fill="#8FB79D"/><rect x="626" y="241" width="28.0002" height="28.0002" fill="#8FB79D"/><rect x="664" y="241" width="27.9998" height="28.0002" fill="#238DB0"/><rect x="778" y="241" width="28.0002" height="28.0002" fill="#238DB0"/><rect x="853" y="241" width="29.0002" height="28.0002" fill="#238DB0"/><rect x="702" y="241" width="28.0002" height="28.0002" fill="#8FB79D"/><text fill="#7F7F7F" font-family="Arial,Arial_MSFontService,sans-serif" font-weight="700" font-size="32" transform="matrix(1 0 0 1 813.6 258)">…</text><rect x="740" y="241" width="27.9998" height="28.0002" fill="#238DB0"/><rect x="626" y="414" width="28.0002" height="29.0002" fill="#8FB79D"/><rect x="778" y="414" width="28.0002" height="29.0002" fill="#238DB0"/><rect x="853" y="414" width="29.0002" height="29.0002" fill="#8FB79D"/><rect x="702" y="414" width="28.0002" height="29.0002" fill="#238DB0"/><text fill="#7F7F7F" font-family="Arial,Arial_MSFontService,sans-serif" font-weight="700" font-size="32" transform="matrix(1 0 0 1 662.058 431)">…</text><rect x="740" y="414" width="27.9998" height="29.0002" fill="#8FB79D"/><rect x="816" y="414" width="27.9998" height="29.0002" fill="#8FB79D"/><rect x="626" y="451" width="28.0002" height="27.9998" fill="#238DB0"/><rect x="664" y="451" width="27.9998" height="27.9998" fill="#8FB79D"/><rect x="778" y="451" width="28.0002" height="27.9998" fill="#8FB79D"/><rect x="853" y="451" width="29.0002" height="27.9998" fill="#238DB0"/><text fill="#7F7F7F" font-family="Arial,Arial_MSFontService,sans-serif" font-weight="700" font-size="32" transform="matrix(1 0 0 1 699.944 467)">…</text><rect x="740" y="451" width="27.9998" height="27.9998" fill="#238DB0"/><rect x="816" y="451" width="27.9998" height="27.9998" fill="#238DB0"/><rect x="626" y="487" width="28.0002" height="27.9998" fill="#8FB79D"/><rect x="664" y="487" width="27.9998" height="27.9998" fill="#238DB0"/><rect x="778" y="487" width="28.0002" height="27.9998" fill="#8FB79D"/><rect x="853" y="487" width="29.0002" height="27.9998" fill="#8FB79D"/><rect x="702" y="487" width="28.0002" height="27.9998" fill="#8FB79D"/><text fill="#7F7F7F" font-family="Arial,Arial_MSFontService,sans-serif" font-weight="700" font-size="32" transform="matrix(1 0 0 1 737.829 504)">…</text><rect x="816" y="487" width="27.9998" height="27.9998" fill="#238DB0"/><rect x="626" y="524" width="28.0002" height="28.0002" fill="#238DB0"/><rect x="664" y="524" width="27.9998" height="28.0002" fill="#8FB79D"/><rect x="853" y="524" width="29.0002" height="28.0002" fill="#238DB0"/><rect x="702" y="524" width="28.0002" height="28.0002" fill="#238DB0"/><text fill="#7F7F7F" font-family="Arial,Arial_MSFontService,sans-serif" font-weight="700" font-size="32" transform="matrix(1 0 0 1 775.715 540)">…</text><rect x="740" y="524" width="27.9998" height="28.0002" fill="#8FB79D"/><rect x="816" y="524" width="27.9998" height="28.0002" fill="#8FB79D"/><rect x="626" y="560" width="28.0002" height="28.0002" fill="#8FB79D"/><rect x="664" y="560" width="27.9998" height="28.0002" fill="#238DB0"/><rect x="778" y="560" width="28.0002" height="28.0002" fill="#238DB0"/><rect x="853" y="560" width="29.0002" height="28.0002" fill="#238DB0"/><rect x="702" y="560" width="28.0002" height="28.0002" fill="#8FB79D"/><text fill="#7F7F7F" font-family="Arial,Arial_MSFontService,sans-serif" font-weight="700" font-size="32" transform="matrix(1 0 0 1 813.6 577)">…</text><rect x="740" y="560" width="27.9998" height="28.0002" fill="#238DB0"/><rect x="1205" y="277" width="28.0002" height="27.9998" fill="#8FB79D"/><rect x="1205" y="126" width="28.0002" height="27.9998" fill="#238DB0"/><rect x="1205" y="49.9998" width="28.0002" height="28.0002" fill="#238DB0"/><rect x="1205" y="201" width="28.0002" height="28.9999" fill="#238DB0"/><text fill="#7F7F7F" font-family="Arial,Arial_MSFontService,sans-serif" font-weight="700" font-size="32" transform="matrix(-1.83697e-16 -1 1 -1.83697e-16 1221.47 269)">…</text><rect x="1205" y="164" width="28.0002" height="28.0002" fill="#8FB79D"/><rect x="1205" y="88.0002" width="28.0002" height="27.9998" fill="#8FB79D"/><rect x="1205" y="596" width="28.0002" height="27.9998" fill="#238DB0"/><rect x="1205" y="445" width="28.0002" height="27.9998" fill="#238DB0"/><rect x="1205" y="369" width="28.0002" height="28.0002" fill="#8FB79D"/><rect x="1205" y="520" width="28.0002" height="28.9999" fill="#8FB79D"/><text fill="#7F7F7F" font-family="Arial,Arial_MSFontService,sans-serif" font-weight="700" font-size="32" transform="matrix(-1.83697e-16 -1 1 -1.83697e-16 1221.47 588)">…</text><rect x="1205" y="483" width="28.0002" height="28.0002" fill="#238DB0"/><rect x="1205" y="407" width="28.0002" height="27.9998" fill="#8FB79D"/><path d="M1237 177C1247.49 177 1256 189.79 1256 205.568L1256 307.932C1256 323.71 1264.51 336.5 1275 336.5 1264.51 336.5 1256 349.29 1256 365.068L1256 467.432C1256 483.21 1247.49 496 1237 496" stroke="#000000" stroke-width="2.29167" stroke-miterlimit="8" fill="none" fill-rule="evenodd"/><path d="M1371 337C1371 303.863 1398.31 277 1432 277 1465.69 277 1493 303.863 1493 337 1493 370.137 1465.69 397 1432 397 1398.31 397 1371 370.137 1371 337Z" fill="#238DB0" fill-rule="evenodd"/><path d="M1381 335.854 1469.59 335.854 1469.59 338.146 1381 338.146ZM1465.01 327.833 1483.34 337 1465.01 346.167Z" fill="#FFFFFF"/><path d="M1433.15 306.75 1433.15 380.488 1430.85 380.488 1430.85 306.75ZM1422.83 311.333 1432 293 1441.17 311.333Z" fill="#FFFFFF"/><path d="M0 0 32.8813 32.8813" stroke="#FFFFFF" stroke-width="2.29167" stroke-miterlimit="8" fill="none" fill-rule="evenodd" transform="matrix(1 0 0 -1 1432 336.881)"/><path d="M0 0 49.3221 8.22041" stroke="#FFFFFF" stroke-width="2.29167" stroke-miterlimit="8" fill="none" fill-rule="evenodd" transform="matrix(1 0 0 -1 1383 345.22)"/><path d="M1547 337C1547 303.863 1574.53 277 1608.5 277 1642.47 277 1670 303.863 1670 337 1670 370.137 1642.47 397 1608.5 397 1574.53 397 1547 370.137 1547 337Z" fill="#238DB0" fill-rule="evenodd"/><path d="M1557 335.854 1645.59 335.854 1645.59 338.146 1557 338.146ZM1641.01 327.833 1659.34 337 1641.01 346.167Z" fill="#FFFFFF"/><path d="M1610.15 306.75 1610.15 380.488 1607.85 380.488 1607.85 306.75ZM1599.83 311.333 1609 293 1618.17 311.333Z" fill="#FFFFFF"/><path d="M1650 296C1620.25 297.27 1614.1 320.236 1608.5 337.235 1602.9 354.234 1592.68 377.053 1567 378" stroke="#FFFFFF" stroke-width="2.29167" stroke-miterlimit="8" fill="none" fill-rule="evenodd"/><rect x="1839" y="246" width="267" height="184" stroke="#000000" stroke-width="2.29167" stroke-miterlimit="8" fill="#FFFFFF"/><rect x="1845" y="251" width="28.0002" height="28.0002" fill="#4DAC8E"/><rect x="1997" y="251" width="28.0002" height="28.0002" fill="#8FB79D"/><rect x="2072" y="251" width="28.9998" height="28.0002" fill="#4DAC8E"/><rect x="1921" y="251" width="28.0002" height="28.0002" fill="#8FB79D"/><text fill="#7F7F7F" font-family="Arial,Arial_MSFontService,sans-serif" font-weight="700" font-size="32" transform="matrix(1 0 0 1 1880.94 268)">…</text><rect x="1959" y="251" width="27.9999" height="28.0002" fill="#238DB0"/><rect x="2034" y="251" width="28.9998" height="28.0002" fill="#238DB0"/><rect x="1845" y="288" width="28.0002" height="27.9998" fill="#8FB79D"/><rect x="1883" y="288" width="27.9999" height="27.9998" fill="#01493D"/><rect x="1997" y="288" width="28.0002" height="27.9998" fill="#01493D"/><rect x="2072" y="288" width="28.9998" height="27.9998" fill="#017369"/><text fill="#7F7F7F" font-family="Arial,Arial_MSFontService,sans-serif" font-weight="700" font-size="32" transform="matrix(1 0 0 1 1918.83 304)">…</text><rect x="1959" y="288" width="27.9999" height="27.9998" fill="#017369"/><rect x="2034" y="288" width="28.9998" height="27.9998" fill="#8FB79D"/><rect x="1845" y="324" width="28.0002" height="27.9998" fill="#01493D"/><rect x="1883" y="324" width="27.9999" height="27.9998" fill="#238DB0"/><rect x="1997" y="324" width="28.0002" height="27.9998" fill="#4DAC8E"/><rect x="2072" y="324" width="28.9998" height="27.9998" fill="#01493D"/><rect x="1921" y="324" width="28.0002" height="27.9998" fill="#01493D"/><text fill="#7F7F7F" font-family="Arial,Arial_MSFontService,sans-serif" font-weight="700" font-size="32" transform="matrix(1 0 0 1 1956.71 340)">…</text><rect x="2034" y="324" width="28.9998" height="27.9998" fill="#01493D"/><rect x="1845" y="360" width="28.0002" height="29.0002" fill="#017369"/><rect x="1883" y="360" width="27.9999" height="29.0002" fill="#238DB0"/><rect x="2072" y="360" width="28.9998" height="29.0002" fill="#017369"/><rect x="1921" y="360" width="28.0002" height="29.0002" fill="#017369"/><text fill="#7F7F7F" font-family="Arial,Arial_MSFontService,sans-serif" font-weight="700" font-size="32" transform="matrix(1 0 0 1 1994.6 377)">…</text><rect x="1959" y="360" width="27.9999" height="29.0002" fill="#4DAC8E"/><rect x="2034" y="360" width="28.9998" height="29.0002" fill="#238DB0"/><rect x="1845" y="397" width="28.0002" height="27.9998" fill="#4DAC8E"/><rect x="1883" y="397" width="27.9999" height="27.9998" fill="#017369"/><rect x="1997" y="397" width="28.0002" height="27.9998" fill="#8FB79D"/><rect x="2072" y="397" width="28.9998" height="27.9998" fill="#017369"/><rect x="1921" y="397" width="28.0002" height="27.9998" fill="#238DB0"/><text fill="#7F7F7F" font-family="Arial,Arial_MSFontService,sans-serif" font-weight="700" font-size="32" transform="matrix(1 0 0 1 2032.48 413)">…</text><rect x="1959" y="397" width="27.9999" height="27.9998" fill="#8FB79D"/><rect x="1663" y="506" width="268" height="81.0001" stroke="#000000" stroke-width="2.29167" stroke-miterlimit="8" stroke-dasharray="9.16667 6.875" fill="#FFFFFF"/><rect x="1673" y="516" width="59.0001" height="59.0001" fill="#63A7CC"/><text fill="#FFFFFF" font-family="Arial,Arial_MSFontService,sans-serif" font-weight="700" font-size="32" transform="matrix(1 0 0 1 1692.86 557)">d</text><rect x="1768" y="516" width="58.0001" height="59.0001" fill="#63A7CC"/><text fill="#FFFFFF" font-family="Arial,Arial_MSFontService,sans-serif" font-weight="400" font-size="32" transform="matrix(1 0 0 1 1773.56 557)">1/</text><text fill="#FFFFFF" font-family="Arial,Arial_MSFontService,sans-serif" font-weight="700" font-size="32" transform="matrix(1 0 0 1 1800.49 557)">d</text><rect x="1862" y="516" width="57.9998" height="59.0001" fill="#63A7CC"/><text fill="#FFFFFF" font-family="Arial,Arial_MSFontService,sans-serif" font-weight="400" font-size="32" transform="matrix(1 0 0 1 1868.58 557)">1.0</text><path d="M311 335.854 355.715 335.854 355.715 338.146 311 338.146ZM351.131 327.833 369.465 337 351.131 346.167Z"/><path d="M882 176.854 926.715 176.855 926.715 179.146 882 179.146ZM922.131 168.834 940.465 178 922.131 187.167Z"/><path d="M882 495.854 926.715 495.854 926.715 498.146 882 498.146ZM922.131 487.834 940.465 497 922.131 506.167Z"/><path d="M1496 335.854 1527.72 335.854 1527.72 338.146 1496 338.146ZM1523.14 327.833 1541.47 337 1523.14 346.167Z"/><path d="M1136 176.854 1180.71 176.855 1180.71 179.146 1136 179.146ZM1176.13 168.834 1194.46 178 1176.13 187.167Z"/><path d="M1136 495.854 1180.71 495.854 1180.71 498.146 1136 498.146ZM1176.13 487.834 1194.46 497 1176.13 506.167Z"/><path d="M1777 335.854 1821.71 335.854 1821.71 338.146 1777 338.146ZM1817.13 327.833 1835.46 337 1817.13 346.167Z"/><path d="M942 178C942 125.533 985.428 82.9998 1039 82.9998 1092.57 82.9998 1136 125.533 1136 178 1136 230.467 1092.57 273 1039 273 985.428 273 942 230.467 942 178Z" fill="#238DB0" fill-rule="evenodd"/><text fill="#FFFFFF" font-family="Arial,Arial_MSFontService,sans-serif" font-weight="700" font-size="41" transform="matrix(1 0 0 1 1012.06 260)">AT</text><path d="M1076.51 191C1085.07 191 1092.01 198.164 1092.01 207 1092.01 215.837 1085.07 223 1076.51 223 1067.95 223 1061.01 215.837 1061.01 207 1061.01 198.164 1067.95 191 1076.51 191Z" stroke="#333333" stroke-width="2.29167" stroke-miterlimit="8" fill="#FFFFFF" fill-rule="evenodd"/><path d="M1076.51 145.98C1085.07 145.98 1092.01 153.144 1092.01 161.98 1092.01 170.817 1085.07 177.98 1076.51 177.98 1067.95 177.98 1061.01 170.817 1061.01 161.98 1061.01 153.144 1067.95 145.98 1076.51 145.98Z" stroke="#333333" stroke-width="2.29167" stroke-miterlimit="8" fill="#FFFFFF" fill-rule="evenodd"/><path d="M1076.51 100.962C1085.07 100.962 1092.01 107.902 1092.01 116.462 1092.01 125.022 1085.07 131.962 1076.51 131.962 1067.95 131.962 1061.01 125.022 1061.01 116.462 1061.01 107.902 1067.95 100.962 1076.51 100.962Z" stroke="#333333" stroke-width="2.29167" stroke-miterlimit="8" fill="#FFFFFF" fill-rule="evenodd"/><path d="M1001.01 191.001C1009.85 191.001 1017.01 198.164 1017.01 207.001 1017.01 215.837 1009.85 223.001 1001.01 223.001 992.177 223.001 985.014 215.837 985.014 207.001 985.014 198.164 992.177 191.001 1001.01 191.001Z" stroke="#333333" stroke-width="2.29167" stroke-miterlimit="8" fill="#FFFFFF" fill-rule="evenodd"/><path d="M1001.01 145.981C1009.85 145.981 1017.01 153.144 1017.01 161.981 1017.01 170.817 1009.85 177.981 1001.01 177.981 992.177 177.981 985.014 170.817 985.014 161.981 985.014 153.144 992.177 145.981 1001.01 145.981Z" stroke="#333333" stroke-width="2.29167" stroke-miterlimit="8" fill="#FFFFFF" fill-rule="evenodd"/><path d="M1001.01 100.962C1009.85 100.962 1017.01 107.902 1017.01 116.462 1017.01 125.022 1009.85 131.962 1001.01 131.962 992.177 131.962 985.014 125.022 985.014 116.462 985.014 107.902 992.177 100.962 1001.01 100.962Z" stroke="#333333" stroke-width="2.29167" stroke-miterlimit="8" fill="#FFFFFF" fill-rule="evenodd"/><path d="M1017 207 1060.96 207" stroke="#FFFFFF" stroke-width="2.29167" stroke-miterlimit="8" fill="none" fill-rule="evenodd"/><path d="M1017 162 1060.96 162" stroke="#FFFFFF" stroke-width="2.29167" stroke-miterlimit="8" fill="none" fill-rule="evenodd"/><path d="M1017 117 1060.96 117" stroke="#FFFFFF" stroke-width="2.29167" stroke-miterlimit="8" fill="none" fill-rule="evenodd"/><path d="M942 497C942 444.533 985.428 402 1039 402 1092.57 402 1136 444.533 1136 497 1136 549.467 1092.57 592 1039 592 985.428 592 942 549.467 942 497Z" fill="#238DB0" fill-rule="evenodd"/><text fill="#FFFFFF" font-family="Arial,Arial_MSFontService,sans-serif" font-weight="700" font-size="41" transform="matrix(1 0 0 1 1012.06 579)">AT</text><path d="M1076.51 510C1085.07 510 1092.01 517.164 1092.01 526 1092.01 534.837 1085.07 542 1076.51 542 1067.95 542 1061.01 534.837 1061.01 526 1061.01 517.164 1067.95 510 1076.51 510Z" stroke="#333333" stroke-width="2.29167" stroke-miterlimit="8" fill="#FFFFFF" fill-rule="evenodd"/><path d="M1076.51 464.98C1085.07 464.98 1092.01 472.144 1092.01 480.98 1092.01 489.817 1085.07 496.98 1076.51 496.98 1067.95 496.98 1061.01 489.817 1061.01 480.98 1061.01 472.144 1067.95 464.98 1076.51 464.98Z" stroke="#333333" stroke-width="2.29167" stroke-miterlimit="8" fill="#FFFFFF" fill-rule="evenodd"/><path d="M1076.51 419.962C1085.07 419.962 1092.01 426.902 1092.01 435.462 1092.01 444.022 1085.07 450.962 1076.51 450.962 1067.95 450.962 1061.01 444.022 1061.01 435.462 1061.01 426.902 1067.95 419.962 1076.51 419.962Z" stroke="#333333" stroke-width="2.29167" stroke-miterlimit="8" fill="#FFFFFF" fill-rule="evenodd"/><path d="M1001.01 510.001C1009.85 510.001 1017.01 517.164 1017.01 526.001 1017.01 534.837 1009.85 542.001 1001.01 542.001 992.177 542.001 985.014 534.837 985.014 526.001 985.014 517.164 992.177 510.001 1001.01 510.001Z" stroke="#333333" stroke-width="2.29167" stroke-miterlimit="8" fill="#FFFFFF" fill-rule="evenodd"/><path d="M1001.01 464.981C1009.85 464.981 1017.01 472.144 1017.01 480.981 1017.01 489.817 1009.85 496.981 1001.01 496.981 992.177 496.981 985.014 489.817 985.014 480.981 985.014 472.144 992.177 464.981 1001.01 464.981Z" stroke="#333333" stroke-width="2.29167" stroke-miterlimit="8" fill="#FFFFFF" fill-rule="evenodd"/><path d="M1001.01 419.962C1009.85 419.962 1017.01 426.902 1017.01 435.462 1017.01 444.022 1009.85 450.962 1001.01 450.962 992.177 450.962 985.014 444.022 985.014 435.462 985.014 426.902 992.177 419.962 1001.01 419.962Z" stroke="#333333" stroke-width="2.29167" stroke-miterlimit="8" fill="#FFFFFF" fill-rule="evenodd"/><path d="M1017 526 1060.96 526" stroke="#FFFFFF" stroke-width="2.29167" stroke-miterlimit="8" fill="none" fill-rule="evenodd"/><path d="M1017 481 1060.96 481" stroke="#FFFFFF" stroke-width="2.29167" stroke-miterlimit="8" fill="none" fill-rule="evenodd"/><path d="M1017 436 1060.96 436" stroke="#FFFFFF" stroke-width="2.29167" stroke-miterlimit="8" fill="none" fill-rule="evenodd"/><path d="M370 337C370 284.533 413.428 242 467 242 520.572 242 564 284.533 564 337 564 389.467 520.572 432 467 432 413.428 432 370 389.467 370 337Z" fill="#238DB0" fill-rule="evenodd"/><text fill="#FFFFFF" font-family="Arial,Arial_MSFontService,sans-serif" font-weight="700" font-size="41" transform="matrix(1 0 0 1 423.087 416)">ANN</text><path d="M419.007 280.951 516.007 280.951" stroke="#505050" stroke-width="2.29167" stroke-miterlimit="8" fill="none" fill-rule="evenodd"/><path d="M419.007 280.998 516.007 326.998" stroke="#505050" stroke-width="2.29167" stroke-miterlimit="8" fill-rule="evenodd"/><path d="M419.007 281.005 516.007 374.005" stroke="#505050" stroke-width="2.29167" stroke-miterlimit="8" fill-rule="evenodd"/><path d="M419.007 326.998 516.007 280.998" stroke="#505050" stroke-width="2.29167" stroke-miterlimit="8" fill-rule="evenodd"/><path d="M419.007 327.03 516.007 327.03" stroke="#505050" stroke-width="2.29167" stroke-miterlimit="8" fill="none" fill-rule="evenodd"/><path d="M419.007 327.012 516.007 374.012" stroke="#505050" stroke-width="2.29167" stroke-miterlimit="8" fill-rule="evenodd"/><path d="M419.007 374.005 516.007 281.005" stroke="#505050" stroke-width="2.29167" stroke-miterlimit="8" fill-rule="evenodd"/><path d="M419.007 374.012 516.007 327.012" stroke="#505050" stroke-width="2.29167" stroke-miterlimit="8" fill-rule="evenodd"/><path d="M419.007 374.109 516.007 374.109" stroke="#505050" stroke-width="2.29167" stroke-miterlimit="8" fill="none" fill-rule="evenodd"/><path d="M429.992 281.491C429.992 287.843 424.844 292.992 418.492 292.992 412.141 292.992 406.992 287.843 406.992 281.491 406.992 275.14 412.141 269.991 418.492 269.991 424.844 269.991 429.992 275.14 429.992 281.491Z" stroke="#333333" stroke-width="2.29167" stroke-miterlimit="8" fill="#FFFFFF" fill-rule="evenodd"/><path d="M429.992 327.505C429.992 333.856 424.844 339.005 418.492 339.005 412.141 339.005 406.992 333.856 406.992 327.505 406.992 321.154 412.141 316.005 418.492 316.005 424.844 316.005 429.992 321.154 429.992 327.505Z" stroke="#333333" stroke-width="2.29167" stroke-miterlimit="8" fill="#FFFFFF" fill-rule="evenodd"/><path d="M429.992 373.519C429.992 379.87 424.844 385.019 418.492 385.019 412.141 385.019 406.992 379.87 406.992 373.519 406.992 367.167 412.141 362.019 418.492 362.019 424.844 362.019 429.992 367.167 429.992 373.519Z" stroke="#333333" stroke-width="2.29167" stroke-miterlimit="8" fill="#FFFFFF" fill-rule="evenodd"/><path d="M527.021 281.491C527.021 287.843 521.872 292.992 515.521 292.992 509.169 292.992 504.021 287.843 504.021 281.491 504.021 275.14 509.169 269.991 515.521 269.991 521.872 269.991 527.021 275.14 527.021 281.491Z" stroke="#333333" stroke-width="2.29167" stroke-miterlimit="8" fill="#FFFFFF" fill-rule="evenodd"/><path d="M527.021 327.505C527.021 333.856 521.872 339.005 515.521 339.005 509.169 339.005 504.021 333.856 504.021 327.505 504.021 321.154 509.169 316.005 515.521 316.005 521.872 316.005 527.021 321.154 527.021 327.505Z" stroke="#333333" stroke-width="2.29167" stroke-miterlimit="8" fill="#FFFFFF" fill-rule="evenodd"/><path d="M527.021 373.519C527.021 379.87 521.872 385.019 515.521 385.019 509.169 385.019 504.021 379.87 504.021 373.519 504.021 367.167 509.169 362.019 515.521 362.019 521.872 362.019 527.021 367.167 527.021 373.519Z" stroke="#333333" stroke-width="2.29167" stroke-miterlimit="8" fill="#FFFFFF" fill-rule="evenodd"/><path d="M749.92 86.5753 749.92 78.3238 749.92 70.0578 750.122 62.1191 750.629 54.1214 751.687 46.3688 753.55 39.17 756.476 32.8791 758.465 30.1213 760.812 27.7452 763.565 25.7803 766.739 24.2809 770.347 23.2929 774.385 22.8546 1605.17 22.8542 1614.18 23.2196 1623.2 24.1318 1632.18 25.572 1641.1 27.5221 1649.96 29.9639 1658.73 32.8794 1667.4 36.2503 1675.94 40.0589 1684.34 44.287 1692.58 48.9168 1700.65 53.9304 1708.53 59.3168 1723.62 71.0954 1737.73 84.1327 1750.71 98.2796 1762.43 113.385 1767.77 121.272 1772.74 129.338 1777.33 137.576 1781.5 145.968 1785.25 154.496 1788.57 163.144 1791.42 171.893 1793.79 180.726 1795.67 189.625 1797.03 198.572 1797.87 207.55 1798.15 216.523 1797.89 316.253 1795.6 316.247 1795.85 216.537 1795.85 216.576 1795.58 207.657 1795.58 207.726 1794.75 198.817 1794.76 198.884 1793.41 190.002 1793.42 190.066 1791.56 181.23 1791.57 181.291 1789.21 172.517 1789.23 172.575 1786.4 163.882 1786.42 163.936 1783.12 155.342 1783.15 155.394 1779.42 146.916 1779.44 146.965 1775.29 138.62 1775.31 138.667 1770.75 130.474 1770.78 130.518 1765.84 122.495 1765.86 122.537 1760.55 114.701 1760.59 114.76 1748.93 99.7215 1748.99 99.7942 1736.07 85.7172 1736.14 85.784 1722.1 72.811 1722.17 72.8725 1707.15 61.1455 1707.21 61.1884 1699.37 55.8365 1699.42 55.8636 1691.39 50.8765 1691.44 50.9024 1683.24 46.2978 1683.28 46.3223 1674.93 42.1179 1674.98 42.1409 1666.49 38.3546 1666.54 38.376 1657.93 35.0255 1657.98 35.0449 1649.27 32.148 1649.32 32.1653 1640.53 29.7396 1640.59 29.7544 1631.72 27.8177 1631.78 27.8297 1622.87 26.3998 1622.93 26.4084 1613.99 25.5031 1614.06 25.508 1605.1 25.145 1605.14 25.1459 774.447 25.1463 774.57 25.1396 770.685 25.5613 770.864 25.5273 767.441 26.4648 767.628 26.3957 764.636 27.8086 764.813 27.7051 762.224 29.5532 762.373 29.4259 760.157 31.6688 760.272 31.5337 758.399 34.1312 758.508 33.9442 755.672 40.0416 755.742 39.8456 753.922 46.8778 753.948 46.7455 752.905 54.3901 752.913 54.3077 752.41 62.2424 752.412 62.199 752.212 70.1014 752.212 70.0723 752.212 78.3239 752.212 86.5754ZM1805.92 311.69 1796.71 330 1787.59 311.643Z"/><path d="M1.14583-2.76555e-06 1.14616 135.776-1.14551 135.776-1.14583 2.76555e-06ZM9.16698 131.193 0.000360892 149.526-9.16635 131.193Z" transform="matrix(1 0 0 -1 1797 501.526)"/><text font-family="Arial,Arial_MSFontService,sans-serif" font-weight="400" font-size="41" transform="matrix(1 0 0 1 1609.32 634)">Distance information</text><text font-family="Arial,Arial_MSFontService,sans-serif" font-weight="400" font-size="41" transform="matrix(1 0 0 1 1861.61 232)">New feature</text><rect x="1178" y="932" width="27.9999" height="29.0002" fill="#E8C56B"/><rect x="1178" y="857" width="27.9999" height="28.0002" fill="#E8C56B"/><rect x="1178" y="1008" width="27.9999" height="28.0002" fill="#E8C56B"/><rect x="1178" y="970" width="27.9999" height="28.9999" fill="#E47050"/><rect x="1178" y="895" width="27.9999" height="27.9998" fill="#E47050"/><path d="M770 1776C754.26 1776 741.5 1756.81 741.5 1733.15L741.5 1399.85C741.5 1376.19 728.74 1357 713 1357 728.74 1357 741.5 1337.81 741.5 1314.15L741.5 980.852C741.5 957.186 754.26 938 770 938" stroke="#000000" stroke-width="2.29167" stroke-miterlimit="8" fill="none" fill-rule="evenodd"/><path d="M1008 945.854 1052.71 945.854 1052.71 948.146 1008 948.146ZM1048.13 937.834 1066.46 947 1048.13 956.167Z"/><path d="M453.396 1469C444.893 1469 438 1462.11 438 1453.6L438 1245.4C438 1236.89 444.893 1230 453.396 1230M668.604 1230C677.107 1230 684 1236.89 684 1245.4L684 1453.6C684 1462.11 677.107 1469 668.604 1469" stroke="#1597A5" stroke-width="2.29167" stroke-miterlimit="8" fill="none" fill-rule="evenodd"/><path d="M452 1262.77C452 1250.75 461.748 1241 473.772 1241L648.228 1241C660.252 1241 670 1250.75 670 1262.77L670 1436.23C670 1448.25 660.252 1458 648.228 1458L473.772 1458C461.748 1458 452 1448.25 452 1436.23Z" fill="#238DB0" fill-rule="evenodd"/><text fill="#FFFFFF" font-family="Arial,Arial_MSFontService,sans-serif" font-weight="700" font-size="41" transform="matrix(1 0 0 1 502.701 1340)">AGAT </text><text fill="#FFFFFF" font-family="Arial,Arial_MSFontService,sans-serif" font-weight="700" font-size="41" transform="matrix(1 0 0 1 506.138 1390)">Layer</text><text fill="#1597A5" font-family="Arial,Arial_MSFontService,sans-serif" font-style="italic" font-weight="400" font-size="41" transform="matrix(1 0 0 1 689.418 1472)">n</text><path d="M787 942C787 889.533 830.428 847 884 847 937.572 847 981 889.533 981 942 981 994.467 937.572 1037 884 1037 830.428 1037 787 994.467 787 942Z" fill="#E47050" fill-rule="evenodd"/><text fill="#FFFFFF" font-family="Arial,Arial_MSFontService,sans-serif" font-weight="700" font-size="41" transform="matrix(1 0 0 1 840.336 1022)">ANN</text><path d="M836.007 886.951 933.006 886.951" stroke="#505050" stroke-width="2.29167" stroke-miterlimit="8" fill="none" fill-rule="evenodd"/><path d="M836.007 886.998 933.006 932.998" stroke="#505050" stroke-width="2.29167" stroke-miterlimit="8" fill-rule="evenodd"/><path d="M836.007 887.005 933.006 979.005" stroke="#505050" stroke-width="2.29167" stroke-miterlimit="8" fill-rule="evenodd"/><path d="M836.007 932.998 933.006 886.998" stroke="#505050" stroke-width="2.29167" stroke-miterlimit="8" fill-rule="evenodd"/><path d="M836.007 933.03 933.006 933.03" stroke="#505050" stroke-width="2.29167" stroke-miterlimit="8" fill="none" fill-rule="evenodd"/><path d="M836.007 933.012 933.006 979.012" stroke="#505050" stroke-width="2.29167" stroke-miterlimit="8" fill-rule="evenodd"/><path d="M836.007 979.005 933.006 887.005" stroke="#505050" stroke-width="2.29167" stroke-miterlimit="8" fill-rule="evenodd"/><path d="M836.007 979.012 933.006 933.012" stroke="#505050" stroke-width="2.29167" stroke-miterlimit="8" fill-rule="evenodd"/><path d="M836.007 979.109 933.006 979.109" stroke="#505050" stroke-width="2.29167" stroke-miterlimit="8" fill="none" fill-rule="evenodd"/><path d="M846.992 886.991C846.992 893.619 841.844 898.991 835.492 898.991 829.141 898.991 823.992 893.619 823.992 886.991 823.992 880.364 829.141 874.991 835.492 874.991 841.844 874.991 846.992 880.364 846.992 886.991Z" stroke="#333333" stroke-width="2.29167" stroke-miterlimit="8" fill="#FFFFFF" fill-rule="evenodd"/><path d="M846.992 933.505C846.992 939.856 841.844 945.005 835.492 945.005 829.141 945.005 823.992 939.856 823.992 933.505 823.992 927.154 829.141 922.005 835.492 922.005 841.844 922.005 846.992 927.154 846.992 933.505Z" stroke="#333333" stroke-width="2.29167" stroke-miterlimit="8" fill="#FFFFFF" fill-rule="evenodd"/><path d="M846.992 979.519C846.992 985.87 841.844 991.019 835.492 991.019 829.141 991.019 823.992 985.87 823.992 979.519 823.992 973.167 829.141 968.019 835.492 968.019 841.844 968.019 846.992 973.167 846.992 979.519Z" stroke="#333333" stroke-width="2.29167" stroke-miterlimit="8" fill="#FFFFFF" fill-rule="evenodd"/><path d="M944.021 886.991C944.021 893.619 938.872 898.991 932.521 898.991 926.169 898.991 921.021 893.619 921.021 886.991 921.021 880.364 926.169 874.991 932.521 874.991 938.872 874.991 944.021 880.364 944.021 886.991Z" stroke="#333333" stroke-width="2.29167" stroke-miterlimit="8" fill="#FFFFFF" fill-rule="evenodd"/><path d="M944.021 933.505C944.021 939.856 938.872 945.005 932.521 945.005 926.169 945.005 921.021 939.856 921.021 933.505 921.021 927.154 926.169 922.005 932.521 922.005 938.872 922.005 944.021 927.154 944.021 933.505Z" stroke="#333333" stroke-width="2.29167" stroke-miterlimit="8" fill="#FFFFFF" fill-rule="evenodd"/><path d="M944.021 979.519C944.021 985.87 938.872 991.019 932.521 991.019 926.169 991.019 921.021 985.87 921.021 979.519 921.021 973.167 926.169 968.019 932.521 968.019 938.872 968.019 944.021 973.167 944.021 979.519Z" stroke="#333333" stroke-width="2.29167" stroke-miterlimit="8" fill="#FFFFFF" fill-rule="evenodd"/><path d="M793.743 1047C787.81 1047 783 1042.19 783 1036.26L783 848.743C783 842.81 787.81 838 793.743 838M975.257 838C981.19 838 986 842.81 986 848.743L986 1036.26C986 1042.19 981.19 1047 975.257 1047" stroke="#E47050" stroke-width="2.29167" stroke-miterlimit="8" fill="none" fill-rule="evenodd"/><text fill="#A80226" font-family="Arial,Arial_MSFontService,sans-serif" font-style="italic" font-weight="400" font-size="41" transform="matrix(1 0 0 1 998.24 1045)">n'</text><text font-family="Arial,Arial_MSFontService,sans-serif" font-weight="400" font-size="41" transform="matrix(1 0 0 1 1058.86 845)">Atomic energy</text><path d="M1359 892.147C1359 884.334 1365.33 878 1373.15 878L2107.85 878C2115.67 878 2122 884.334 2122 892.147L2122 1004.85C2122 1012.67 2115.67 1019 2107.85 1019L1373.15 1019C1365.33 1019 1359 1012.67 1359 1004.85Z" fill="#E47050" fill-rule="evenodd"/><text fill="#FFFFFF" font-family="Arial,Arial_MSFontService,sans-serif" font-weight="700" font-size="41" transform="matrix(1 0 0 1 1378.56 936)">N2E: </text><text fill="#FFFFFF" font-family="Arial,Arial_MSFontService,sans-serif" font-weight="400" font-size="41" transform="matrix(1 0 0 1 1483.98 936)">aggregate node features to edges</text><text fill="#FFFFFF" font-family="Arial,Arial_MSFontService,sans-serif" font-weight="700" font-size="41" transform="matrix(1 0 0 1 1378.56 998)">E2N: </text><text fill="#FFFFFF" font-family="Arial,Arial_MSFontService,sans-serif" font-weight="400" font-size="41" transform="matrix(1 0 0 1 1483.98 998)">aggregate edge features to nodes</text><path d="M6.50003 44.9222C6.50003 28.6728 19.6728 15.5 35.9223 15.5L2109.08 15.5C2125.33 15.5 2138.5 28.6728 2138.5 44.9222L2138.5 612.078C2138.5 628.327 2125.33 641.5 2109.08 641.5L35.9223 641.5C19.6728 641.5 6.50003 628.327 6.50003 612.078Z" stroke="#595959" stroke-width="4.58333" stroke-miterlimit="8" fill="none" fill-rule="evenodd"/><path d="M6.50003 849.016C6.50003 816.699 32.6984 790.5 65.0158 790.5L2079.98 790.5C2112.3 790.5 2138.5 816.699 2138.5 849.016L2138.5 1976.98C2138.5 2009.3 2112.3 2035.5 2079.98 2035.5L65.0158 2035.5C32.6984 2035.5 6.50003 2009.3 6.50003 1976.98Z" stroke="#595959" stroke-width="4.58333" stroke-miterlimit="8" fill="none" fill-rule="evenodd"/><path d="M459 1132 508 1132 508 668 606 668 606 1132 655 1132 557 1230Z" fill="url(#fill1)" fill-rule="evenodd"/><g><g><g><g><path d="M-417.414 862.995-423.456 861.102-422.983 859.59-416.941 861.482ZM-427.988 859.679-428.102 859.645-433.982 857.545-433.45 856.053-427.584 858.153-427.613 858.139-427.515 858.173ZM-438.472 855.915-444.356 853.573-443.77 852.102-437.887 854.443ZM-448.773 851.756-454.573 849.221-453.938 847.77-448.138 850.306ZM-458.915 847.239-464.637 844.524-463.959 843.094-458.238 845.809ZM-468.9 842.368-474.514 839.44-473.782 838.037-468.167 840.959ZM-478.682 837.112-483.856 834.19-484.212 833.976-483.396 832.622-483.05 832.829-483.069 832.822-477.905 835.73ZM-488.281 831.53-492.557 828.954-493.704 828.201-492.835 826.881-491.701 827.62-491.727 827.607-487.464 830.176ZM-497.674 825.596-500.998 823.414-502.949 822.053-502.043 820.754-500.101 822.108-500.12 822.094-496.806 824.27ZM-506.843 819.338-509.308 817.618-511.988 815.601-511.036 814.33-508.368 816.34-508.391 816.326-505.937 818.039ZM-515.783 812.741-517.365 811.553-520.739 808.742-519.726 807.526-516.368 810.323-516.398 810.296-514.831 811.477ZM-524.389 805.702-529.256 801.654-528.243 800.438-523.377 804.486ZM-532.941 798.573-537.533 794.214-536.443 793.068-531.851 797.427ZM-540.977 790.947-545.568 786.588-544.478 785.435-539.887 789.8ZM-548.946 783.176-553.244 778.527-552.081 777.449-547.784 782.105ZM-556.467 775.038-560.764 770.39-559.602 769.312-555.304 773.961ZM-563.806 766.673-567.781 761.748-566.549 760.753-562.574 765.678ZM-570.763 758.045-573.757 754.336-574.701 753.044-573.423 752.112-572.49 753.39-572.513 753.355-569.531 757.057ZM-577.502 749.21-579.734 746.15-581.179 744.023-579.87 743.131-578.432 745.252-578.448 745.224-576.224 748.271ZM-583.846 740.092-585.405 737.799-587.324 734.773-585.987 733.923-584.074 736.935-584.088 736.914-582.537 739.201ZM-589.869 730.76-590.815 729.268-593.146 725.316-591.781 724.508-589.458 728.452-589.471 728.432-588.532 729.91ZM-595.557 721.22-595.966 720.522-598.618 715.645-597.227 714.892-594.582 719.755-594.595 719.735-594.192 720.419ZM-600.894 711.445-603.715 705.781-602.298 705.077-599.477 710.741ZM-605.813 701.491-608.472 695.744-607.035 695.081-604.377 700.828ZM-610.416 691.385-612.878 685.55-611.419 684.935-608.958 690.769ZM-614.636 681.108-616.877 675.185-615.396 674.625-613.155 680.548ZM-618.469 670.688-620.543 664.705-619.047 664.187-616.973 670.169ZM-621.92 660.123-623.726 654.054-622.209 653.603-620.402 659.672ZM-418.417 855.265-408.069 864.929-422.009 867.409ZM-628.341 658.177-625.623 644.281-616.137 654.793Z" transform="matrix(-1.00081 0 0 1 -292.953 620.667)"/><path d="M-625.832 816.692-624.008 810.627-622.491 811.083-624.316 817.148ZM-622.639 806.082-622.583 805.896-620.594 800.058-619.095 800.57-621.08 806.393-621.071 806.365-621.123 806.538ZM-619.03 795.541-616.751 789.635-615.274 790.201-617.553 796.114ZM-614.996 785.193-612.544 779.356-611.084 779.971-613.537 785.808ZM-610.627 774.983-607.978 769.236-606.54 769.892-609.188 775.646ZM-605.881 764.939-603.027 759.289-601.614 760-604.468 765.658ZM-600.762 755.089-597.779 749.618-597.711 749.507-596.348 750.309-596.41 750.412-596.396 750.392-599.372 755.842ZM-595.295 745.418-592.585 740.831-592.03 739.961-590.695 740.81-591.242 741.674-591.229 741.653-593.932 746.226ZM-589.48 735.954-587.13 732.266-586.012 730.628-584.705 731.519-585.817 733.143-585.802 733.122-588.145 736.804ZM-583.331 726.705-581.418 723.907-579.668 721.51-578.389 722.45-580.132 724.833-580.118 724.812-582.024 727.603ZM-576.868 717.676-575.443 715.728-572.992 712.634-571.75 713.615-574.193 716.695-574.174 716.675-575.589 718.609ZM-570.042 708.91-569.167 707.805-565.991 704.02-564.778 705.035-567.946 708.814-567.932 708.8-568.801 709.891ZM-562.941 700.379-562.671 700.055-558.625 695.689-557.464 696.766-561.496 701.118-561.47 701.084-561.727 701.395ZM-555.397 692.207-551.092 687.563-549.931 688.639-554.236 693.285ZM-547.749 684.118-543.145 679.771-542.059 680.922-546.663 685.269ZM-539.692 676.511-535.087 672.164-534.001 673.315-538.605 677.662ZM-531.44 669.046-526.562 665.008-525.552 666.227-530.431 670.265ZM-522.904 661.98-518.657 658.464-517.964 657.952-517.023 659.224-517.699 659.724-517.664 659.698-521.894 663.199ZM-514.145 655.128-510.515 652.444-509.006 651.391-508.101 652.69-509.6 653.736-509.582 653.723-513.203 656.401ZM-505.112 648.674-502.206 646.645-499.846 645.112-498.984 646.439-501.332 647.965-501.31 647.951-504.206 649.972ZM-495.863 642.525-493.678 641.104-490.463 639.169-489.647 640.525-492.85 642.453-492.827 642.439-495.001 643.852ZM-486.394 636.719-484.978 635.867-480.87 633.573-480.098 634.956-484.194 637.243-484.172 637.23-485.578 638.076ZM-476.723 631.259-476.06 630.889-471.08 628.328-470.356 629.735-475.325 632.291-475.3 632.278-475.951 632.641ZM-466.831 626.148-461.104 623.445-460.429 624.877-466.155 627.58ZM-456.771 621.438-450.956 618.931-450.33 620.384-456.144 622.892ZM-446.55 617.096-440.657 614.776-440.078 616.249-445.969 618.568ZM-436.18 613.113-430.211 611-429.683 612.493-435.652 614.606ZM-425.656 609.543-419.603 607.686-419.139 609.199-425.192 611.056ZM-618.126 815.566-627.618 826.073-630.327 812.175ZM-422.689 602.779-408.769 605.37-419.194 614.951Z" transform="matrix(-1.00081 0 0 1 -292.953 620.667)"/><path d="M-549.168 735.333C-549.168 707.294-526.282 684.56-498.051 684.56-469.819 684.56-446.933 707.294-446.933 735.333-446.933 763.371-469.819 786.105-498.051 786.105-526.282 786.105-549.168 763.371-549.168 735.333Z" fill="#EF909F" fill-rule="evenodd" transform="matrix(-1.00081 0 0 1 -292.953 620.667)"/><path d="M-408.94 595.105C-408.94 567.064-386.054 544.333-357.823 544.333-329.591 544.333-306.705 567.064-306.705 595.105-306.705 623.146-329.591 645.877-357.823 645.877-386.054 645.877-408.94 623.146-408.94 595.105Z" fill="#EEC16F" fill-rule="evenodd" transform="matrix(-1.00081 0 0 1 -292.953 620.667)"/><path d="M-689.396 595.105C-689.396 567.064-666.51 544.333-638.278 544.333-610.047 544.333-587.161 567.064-587.161 595.105-587.161 623.146-610.047 645.877-638.278 645.877-666.51 645.877-689.396 623.146-689.396 595.105Z" fill="#248CAF" fill-rule="evenodd" transform="matrix(-1.00081 0 0 1 -292.953 620.667)"/><path d="M-689.396 875.56C-689.396 847.522-666.51 824.788-638.278 824.788-610.047 824.788-587.161 847.522-587.161 875.56-587.161 903.599-610.047 926.333-638.278 926.333-666.51 926.333-689.396 903.599-689.396 875.56Z" fill="#DF6633" fill-rule="evenodd" transform="matrix(-1.00081 0 0 1 -292.953 620.667)"/><path d="M-408.94 875.56C-408.94 847.522-386.054 824.788-357.823 824.788-329.591 824.788-306.705 847.522-306.705 875.56-306.705 903.599-329.591 926.333-357.823 926.333-386.054 926.333-408.94 903.599-408.94 875.56Z" fill="#A6A6A6" fill-rule="evenodd" transform="matrix(-1.00081 0 0 1 -292.953 620.667)"/><path d="M9.49819-0.791424 15.8303-0.791362 15.8303 0.791672 9.49819 0.79161ZM20.5794-0.791313 26.9116-0.791251 26.9115 0.791776 20.5794 0.791721ZM31.6607-0.791203 37.9928-0.79114 37.9928 0.791887 31.6606 0.791824ZM42.7419-0.791099 49.074-0.791037 49.074 0.791997 42.7419 0.791935ZM53.8231-0.790988 60.1552-0.790926 60.1552 0.792108 53.8231 0.792045ZM64.9043-0.790878 71.2364-0.790816 71.2364 0.792211 64.9043 0.792149ZM75.9855-0.790774 82.3179-0.790712 82.3179 0.792322 75.9855 0.79226ZM87.067-0.790664 93.3986-0.790602 93.3986 0.792432 87.067 0.79237ZM98.1477-0.790553 104.48-0.790491 104.48 0.792536 98.1477 0.792474ZM109.229-0.79045 115.562-0.790388 115.562 0.792646 109.229 0.792584ZM120.311-0.790339 126.642-0.790277 126.642 0.792757 120.311 0.792695ZM131.391-0.790229 137.724-0.790166 137.724 0.792867 131.391 0.792805ZM142.473-0.790118 148.805-0.790056 148.805 0.792971 142.473 0.792909ZM153.554-0.790014 159.886-0.789952 159.886 0.793082 153.554 0.793019ZM164.635-0.789904 168.73-0.789863 168.73 0.793164 164.635 0.79313ZM12.6642 6.33225 0 0 12.6643-6.332ZM165.563-6.33051 178.228 0.00174508 165.563 6.33375Z" transform="matrix(-1.00081 0 0 -1 294.682 1216.12)"/><path d="M-637.487 655.375-637.487 661.707-639.07 661.707-639.07 655.375ZM-637.487 666.457-637.487 672.788-639.07 672.788-639.07 666.457ZM-637.487 677.537-637.487 683.87-639.07 683.87-639.07 677.537ZM-637.487 688.619-637.487 694.95-639.07 694.95-639.07 688.619ZM-637.487 699.702-637.487 706.03-639.07 706.03-639.07 699.702ZM-637.487 710.782-637.487 717.11-639.07 717.11-639.07 710.782ZM-637.487 721.862-637.487 728.197-639.07 728.197-639.07 721.862ZM-637.487 732.943-637.487 739.277-639.07 739.277-639.07 732.943ZM-637.487 744.023-637.487 750.357-639.07 750.357-639.07 744.023ZM-637.487 755.103-637.487 761.437-639.07 761.437-639.07 755.103ZM-637.487 766.19-637.487 772.517-639.07 772.517-639.07 766.19ZM-637.487 777.27-637.487 783.604-639.07 783.604-639.07 777.27ZM-637.487 788.35-637.487 794.684-639.07 794.684-639.07 788.35ZM-637.487 799.43-637.487 805.764-639.07 805.764-639.07 799.43ZM-637.487 810.51-637.487 814.779-639.07 814.779-639.07 810.51ZM-644.611 658.541-638.278 645.877-631.946 658.541ZM-631.946 811.608-638.278 824.277-644.61 811.608Z" transform="matrix(-1.00081 0 0 1 -292.953 620.667)"/><path d="M-577.663 874.421-571.33 874.421-571.33 876.009-577.663 876.009ZM-566.581 874.421-560.25 874.421-560.25 876.009-566.581 876.009ZM-555.5 874.421-549.168 874.421-549.168 876.009-555.5 876.009ZM-544.419 874.421-538.087 874.421-538.087 876.009-544.419 876.009ZM-533.338 874.421-527.006 874.421-527.006 876.009-533.338 876.009ZM-522.257 874.421-515.924 874.421-515.924 876.009-522.257 876.009ZM-511.175 874.421-504.843 874.421-504.843 876.009-511.175 876.009ZM-500.094 874.421-493.762 874.421-493.762 876.009-500.094 876.009ZM-489.013 874.421-482.681 874.421-482.681 876.009-489.013 876.009ZM-477.932 874.421-471.599 874.421-471.599 876.009-477.932 876.009ZM-466.85 874.421-460.518 874.421-460.518 876.009-466.85 876.009ZM-455.769 874.421-449.437 874.421-449.437 876.009-455.769 876.009ZM-444.688 874.421-438.356 874.421-438.356 876.009-444.688 876.009ZM-433.607 874.421-427.275 874.421-427.275 876.009-433.607 876.009ZM-422.526 874.421-418.432 874.421-418.432 876.009-422.526 876.009ZM-574.497 881.549-587.161 875.215-574.497 868.881ZM-421.597 868.881-408.933 875.215-421.597 881.549Z" transform="matrix(-1.00081 0 0 1 -292.953 620.667)"/><path d="M0.791527 9.49819 0.791541 15.8303-0.791493 15.8303-0.7915 9.49819ZM0.791541 20.5794 0.791555 26.9115-0.791479 26.9116-0.791486 20.5794ZM0.791562 31.6606 0.791569 37.9928-0.791465 37.9928-0.791472 31.6607ZM0.791576 42.7419 0.791583 49.074-0.791444 49.074-0.791458 42.7419ZM0.791589 53.8231 0.791596 60.1552-0.791431 60.1552-0.791438 53.8231ZM0.791603 64.9043 0.791617 71.2364-0.791417 71.2364-0.791424 64.9043ZM0.791624 75.9855 0.791631 82.3179-0.791403 82.3179-0.79141 75.9855ZM0.791638 87.067 0.791645 93.3986-0.791382 93.3986-0.791396 87.067ZM0.791652 98.1477 0.791659 104.48-0.791368 104.48-0.791375 98.1477ZM0.791665 109.229 0.791679 115.562-0.791355 115.562-0.791362 109.229ZM0.791686 120.311 0.791693 126.642-0.791341 126.642-0.791348 120.311ZM0.7917 131.391 0.791707 137.724-0.79132 137.724-0.791334 131.391ZM0.791714 142.473 0.791721 148.805-0.791306 148.805-0.79132 142.473ZM0.791728 153.554 0.791741 159.886-0.791292 159.886-0.791299 153.554ZM0.791748 164.635 0.791755 168.903-0.791279 168.903-0.791286 164.635ZM-6.33211 12.6642 0 0 6.33214 12.6642ZM6.33236 165.736 0.000249296 178.401-6.33189 165.736Z" transform="matrix(-1.00081 0 0 -1 65.1589 1444.94)"/><path d="M-541.623 693.299-546.098 688.82-544.978 687.702-540.503 692.18ZM-549.454 685.461-553.928 680.98-552.808 679.862-548.334 684.342ZM-557.285 677.62-561.76 673.14-560.639 672.021-556.164 676.501ZM-565.115 669.78-569.59 665.299-568.47 664.18-563.995 668.661ZM-572.946 661.939-577.421 657.459-576.3 656.34-571.826 660.82ZM-580.777 654.099-585.252 649.618-584.132 648.5-579.657 652.98ZM-588.607 646.258-593.082 641.778-591.962 640.659-587.488 645.14ZM-538.82 686.027-534.351 699.461-547.781 694.977ZM-597.889 644.806-602.358 631.371-588.929 635.857Z" transform="matrix(-1.00081 0 0 1 -292.953 620.667)"/><path d="M-401.395 833.534-405.87 829.05-404.749 827.931-400.275 832.414ZM-409.226 825.693-410.345 824.567-409.224 823.448-408.106 824.574ZM-413.7 821.21-418.175 816.727-417.055 815.608-412.58 820.091ZM-421.531 813.37-422.649 812.251-421.53 811.132-420.411 812.251ZM-426.005 808.887-430.48 804.41-429.36 803.291-424.885 807.767ZM-433.836 801.046-434.955 799.927-433.834 798.808-432.716 799.927ZM-438.311 796.57-442.786 792.087-441.665 790.968-437.191 795.451ZM-446.141 788.73-447.26 787.611-446.14 786.492-445.022 787.611ZM-450.616 784.247-455.09 779.763-453.971 778.651-449.496 783.127ZM-398.592 826.26-394.123 839.695-407.552 835.205ZM-457.661 785.034-462.13 771.598-448.701 776.082Z" transform="matrix(-1.00081 0 0 1 -292.953 620.667)"/><path d="M7.27202 6.16118 11.7467 10.6415 10.6266 11.7601 6.15195 7.27983ZM15.1027 14.0018 19.5773 18.4821 18.4572 19.6007 13.9826 15.1204ZM22.9333 21.8423 27.408 26.3226 26.2879 27.4413 21.8132 22.961ZM30.764 29.6829 35.2386 34.1632 34.1185 35.2819 29.6439 30.8016ZM38.5946 37.5234 43.0692 42.0038 41.9492 43.1225 37.4745 38.6422ZM46.4252 45.364 50.8999 49.8444 49.7798 50.963 45.3051 46.4827ZM54.2559 53.2046 58.7305 57.685 57.6104 58.8036 53.1358 54.3233ZM4.46898 13.4353 0 0 13.4296 4.486ZM63.5381 54.658 68.007 68.0933 54.5774 63.6073Z" transform="matrix(1.00081 0 0 1 101.489 1252.04)"/><path d="M7.27202 6.16115 11.7466 10.6415 10.6266 11.7601 6.15191 7.27983ZM15.1026 14.0017 19.5773 18.4821 18.4572 19.6007 13.9825 15.1204ZM22.9333 21.8423 27.4079 26.3227 26.2878 27.4413 21.8132 22.961ZM30.7638 29.6829 35.2385 34.1632 34.1184 35.2819 29.6438 30.8016ZM38.5945 37.5235 43.0691 42.0038 41.949 43.1225 37.4744 38.6422ZM46.4251 45.3641 50.8997 49.8444 49.7797 50.9631 45.3051 46.4828ZM54.2557 53.2046 58.7304 57.685 57.6103 58.8037 53.1356 54.3234ZM4.46895 13.4353 0 0 13.4296 4.48603ZM63.5381 54.6582 68.007 68.0935 54.5774 63.6075Z" transform="matrix(1.00081 0 0 1 241.83 1392.27)"/></g></g></g></g><rect x="1288" y="434" width="27.9999" height="28.9999" fill="#8FB79D"/><rect x="1288" y="283" width="27.9999" height="28.0002" fill="#238DB0"/><rect x="1288" y="207" width="27.9999" height="28.0002" fill="#238DB0"/><rect x="1288" y="359" width="27.9999" height="28.0002" fill="#238DB0"/><text fill="#7F7F7F" font-family="Arial,Arial_MSFontService,sans-serif" font-weight="700" font-size="32" transform="matrix(-1.83697e-16 -1 1 -1.83697e-16 1304.66 427)">…</text><rect x="1288" y="321" width="27.9999" height="27.9998" fill="#8FB79D"/><rect x="1288" y="245" width="27.9999" height="27.9998" fill="#8FB79D"/><path d="M1322 335.854 1353.72 335.854 1353.72 338.146 1322 338.146ZM1349.14 327.833 1367.47 337 1349.14 346.167Z"/><rect x="1727" y="434" width="27.9999" height="28.9999" fill="#8FB79D"/><rect x="1727" y="283" width="27.9999" height="28.0002" fill="#238DB0"/><rect x="1727" y="207" width="27.9999" height="28.0002" fill="#238DB0"/><rect x="1727" y="359" width="27.9999" height="28.0002" fill="#238DB0"/><text fill="#7F7F7F" font-family="Arial,Arial_MSFontService,sans-serif" font-weight="700" font-size="32" transform="matrix(-1.83697e-16 -1 1 -1.83697e-16 1743.48 427)">…</text><rect x="1727" y="321" width="27.9999" height="27.9998" fill="#8FB79D"/><rect x="1727" y="245" width="27.9999" height="27.9998" fill="#8FB79D"/><path d="M1676 335.854 1707.72 335.854 1707.72 338.146 1676 338.146ZM1703.14 327.833 1721.47 337 1703.14 346.167Z"/><text font-family="Arial,Arial_MSFontService,sans-serif" font-weight="400" font-size="41" transform="matrix(1 0 0 1 1287.72 183)">e</text><text font-family="Arial,Arial_MSFontService,sans-serif" font-weight="400" font-size="28" transform="matrix(1 0 0 1 1310.63 192)">ij</text><text font-family="Arial,Arial_MSFontService,sans-serif" font-weight="400" font-size="41" transform="matrix(1 0 0 1 1723.96 183)">α</text><text font-family="Arial,Arial_MSFontService,sans-serif" font-weight="400" font-size="28" transform="matrix(1 0 0 1 1748.02 192)">ij</text><text font-family="Arial,Arial_MSFontService,sans-serif" font-weight="400" font-size="41" transform="matrix(1 0 0 1 1327.87 442)">Leaky </text><text font-family="Arial,Arial_MSFontService,sans-serif" font-weight="400" font-size="41" transform="matrix(1 0 0 1 1449.33 442)">ReLU</text><text font-family="Arial,Arial_MSFontService,sans-serif" font-weight="400" font-size="41" transform="matrix(1 0 0 1 1531.86 262)">Softmax</text><path d="M363 1354.85 407.715 1354.85 407.715 1357.15 363 1357.15ZM403.131 1346.83 421.465 1356 403.131 1365.17Z"/><path d="M1679 1304C1679 1251.53 1722.43 1209 1776 1209 1829.57 1209 1873 1251.53 1873 1304 1873 1356.47 1829.57 1399 1776 1399 1722.43 1399 1679 1356.47 1679 1304Z" fill="#E47050" fill-rule="evenodd"/><text fill="#FFFFFF" font-family="Arial,Arial_MSFontService,sans-serif" font-weight="700" font-size="41" transform="matrix(1 0 0 1 1735.77 1378)">E2N</text><path d="M1735.5 1313.5 1821.81 1313.54" stroke="#A80226" stroke-width="6.875" stroke-miterlimit="8" fill="none" fill-rule="evenodd"/><path d="M1715.23 1276.93 1718.19 1272.53 1723.5 1269.04 1729.22 1266.67 1735.23 1265.4 1741.34 1265.27 1747.36 1266.3 1753.01 1268.58 1758.05 1272.04 1762.38 1276.46 1765.89 1281.64 1768.48 1287.38 1770.04 1293.5 1770.46 1299.81 1769.64 1305.99 1767.37 1305.69 1768.17 1299.62 1768.17 1299.85 1767.76 1293.76 1767.79 1293.97 1766.28 1288.05 1766.35 1288.23 1763.84 1282.67 1763.94 1282.84 1760.54 1277.83 1760.67 1277.99 1756.49 1273.72 1756.66 1273.87 1751.81 1270.54 1752.03 1270.66 1746.61 1268.47 1746.85 1268.53 1741.06 1267.54 1741.28 1267.56 1735.39 1267.69 1735.6 1267.67 1729.8 1268.89 1730 1268.83 1724.48 1271.11 1724.67 1271.01 1719.64 1274.32 1719.96 1274 1717.14 1278.2ZM1726.38 1278.65 1708.77 1289.14 1710.94 1268.76Z"/><path d="M1782.72 1305.37 1781.69 1298.67 1782.08 1292.13 1783.76 1286 1786.57 1280.41 1790.33 1275.51 1794.91 1271.41 1800.13 1268.23 1805.85 1266.11 1811.89 1265.27 1817.99 1265.74 1823.95 1267.4 1829.66 1270.17 1837.1 1277.54 1835.49 1279.17 1828.18 1271.94 1828.48 1272.15 1823.04 1269.51 1823.23 1269.58 1817.48 1267.98 1817.7 1268.02 1811.84 1267.56 1812.08 1267.56 1806.29 1268.37 1806.53 1268.31 1801.03 1270.34 1801.23 1270.25 1796.19 1273.31 1796.36 1273.18 1791.94 1277.14 1792.09 1276.99 1788.45 1281.72 1788.57 1281.54 1785.86 1286.92 1785.94 1286.71 1784.32 1292.62 1784.36 1292.38 1783.98 1298.69 1783.97 1298.44 1784.99 1305.02ZM1841.36 1269.45 1843.94 1289.79 1826.13 1279.65Z"/><path d="M1733.98 1313.04C1733.98 1325.74 1723.69 1336.04 1710.98 1336.04 1698.28 1336.04 1687.98 1325.74 1687.98 1313.04 1687.98 1300.33 1698.28 1290.04 1710.98 1290.04 1723.69 1290.04 1733.98 1300.33 1733.98 1313.04Z" stroke="#000000" stroke-width="2.29167" stroke-miterlimit="8" fill="#FFE99D" fill-rule="evenodd"/><path d="M1867.98 1313.04C1867.98 1325.74 1857.69 1336.04 1844.98 1336.04 1832.28 1336.04 1821.98 1325.74 1821.98 1313.04 1821.98 1300.33 1832.28 1290.04 1844.98 1290.04 1857.69 1290.04 1867.98 1300.33 1867.98 1313.04Z" stroke="#000000" stroke-width="2.29167" stroke-miterlimit="8" fill="#FFE99D" fill-rule="evenodd"/><rect x="1590" y="1457" width="92.0001" height="91.9998" fill="#EEC16F"/><text fill="#FFFFFF" font-family="Arial,Arial_MSFontService,sans-serif" font-weight="700" font-size="41" transform="matrix(1 0 0 1 1623.16 1518)">u</text><path d="M12.8325-28.9883 23.2427-22.6821 22.4219-21.4209 11.7114-26.4058 11.4912-26.4058 0.800781-21.4209 0-22.6821 10.1499-28.9883Z" fill="#FFFFFF" transform="matrix(1 0 0 1 1624.08 1517)"/><text fill="#000000" fill-opacity="0" font-family="Arial,Arial_MSFontService,sans-serif" font-size="7.56738" y="-22.3668">ෝ</text><path d="M989 1302.85 1033.71 1302.85 1033.71 1305.15 989 1305.15ZM1029.13 1294.83 1047.46 1304 1029.13 1313.17Z"/><path d="M1317 1302.85 1361.71 1302.85 1361.71 1305.15 1317 1305.15ZM1357.13 1294.83 1375.46 1304 1357.13 1313.17Z"/><path d="M1613 1302.85 1657.71 1302.85 1657.71 1305.15 1613 1305.15ZM1653.13 1294.83 1671.46 1304 1653.13 1313.17Z"/><rect x="1054" y="1203" width="29.0002" height="27.9999" fill="#E8C56B"/><rect x="1206" y="1203" width="28.0002" height="27.9999" fill="#E47050"/><rect x="1282" y="1203" width="28.0002" height="27.9999" fill="#E8C56B"/><rect x="1130" y="1203" width="28.0002" height="27.9999" fill="#E47050"/><text fill="#7F7F7F" font-family="Arial,Arial_MSFontService,sans-serif" font-weight="700" font-size="32" transform="matrix(1 0 0 1 1090.41 1220)">…</text><rect x="1168" y="1203" width="27.9999" height="27.9999" fill="#E8C56B"/><rect x="1244" y="1203" width="27.9999" height="27.9999" fill="#E8C56B"/><rect x="1054" y="1240" width="29.0002" height="28.0002" fill="#E47050"/><rect x="1092" y="1240" width="28.9999" height="28.0002" fill="#E8C56B"/><rect x="1206" y="1240" width="28.0002" height="28.0002" fill="#E8C56B"/><rect x="1282" y="1240" width="28.0002" height="28.0002" fill="#E47050"/><text fill="#7F7F7F" font-family="Arial,Arial_MSFontService,sans-serif" font-weight="700" font-size="32" transform="matrix(1 0 0 1 1128.3 1256)">…</text><rect x="1168" y="1240" width="27.9999" height="28.0002" fill="#E47050"/><rect x="1244" y="1240" width="27.9999" height="28.0002" fill="#E47050"/><rect x="1054" y="1276" width="29.0002" height="27.9999" fill="#E8C56B"/><rect x="1092" y="1276" width="28.9999" height="27.9999" fill="#E47050"/><rect x="1206" y="1276" width="28.0002" height="27.9999" fill="#E8C56B"/><rect x="1282" y="1276" width="28.0002" height="27.9999" fill="#E8C56B"/><rect x="1130" y="1276" width="28.0002" height="27.9999" fill="#E8C56B"/><text fill="#7F7F7F" font-family="Arial,Arial_MSFontService,sans-serif" font-weight="700" font-size="32" transform="matrix(1 0 0 1 1166.18 1292)">…</text><rect x="1244" y="1276" width="27.9999" height="27.9999" fill="#E47050"/><rect x="1054" y="1312" width="29.0002" height="28.9999" fill="#E47050"/><rect x="1092" y="1312" width="28.9999" height="28.9999" fill="#E8C56B"/><rect x="1282" y="1312" width="28.0002" height="28.9999" fill="#E47050"/><rect x="1130" y="1312" width="28.0002" height="28.9999" fill="#E47050"/><text fill="#7F7F7F" font-family="Arial,Arial_MSFontService,sans-serif" font-weight="700" font-size="32" transform="matrix(1 0 0 1 1204.07 1329)">…</text><rect x="1168" y="1312" width="27.9999" height="28.9999" fill="#E8C56B"/><rect x="1244" y="1312" width="27.9999" height="28.9999" fill="#E8C56B"/><rect x="1054" y="1387" width="29.0002" height="27.9999" fill="#E8C56B"/><rect x="1092" y="1387" width="28.9999" height="27.9999" fill="#E47050"/><rect x="1206" y="1387" width="28.0002" height="27.9999" fill="#E47050"/><rect x="1282" y="1387" width="28.0002" height="27.9999" fill="#E47050"/><rect x="1130" y="1387" width="28.0002" height="27.9999" fill="#E8C56B"/><text fill="#7F7F7F" font-family="Arial,Arial_MSFontService,sans-serif" font-weight="700" font-size="32" transform="matrix(1 0 0 1 1241.95 1409)">…</text><rect x="1168" y="1387" width="27.9999" height="27.9999" fill="#E47050"/><text fill="#7F7F7F" font-family="Arial,Arial_MSFontService,sans-serif" font-weight="700" font-size="32" transform="matrix(6.12323e-17 1 -1 6.12323e-17 1065.99 1349)">…</text><text fill="#7F7F7F" font-family="Arial,Arial_MSFontService,sans-serif" font-weight="700" font-size="32" transform="matrix(6.12323e-17 1 -1 6.12323e-17 1104.09 1349)">…</text><text fill="#7F7F7F" font-family="Arial,Arial_MSFontService,sans-serif" font-weight="700" font-size="32" transform="matrix(6.12323e-17 1 -1 6.12323e-17 1142.36 1349)">…</text><text fill="#7F7F7F" font-family="Arial,Arial_MSFontService,sans-serif" font-weight="700" font-size="32" transform="matrix(6.12323e-17 1 -1 6.12323e-17 1180.26 1349)">…</text><text fill="#7F7F7F" font-family="Arial,Arial_MSFontService,sans-serif" font-weight="700" font-size="32" transform="matrix(6.12323e-17 1 -1 6.12323e-17 1292.18 1349)">…</text><path d="M787 1304C787 1251.53 830.428 1209 884 1209 937.572 1209 981 1251.53 981 1304 981 1356.47 937.572 1399 884 1399 830.428 1399 787 1356.47 787 1304Z" fill="#E47050" fill-rule="evenodd"/><text fill="#FFFFFF" font-family="Arial,Arial_MSFontService,sans-serif" font-weight="700" font-size="41" transform="matrix(1 0 0 1 843.807 1378)">N2E</text><path d="M844.5 1313.5 930.812 1313.54" stroke="#C00000" stroke-width="6.875" stroke-miterlimit="8" fill="none" fill-rule="evenodd"/><path d="M811.861 1304.2 812.593 1297.38 814.664 1291.08 817.872 1285.52 822.023 1280.79 826.93 1276.98 832.407 1274.16 838.273 1272.42 844.351 1271.85 850.399 1272.6 856.169 1274.67 861.492 1277.86 866.286 1282.07 871.677 1291.37 869.694 1292.52 864.397 1283.38 864.633 1283.66 860.058 1279.65 860.224 1279.77 855.088 1276.69 855.291 1276.79 849.746 1274.8 849.99 1274.86 844.191 1274.14 844.44 1274.14 838.598 1274.69 838.817 1274.65 833.161 1276.32 833.36 1276.24 828.073 1278.96 828.252 1278.85 823.516 1282.53 823.673 1282.38 819.669 1286.94 819.8 1286.76 816.709 1292.12 816.805 1291.9 814.808 1297.98 814.859 1297.74 814.139 1304.45ZM877.952 1284.72 875 1305 860.544 1290.47Z"/><path d="M897 1290.82 898.798 1285.6 903.023 1280.79 907.93 1276.98 913.407 1274.16 919.273 1272.42 925.351 1271.85 931.4 1272.6 937.169 1274.67 942.492 1277.86 947.219 1282.01 951.203 1286.95 954.293 1292.53 956.33 1298.59 957.136 1304.85 954.864 1305.15 954.071 1299 954.122 1299.22 952.154 1293.36 952.237 1293.55 949.246 1288.15 949.357 1288.31 945.497 1283.52 945.633 1283.66 941.058 1279.65 941.225 1279.77 936.088 1276.69 936.291 1276.79 930.747 1274.8 930.99 1274.86 925.191 1274.14 925.441 1274.14 919.598 1274.69 919.817 1274.65 914.162 1276.32 914.36 1276.24 909.073 1278.96 909.253 1278.85 904.516 1282.53 904.674 1282.38 900.669 1286.94 900.891 1286.56 899.167 1291.57ZM908.198 1289.54 894 1304.32 890.692 1284.1Z"/><path d="M841.984 1313.04C841.984 1325.74 831.687 1336.04 818.985 1336.04 806.282 1336.04 795.985 1325.74 795.985 1313.04 795.985 1300.33 806.282 1290.04 818.985 1290.04 831.687 1290.04 841.984 1300.33 841.984 1313.04Z" stroke="#000000" stroke-width="2.29167" stroke-miterlimit="8" fill="#A6A6A6" fill-rule="evenodd"/><path d="M975.985 1313.04C975.985 1325.74 965.687 1336.04 952.984 1336.04 940.282 1336.04 929.984 1325.74 929.984 1313.04 929.984 1300.33 940.282 1290.04 952.984 1290.04 965.687 1290.04 975.985 1300.33 975.985 1313.04Z" stroke="#000000" stroke-width="2.29167" stroke-miterlimit="8" fill="#A6A6A6" fill-rule="evenodd"/><path d="M1387 1297C1387 1244.53 1430.43 1202 1484 1202 1537.57 1202 1581 1244.53 1581 1297 1581 1349.47 1537.57 1392 1484 1392 1430.43 1392 1387 1349.47 1387 1297Z" fill="#E47050" fill-rule="evenodd"/><text fill="#FFFFFF" font-family="Arial,Arial_MSFontService,sans-serif" font-weight="700" font-size="41" transform="matrix(1 0 0 1 1439.84 1377)">ANN</text><path d="M1435.01 1241.95 1532.01 1241.95" stroke="#505050" stroke-width="2.29167" stroke-miterlimit="8" fill="none" fill-rule="evenodd"/><path d="M1435.01 1242 1532.01 1288" stroke="#505050" stroke-width="2.29167" stroke-miterlimit="8" fill-rule="evenodd"/><path d="M1435.01 1242.01 1532.01 1334.01" stroke="#505050" stroke-width="2.29167" stroke-miterlimit="8" fill-rule="evenodd"/><path d="M1435.01 1288 1532.01 1242" stroke="#505050" stroke-width="2.29167" stroke-miterlimit="8" fill-rule="evenodd"/><path d="M1435.01 1288.03 1532.01 1288.03" stroke="#505050" stroke-width="2.29167" stroke-miterlimit="8" fill="none" fill-rule="evenodd"/><path d="M1435.01 1288.01 1532.01 1334.01" stroke="#505050" stroke-width="2.29167" stroke-miterlimit="8" fill-rule="evenodd"/><path d="M1435.01 1334.01 1532.01 1242.01" stroke="#505050" stroke-width="2.29167" stroke-miterlimit="8" fill-rule="evenodd"/><path d="M1435.01 1334.01 1532.01 1288.01" stroke="#505050" stroke-width="2.29167" stroke-miterlimit="8" fill-rule="evenodd"/><path d="M1435.01 1334.11 1532.01 1334.11" stroke="#505050" stroke-width="2.29167" stroke-miterlimit="8" fill="none" fill-rule="evenodd"/><path d="M1446.99 1241.49C1446.99 1247.84 1441.84 1252.99 1435.49 1252.99 1429.14 1252.99 1423.99 1247.84 1423.99 1241.49 1423.99 1235.14 1429.14 1229.99 1435.49 1229.99 1441.84 1229.99 1446.99 1235.14 1446.99 1241.49Z" stroke="#333333" stroke-width="2.29167" stroke-miterlimit="8" fill="#FFFFFF" fill-rule="evenodd"/><path d="M1446.99 1288.01C1446.99 1294.63 1441.84 1300.01 1435.49 1300.01 1429.14 1300.01 1423.99 1294.63 1423.99 1288.01 1423.99 1281.38 1429.14 1276.01 1435.49 1276.01 1441.84 1276.01 1446.99 1281.38 1446.99 1288.01Z" stroke="#333333" stroke-width="2.29167" stroke-miterlimit="8" fill="#FFFFFF" fill-rule="evenodd"/><path d="M1446.99 1334.52C1446.99 1340.87 1441.84 1346.02 1435.49 1346.02 1429.14 1346.02 1423.99 1340.87 1423.99 1334.52 1423.99 1328.17 1429.14 1323.02 1435.49 1323.02 1441.84 1323.02 1446.99 1328.17 1446.99 1334.52Z" stroke="#333333" stroke-width="2.29167" stroke-miterlimit="8" fill="#FFFFFF" fill-rule="evenodd"/><path d="M1544.02 1241.49C1544.02 1247.84 1538.87 1252.99 1532.52 1252.99 1526.17 1252.99 1521.02 1247.84 1521.02 1241.49 1521.02 1235.14 1526.17 1229.99 1532.52 1229.99 1538.87 1229.99 1544.02 1235.14 1544.02 1241.49Z" stroke="#333333" stroke-width="2.29167" stroke-miterlimit="8" fill="#FFFFFF" fill-rule="evenodd"/><path d="M1544.02 1288.01C1544.02 1294.63 1538.87 1300.01 1532.52 1300.01 1526.17 1300.01 1521.02 1294.63 1521.02 1288.01 1521.02 1281.38 1526.17 1276.01 1532.52 1276.01 1538.87 1276.01 1544.02 1281.38 1544.02 1288.01Z" stroke="#333333" stroke-width="2.29167" stroke-miterlimit="8" fill="#FFFFFF" fill-rule="evenodd"/><path d="M1544.02 1334.52C1544.02 1340.87 1538.87 1346.02 1532.52 1346.02 1526.17 1346.02 1521.02 1340.87 1521.02 1334.52 1521.02 1328.17 1526.17 1323.02 1532.52 1323.02 1538.87 1323.02 1544.02 1328.17 1544.02 1334.52Z" stroke="#333333" stroke-width="2.29167" stroke-miterlimit="8" fill="#FFFFFF" fill-rule="evenodd"/><path d="M1392.74 1402C1386.81 1402 1382 1397.19 1382 1391.26L1382 1203.74C1382 1197.81 1386.81 1193 1392.74 1193M1574.26 1193C1580.19 1193 1585 1197.81 1585 1203.74L1585 1391.26C1585 1397.19 1580.19 1402 1574.26 1402" stroke="#E47050" stroke-width="2.29167" stroke-miterlimit="8" fill="none" fill-rule="evenodd"/><text fill="#E47050" font-family="Arial,Arial_MSFontService,sans-serif" font-style="italic" font-weight="400" font-size="41" transform="matrix(1 0 0 1 1597.74 1406)">n'</text><rect x="2031" y="1290" width="28.0002" height="27.9999" fill="#E8C56B"/><rect x="2031" y="1366" width="28.0002" height="27.9999" fill="#E47050"/><rect x="2031" y="1214" width="28.0002" height="28.9999" fill="#E47050"/><rect x="2031" y="1252" width="28.0002" height="29.0002" fill="#E8C56B"/><rect x="2031" y="1328" width="28.0002" height="28.0002" fill="#E8C56B"/><rect x="1993" y="1290" width="27.9999" height="27.9999" fill="#E47050"/><rect x="1993" y="1366" width="27.9999" height="27.9999" fill="#E8C56B"/><rect x="1993" y="1214" width="27.9999" height="28.9999" fill="#E8C56B"/><rect x="1993" y="1252" width="27.9999" height="29.0002" fill="#E47050"/><rect x="1993" y="1328" width="27.9999" height="28.0002" fill="#E47050"/><rect x="1956" y="1290" width="28.0002" height="27.9999" fill="#E8C56B"/><rect x="1956" y="1366" width="28.0002" height="27.9999" fill="#E47050"/><rect x="1956" y="1214" width="28.0002" height="28.9999" fill="#E47050"/><rect x="1956" y="1252" width="28.0002" height="29.0002" fill="#E47050"/><rect x="1956" y="1328" width="28.0002" height="28.0002" fill="#E8C56B"/><path d="M1888 1302.85 1932.71 1302.85 1932.71 1305.15 1888 1305.15ZM1928.13 1294.83 1946.46 1304 1928.13 1313.17Z"/><text font-family="Arial,Arial_MSFontService,sans-serif" font-weight="400" font-size="41" transform="matrix(1 0 0 1 1891.23 1186)">Atomic force</text><path d="M1.14583-3.12194e-06 1.14616 118.707-1.14551 118.707-1.14583 3.12194e-06ZM9.16698 114.124 0.000360892 132.457-9.16636 114.124Z" transform="matrix(1 0 0 -1 1636 1449.46)"/><rect x="1711" y="1463" width="268" height="81.0001" stroke="#000000" stroke-width="2.29167" stroke-miterlimit="8" stroke-dasharray="9.16667 6.875" fill="#FFFFFF"/><rect x="1721" y="1473" width="58.9998" height="58.0001" fill="#EEC16F"/><text fill="#FFFFFF" font-family="Arial,Arial_MSFontService,sans-serif" font-weight="700" font-size="32" transform="matrix(1 0 0 1 1740.77 1514)">d</text><rect x="1815" y="1473" width="59.0001" height="58.0001" fill="#EEC16F"/><text fill="#FFFFFF" font-family="Arial,Arial_MSFontService,sans-serif" font-weight="400" font-size="32" transform="matrix(1 0 0 1 1821.47 1514)">1/</text><text fill="#FFFFFF" font-family="Arial,Arial_MSFontService,sans-serif" font-weight="700" font-size="32" transform="matrix(1 0 0 1 1848.4 1514)">d</text><rect x="1910" y="1473" width="58.0001" height="58.0001" fill="#EEC16F"/><text fill="#FFFFFF" font-family="Arial,Arial_MSFontService,sans-serif" font-weight="400" font-size="32" transform="matrix(1 0 0 1 1916.49 1514)">1.0</text><path d="M1846 1445 1846 1463.47" stroke="#000000" stroke-width="2.29167" stroke-miterlimit="8" fill="none" fill-rule="evenodd"/><path d="M1706 1419 1817.07 1419" stroke="#000000" stroke-width="2.29167" stroke-miterlimit="8" fill="none" fill-rule="evenodd"/><path d="M56.9993 28.2028C56.8862 43.5531 44.214 55.9519 28.5893 55.9999" stroke="#000000" stroke-width="2.29167" stroke-miterlimit="8" fill="none" fill-rule="evenodd" transform="matrix(1 0 0 -1 1789 1475)"/><path d="M1659.15 1330.75 1659.15 1371.38 1656.85 1371.38 1656.85 1330.75ZM1648.83 1335.33 1658 1317 1667.17 1335.33Z"/><path d="M0.00125985 47.655C0.191777 21.1502 21.8295-0.18341 48.3345 0.001191" stroke="#000000" stroke-width="2.29167" stroke-miterlimit="8" fill="none" fill-rule="evenodd" transform="matrix(1 0 0 -1 1658 1419)"/><rect x="1867" y="1921" width="92.0001" height="92.0001" fill="#EEC16F"/><text fill="#FFFFFF" font-family="Arial,Arial_MSFontService,sans-serif" font-weight="700" font-size="41" transform="matrix(1 0 0 1 1900.18 1982)">u</text><path d="M12.8325-28.9883 23.2427-22.6821 22.4219-21.4209 11.7114-26.4058 11.4912-26.4058 0.800781-21.4209 0-22.6821 10.1499-28.9883Z" fill="#FFFFFF" transform="matrix(1 0 0 1 1901.09 1980)"/><text fill="#000000" fill-opacity="0" font-family="Arial,Arial_MSFontService,sans-serif" font-size="7.56738" y="-22.3668">ෝ</text><path d="M989 1762.85 1033.71 1762.85 1033.71 1765.15 989 1765.15ZM1029.13 1754.83 1047.46 1764 1029.13 1773.17Z"/><path d="M1317 1762.85 1361.71 1762.85 1361.71 1765.15 1317 1765.15ZM1357.13 1754.83 1375.46 1764 1357.13 1773.17Z"/><path d="M1882 1762.85 1926.71 1762.85 1926.71 1765.15 1882 1765.15ZM1922.13 1754.83 1940.46 1764 1922.13 1773.17Z"/><rect x="1054" y="1663" width="29.0002" height="27.9999" fill="#E8C56B"/><rect x="1206" y="1663" width="28.0002" height="27.9999" fill="#E47050"/><rect x="1282" y="1663" width="28.0002" height="27.9999" fill="#E8C56B"/><rect x="1130" y="1663" width="28.0002" height="27.9999" fill="#E47050"/><text fill="#7F7F7F" font-family="Arial,Arial_MSFontService,sans-serif" font-weight="700" font-size="32" transform="matrix(1 0 0 1 1090.41 1679)">…</text><rect x="1168" y="1663" width="27.9999" height="27.9999" fill="#E8C56B"/><rect x="1244" y="1663" width="27.9999" height="27.9999" fill="#E8C56B"/><rect x="1054" y="1699" width="29.0002" height="27.9999" fill="#E47050"/><rect x="1092" y="1699" width="28.9999" height="27.9999" fill="#E8C56B"/><rect x="1206" y="1699" width="28.0002" height="27.9999" fill="#E8C56B"/><rect x="1282" y="1699" width="28.0002" height="27.9999" fill="#E47050"/><text fill="#7F7F7F" font-family="Arial,Arial_MSFontService,sans-serif" font-weight="700" font-size="32" transform="matrix(1 0 0 1 1128.3 1716)">…</text><rect x="1168" y="1699" width="27.9999" height="27.9999" fill="#E47050"/><rect x="1244" y="1699" width="27.9999" height="27.9999" fill="#E47050"/><rect x="1054" y="1736" width="29.0002" height="28.0002" fill="#E8C56B"/><rect x="1092" y="1736" width="28.9999" height="28.0002" fill="#E47050"/><rect x="1206" y="1736" width="28.0002" height="28.0002" fill="#E8C56B"/><rect x="1282" y="1736" width="28.0002" height="28.0002" fill="#E8C56B"/><rect x="1130" y="1736" width="28.0002" height="28.0002" fill="#E8C56B"/><text fill="#7F7F7F" font-family="Arial,Arial_MSFontService,sans-serif" font-weight="700" font-size="32" transform="matrix(1 0 0 1 1166.18 1752)">…</text><rect x="1244" y="1736" width="27.9999" height="28.0002" fill="#E47050"/><rect x="1054" y="1772" width="29.0002" height="27.9999" fill="#E47050"/><rect x="1092" y="1772" width="28.9999" height="27.9999" fill="#E8C56B"/><rect x="1282" y="1772" width="28.0002" height="27.9999" fill="#E47050"/><rect x="1130" y="1772" width="28.0002" height="27.9999" fill="#E47050"/><text fill="#7F7F7F" font-family="Arial,Arial_MSFontService,sans-serif" font-weight="700" font-size="32" transform="matrix(1 0 0 1 1204.07 1789)">…</text><rect x="1168" y="1772" width="27.9999" height="27.9999" fill="#E8C56B"/><rect x="1244" y="1772" width="27.9999" height="27.9999" fill="#E8C56B"/><rect x="1054" y="1846" width="29.0002" height="29.0002" fill="#E8C56B"/><rect x="1092" y="1846" width="28.9999" height="29.0002" fill="#E47050"/><rect x="1206" y="1846" width="28.0002" height="29.0002" fill="#E47050"/><rect x="1282" y="1846" width="28.0002" height="29.0002" fill="#E47050"/><rect x="1130" y="1846" width="28.0002" height="29.0002" fill="#E8C56B"/><text fill="#7F7F7F" font-family="Arial,Arial_MSFontService,sans-serif" font-weight="700" font-size="32" transform="matrix(1 0 0 1 1241.95 1868)">…</text><rect x="1168" y="1846" width="27.9999" height="29.0002" fill="#E47050"/><text fill="#7F7F7F" font-family="Arial,Arial_MSFontService,sans-serif" font-weight="700" font-size="32" transform="matrix(6.12323e-17 1 -1 6.12323e-17 1065.99 1808)">…</text><text fill="#7F7F7F" font-family="Arial,Arial_MSFontService,sans-serif" font-weight="700" font-size="32" transform="matrix(6.12323e-17 1 -1 6.12323e-17 1104.09 1808)">…</text><text fill="#7F7F7F" font-family="Arial,Arial_MSFontService,sans-serif" font-weight="700" font-size="32" transform="matrix(6.12323e-17 1 -1 6.12323e-17 1142.36 1808)">…</text><text fill="#7F7F7F" font-family="Arial,Arial_MSFontService,sans-serif" font-weight="700" font-size="32" transform="matrix(6.12323e-17 1 -1 6.12323e-17 1180.26 1808)">…</text><text fill="#7F7F7F" font-family="Arial,Arial_MSFontService,sans-serif" font-weight="700" font-size="32" transform="matrix(6.12323e-17 1 -1 6.12323e-17 1292.18 1808)">…</text><path d="M787 1764C787 1711.53 830.428 1669 884 1669 937.572 1669 981 1711.53 981 1764 981 1816.47 937.572 1859 884 1859 830.428 1859 787 1816.47 787 1764Z" fill="#E47050" fill-rule="evenodd"/><text fill="#FFFFFF" font-family="Arial,Arial_MSFontService,sans-serif" font-weight="700" font-size="41" transform="matrix(1 0 0 1 843.807 1838)">N2E</text><path d="M844.5 1773.5 930.812 1773.54" stroke="#C00000" stroke-width="6.875" stroke-miterlimit="8" fill="none" fill-rule="evenodd"/><path d="M811.861 1763.22 812.595 1756.6 814.67 1750.48 817.882 1745.09 822.036 1740.51 826.944 1736.81 832.419 1734.08 838.279 1732.4 844.35 1731.85 850.392 1732.58 856.157 1734.58 861.478 1737.67 866.278 1741.75 871.409 1750.45 869.435 1751.62 864.402 1743.08 864.646 1743.37 860.071 1739.48 860.238 1739.6 855.101 1736.61 855.302 1736.71 849.757 1734.79 849.995 1734.84 844.195 1734.14 844.437 1734.14 838.595 1734.67 838.807 1734.63 833.152 1736.26 833.347 1736.18 828.06 1738.82 828.238 1738.71 823.502 1742.27 823.661 1742.13 819.657 1746.55 819.792 1746.36 816.701 1751.55 816.801 1751.34 814.805 1757.22 814.859 1756.98 814.139 1763.47ZM877.539 1743.66 875 1764 860.252 1749.77Z"/><path d="M897.203 1749.92 898.798 1745.18 903.037 1740.51 907.944 1736.81 913.419 1734.08 919.279 1732.4 925.351 1731.85 931.392 1732.58 937.157 1734.58 942.478 1737.67 947.207 1741.69 951.194 1746.48 954.287 1751.9 956.328 1757.78 957.136 1763.85 954.864 1764.15 954.072 1758.2 954.125 1758.42 952.157 1752.75 952.245 1752.94 949.254 1747.71 949.368 1747.87 945.508 1743.23 945.647 1743.37 941.072 1739.48 941.238 1739.6 936.102 1736.61 936.302 1736.71 930.757 1734.79 930.995 1734.84 925.196 1734.14 925.437 1734.14 919.595 1734.67 919.807 1734.63 914.152 1736.26 914.347 1736.18 909.06 1738.82 909.239 1738.71 904.502 1742.27 904.662 1742.13 900.657 1746.55 900.893 1746.14 899.375 1750.65ZM908.428 1748.79 894 1763.35 891.009 1743.07Z"/><path d="M841.984 1773.04C841.984 1785.74 831.687 1796.04 818.985 1796.04 806.282 1796.04 795.985 1785.74 795.985 1773.04 795.985 1760.33 806.282 1750.04 818.985 1750.04 831.687 1750.04 841.984 1760.33 841.984 1773.04Z" stroke="#000000" stroke-width="2.29167" stroke-miterlimit="8" fill="#A6A6A6" fill-rule="evenodd"/><path d="M975.985 1773.04C975.985 1785.74 965.687 1796.04 952.984 1796.04 940.282 1796.04 929.984 1785.74 929.984 1773.04 929.984 1760.33 940.282 1750.04 952.984 1750.04 965.687 1750.04 975.985 1760.33 975.985 1773.04Z" stroke="#000000" stroke-width="2.29167" stroke-miterlimit="8" fill="#A6A6A6" fill-rule="evenodd"/><path d="M1656 1757C1656 1704.53 1699.43 1662 1753 1662 1806.57 1662 1850 1704.53 1850 1757 1850 1809.47 1806.57 1852 1753 1852 1699.43 1852 1656 1809.47 1656 1757Z" fill="#E47050" fill-rule="evenodd"/><text fill="#FFFFFF" font-family="Arial,Arial_MSFontService,sans-serif" font-weight="700" font-size="41" transform="matrix(1 0 0 1 1709.07 1836)">ANN</text><path d="M1704.01 1700.95 1802.01 1700.95" stroke="#505050" stroke-width="2.29167" stroke-miterlimit="8" fill="none" fill-rule="evenodd"/><path d="M1704.01 1701 1802.01 1748" stroke="#505050" stroke-width="2.29167" stroke-miterlimit="8" fill-rule="evenodd"/><path d="M1704.01 1701.01 1802.01 1794.01" stroke="#505050" stroke-width="2.29167" stroke-miterlimit="8" fill-rule="evenodd"/><path d="M1704.01 1748 1802.01 1701" stroke="#505050" stroke-width="2.29167" stroke-miterlimit="8" fill-rule="evenodd"/><path d="M1704.01 1748.03 1802.01 1748.03" stroke="#505050" stroke-width="2.29167" stroke-miterlimit="8" fill="none" fill-rule="evenodd"/><path d="M1704.01 1748.01 1802.01 1794.01" stroke="#505050" stroke-width="2.29167" stroke-miterlimit="8" fill-rule="evenodd"/><path d="M1704.01 1794.01 1802.01 1701.01" stroke="#505050" stroke-width="2.29167" stroke-miterlimit="8" fill-rule="evenodd"/><path d="M1704.01 1794.01 1802.01 1748.01" stroke="#505050" stroke-width="2.29167" stroke-miterlimit="8" fill-rule="evenodd"/><path d="M1704.01 1794.11 1802.01 1794.11" stroke="#505050" stroke-width="2.29167" stroke-miterlimit="8" fill="none" fill-rule="evenodd"/><path d="M1715.99 1701.49C1715.99 1707.84 1710.84 1712.99 1704.49 1712.99 1698.14 1712.99 1692.99 1707.84 1692.99 1701.49 1692.99 1695.14 1698.14 1689.99 1704.49 1689.99 1710.84 1689.99 1715.99 1695.14 1715.99 1701.49Z" stroke="#333333" stroke-width="2.29167" stroke-miterlimit="8" fill="#FFFFFF" fill-rule="evenodd"/><path d="M1715.99 1747.51C1715.99 1753.86 1710.84 1759.01 1704.49 1759.01 1698.14 1759.01 1692.99 1753.86 1692.99 1747.51 1692.99 1741.15 1698.14 1736.01 1704.49 1736.01 1710.84 1736.01 1715.99 1741.15 1715.99 1747.51Z" stroke="#333333" stroke-width="2.29167" stroke-miterlimit="8" fill="#FFFFFF" fill-rule="evenodd"/><path d="M1715.99 1793.52C1715.99 1799.87 1710.84 1805.02 1704.49 1805.02 1698.14 1805.02 1692.99 1799.87 1692.99 1793.52 1692.99 1787.17 1698.14 1782.02 1704.49 1782.02 1710.84 1782.02 1715.99 1787.17 1715.99 1793.52Z" stroke="#333333" stroke-width="2.29167" stroke-miterlimit="8" fill="#FFFFFF" fill-rule="evenodd"/><path d="M1813.02 1701.49C1813.02 1707.84 1807.87 1712.99 1801.52 1712.99 1795.17 1712.99 1790.02 1707.84 1790.02 1701.49 1790.02 1695.14 1795.17 1689.99 1801.52 1689.99 1807.87 1689.99 1813.02 1695.14 1813.02 1701.49Z" stroke="#333333" stroke-width="2.29167" stroke-miterlimit="8" fill="#FFFFFF" fill-rule="evenodd"/><path d="M1813.02 1747.51C1813.02 1753.86 1807.87 1759.01 1801.52 1759.01 1795.17 1759.01 1790.02 1753.86 1790.02 1747.51 1790.02 1741.15 1795.17 1736.01 1801.52 1736.01 1807.87 1736.01 1813.02 1741.15 1813.02 1747.51Z" stroke="#333333" stroke-width="2.29167" stroke-miterlimit="8" fill="#FFFFFF" fill-rule="evenodd"/><path d="M1813.02 1793.52C1813.02 1799.87 1807.87 1805.02 1801.52 1805.02 1795.17 1805.02 1790.02 1799.87 1790.02 1793.52 1790.02 1787.17 1795.17 1782.02 1801.52 1782.02 1807.87 1782.02 1813.02 1787.17 1813.02 1793.52Z" stroke="#333333" stroke-width="2.29167" stroke-miterlimit="8" fill="#FFFFFF" fill-rule="evenodd"/><path d="M1661.8 1861C1655.83 1861 1651 1856.17 1651 1850.2L1651 1662.8C1651 1656.83 1655.83 1652 1661.8 1652M1844.2 1652C1850.17 1652 1855 1656.83 1855 1662.8L1855 1850.2C1855 1856.17 1850.17 1861 1844.2 1861" stroke="#E47050" stroke-width="2.29167" stroke-miterlimit="8" fill="none" fill-rule="evenodd"/><text fill="#E47050" font-family="Arial,Arial_MSFontService,sans-serif" font-style="italic" font-weight="400" font-size="41" transform="matrix(1 0 0 1 1866.97 1866)">n'</text><rect x="1956" y="1750" width="28.0002" height="27.9999" fill="#E8C56B"/><rect x="1956" y="1826" width="28.0002" height="27.9999" fill="#E47050"/><rect x="1956" y="1674" width="28.0002" height="27.9999" fill="#E47050"/><rect x="1956" y="1712" width="28.0002" height="28.0002" fill="#E47050"/><rect x="1956" y="1788" width="28.0002" height="28.0002" fill="#E8C56B"/><path d="M1585 1762.85 1629.71 1762.85 1629.71 1765.15 1585 1765.15ZM1625.13 1754.83 1643.46 1764 1625.13 1773.17Z"/><text font-family="Arial,Arial_MSFontService,sans-serif" font-weight="400" font-size="41" transform="matrix(1 0 0 1 1919.64 1646)">Stress</text><path d="M1.14583-3.12194e-06 1.14616 118.707-1.14551 118.707-1.14583 3.12194e-06ZM9.16698 114.124 0.000360892 132.457-9.16636 114.124Z" transform="matrix(1 0 0 -1 1913 1912.46)"/><rect x="1956" y="1863" width="28.0002" height="27.9999" fill="#E47050"/><path d="M1383 1764C1383 1711.53 1426.2 1669 1479.5 1669 1532.8 1669 1576 1711.53 1576 1764 1576 1816.47 1532.8 1859 1479.5 1859 1426.2 1859 1383 1816.47 1383 1764Z" fill="#E47050" fill-rule="evenodd"/><text fill="#FFFFFF" font-family="Arial,Arial_MSFontService,sans-serif" font-weight="700" font-size="41" transform="matrix(1 0 0 1 1439.01 1838)">N2E</text><text fill="#FFFFFF" font-family="Arial,Arial_MSFontService,sans-serif" font-weight="700" font-size="41" transform="matrix(1 0 0 1 1519.22 1838)">’</text><path d="M1439.5 1773.5 1525.81 1773.54" stroke="#C00000" stroke-width="6.875" stroke-miterlimit="8" fill="none" fill-rule="evenodd"/><path d="M1406.86 1763.22 1407.59 1756.6 1409.67 1750.48 1412.88 1745.09 1417.04 1740.51 1421.94 1736.81 1427.42 1734.08 1433.28 1732.4 1439.35 1731.85 1445.39 1732.58 1451.16 1734.58 1456.48 1737.67 1461.28 1741.75 1466.41 1750.45 1464.43 1751.62 1459.4 1743.08 1459.65 1743.37 1455.07 1739.48 1455.24 1739.6 1450.1 1736.61 1450.3 1736.71 1444.76 1734.79 1444.99 1734.84 1439.2 1734.14 1439.44 1734.14 1433.59 1734.67 1433.81 1734.63 1428.15 1736.26 1428.35 1736.18 1423.06 1738.82 1423.24 1738.71 1418.5 1742.27 1418.66 1742.13 1414.66 1746.55 1414.79 1746.36 1411.7 1751.55 1411.8 1751.34 1409.8 1757.22 1409.86 1756.98 1409.14 1763.47ZM1472.54 1743.66 1470 1764 1455.25 1749.77Z"/><path d="M1436.98 1773.04C1436.98 1785.74 1426.69 1796.04 1413.98 1796.04 1401.28 1796.04 1390.98 1785.74 1390.98 1773.04 1390.98 1760.33 1401.28 1750.04 1413.98 1750.04 1426.69 1750.04 1436.98 1760.33 1436.98 1773.04Z" stroke="#000000" stroke-width="2.29167" stroke-miterlimit="8" fill="#A6A6A6" fill-rule="evenodd"/><path d="M1570.98 1773.04C1570.98 1785.74 1560.69 1796.04 1547.98 1796.04 1535.28 1796.04 1524.98 1785.74 1524.98 1773.04 1524.98 1760.33 1535.28 1750.04 1547.98 1750.04 1560.69 1750.04 1570.98 1760.33 1570.98 1773.04Z" stroke="#000000" stroke-width="2.29167" stroke-miterlimit="8" fill="#A6A6A6" fill-rule="evenodd"/></g></svg>