<svg width="1530" height="1815" xmlns="http://www.w3.org/2000/svg" xmlns:xlink="http://www.w3.org/1999/xlink" xml:space="preserve" overflow="hidden"><defs><clipPath id="clip0"><rect x="1733" y="486" width="1530" height="1815"/></clipPath></defs><g clip-path="url(#clip0)" transform="translate(-1733 -486)"><path d="M1989.5 1206.27C1989.5 1180.44 2010.44 1159.5 2036.27 1159.5L2960.73 1159.5C2986.56 1159.5 3007.5 1180.44 3007.5 1206.27L3007.5 2251.73C3007.5 2277.56 2986.56 2298.5 2960.73 2298.5L2036.27 2298.5C2010.44 2298.5 1989.5 2277.56 1989.5 2251.73Z" stroke="#000000" stroke-width="4.58333" stroke-miterlimit="8" fill="none" fill-rule="evenodd"/><path d="M2173.5 1212.13C2173.5 1206.81 2177.81 1202.5 2183.13 1202.5L2497.87 1202.5C2503.19 1202.5 2507.5 1206.81 2507.5 1212.13L2507.5 1280.87C2507.5 1286.19 2503.19 1290.5 2497.87 1290.5L2183.13 1290.5C2177.81 1290.5 2173.5 1286.19 2173.5 1280.87Z" stroke="#7F7F7F" stroke-width="4.58333" stroke-miterlimit="8" fill="#AFABAB" fill-rule="evenodd"/><text fill="#FFFFFF" font-family="Arial,Arial_MSFontService,sans-serif" font-weight="400" font-size="46" transform="matrix(1 0 0 1 2247.75 1263)">Structure</text><path d="M2137.5 1405.52C2137.5 1398.33 2143.33 1392.5 2150.52 1392.5L2531.48 1392.5C2538.67 1392.5 2544.5 1398.33 2544.5 1405.52L2544.5 1498.48C2544.5 1505.67 2538.67 1511.5 2531.48 1511.5L2150.52 1511.5C2143.33 1511.5 2137.5 1505.67 2137.5 1498.48Z" stroke="#767171" stroke-width="4.58333" stroke-miterlimit="8" fill="#0070C0" fill-rule="evenodd"/><text fill="#FFFFFF" font-family="Arial,Arial_MSFontService,sans-serif" font-weight="400" font-size="46" transform="matrix(1 0 0 1 2179 1469)">BFGS optimizer</text><path d="M2341.79 1290.5 2341.79 1370.29 2337.21 1370.29 2337.21 1290.5ZM2353.25 1365.7 2339.5 1393.2 2325.75 1365.7Z" fill="#7F7F7F"/><path d="M2149.5 1630.02C2149.5 1624.76 2153.76 1620.5 2159.02 1620.5L2521.98 1620.5C2527.24 1620.5 2531.5 1624.76 2531.5 1630.02L2531.5 1697.98C2531.5 1703.24 2527.24 1707.5 2521.98 1707.5L2159.02 1707.5C2153.76 1707.5 2149.5 1703.24 2149.5 1697.98Z" stroke="#7F7F7F" stroke-width="4.58333" stroke-miterlimit="8" fill="#AFABAB" fill-rule="evenodd"/><text fill="#FFFFFF" font-family="Arial,Arial_MSFontService,sans-serif" font-weight="400" font-size="46" transform="matrix(1 0 0 1 2199.34 1681)">New s</text><text fill="#FFFFFF" font-family="Arial,Arial_MSFontService,sans-serif" font-weight="400" font-size="46" transform="matrix(1 0 0 1 2326.52 1681)">tructure</text><path d="M2341.79 1511.5 2341.79 1597.62 2337.21 1597.62 2337.21 1511.5ZM2353.25 1593.04 2339.5 1620.54 2325.75 1593.04Z" fill="#7F7F7F"/><path d="M2091.5 1901 2341 1790.5 2590.5 1901 2341 2011.5Z" stroke="#7F7F7F" stroke-width="4.58333" stroke-miterlimit="8" fill="#A6A6A6" fill-rule="evenodd"/><text fill="#FFFFFF" font-family="Calibri,Calibri_MSFontService,sans-serif" font-weight="400" font-size="46" transform="matrix(1 0 0 1 2271.81 1889)">Force &lt; </text><text fill="#FFFFFF" font-family="Calibri,Calibri_MSFontService,sans-serif" font-weight="400" font-size="46" transform="matrix(1 0 0 1 2299.31 1944)">0.05</text><path d="M2149.5 2130.02C2149.5 2124.76 2153.76 2120.5 2159.02 2120.5L2521.98 2120.5C2527.24 2120.5 2531.5 2124.76 2531.5 2130.02L2531.5 2197.98C2531.5 2203.24 2527.24 2207.5 2521.98 2207.5L2159.02 2207.5C2153.76 2207.5 2149.5 2203.24 2149.5 2197.98Z" stroke="#7F7F7F" stroke-width="4.58333" stroke-miterlimit="8" fill="#AFABAB" fill-rule="evenodd"/><text fill="#FFFFFF" font-family="Arial,Arial_MSFontService,sans-serif" font-weight="400" font-size="46" transform="matrix(1 0 0 1 2209.93 2181)">Structure opt</text><path d="M2342.79 1707.5 2342.79 1767.72 2338.21 1767.72 2338.21 1707.5ZM2354.25 1763.14 2340.5 1790.64 2326.75 1763.14Z" fill="#7F7F7F"/><path d="M2342.79 2011.5 2342.79 2096.85 2338.21 2096.85 2338.21 2011.5ZM2354.25 2092.26 2340.5 2119.76 2326.75 2092.26Z" fill="#7F7F7F"/><path d="M2592.98 1900.21 2869.5 1900.21 2867.21 1902.5 2867.21 1340.5 2869.5 1342.79 2363.42 1342.79 2363.42 1338.21 2871.79 1338.21 2871.79 1904.79 2592.98 1904.79ZM2368 1354.25 2340.5 1340.5 2368 1326.75Z" fill="#7F7F7F"/><text font-family="Arial,Arial_MSFontService,sans-serif" font-weight="400" font-size="46" transform="matrix(-1.83697e-16 -1 1 -1.83697e-16 2836.01 1820)">Half the max step</text><text font-family="Arial,Arial_MSFontService,sans-serif" font-weight="400" font-size="46" transform="matrix(1 -2.44929e-16 2.44929e-16 1 2710.46 1894)">No</text><text font-family="Arial,Arial_MSFontService,sans-serif" font-weight="400" font-size="46" transform="matrix(1 -2.44929e-16 2.44929e-16 1 2345.25 2066)">Yes</text><path d="M1735.5 506.012C1735.5 496.34 1743.34 488.5 1753.01 488.5L2373.99 488.5C2383.66 488.5 2391.5 496.34 2391.5 506.012L2391.5 630.988C2391.5 640.66 2383.66 648.5 2373.99 648.5L1753.01 648.5C1743.34 648.5 1735.5 640.66 1735.5 630.988Z" stroke="#767171" stroke-width="4.58333" stroke-miterlimit="8" fill="#0070C0" fill-rule="evenodd"/><text fill="#FFFFFF" font-family="Arial,Arial_MSFontService,sans-serif" font-weight="400" font-size="64" transform="matrix(1 0 0 1 1816.37 592)">Load force model</text><path d="M2605.5 506.012C2605.5 496.34 2613.34 488.5 2623.01 488.5L3242.99 488.5C3252.66 488.5 3260.5 496.34 3260.5 506.012L3260.5 630.988C3260.5 640.66 3252.66 648.5 3242.99 648.5L2623.01 648.5C2613.34 648.5 2605.5 640.66 2605.5 630.988Z" stroke="#767171" stroke-width="4.58333" stroke-miterlimit="8" fill="#0070C0" fill-rule="evenodd"/><text fill="#FFFFFF" font-family="Arial,Arial_MSFontService,sans-serif" font-weight="400" font-size="64" transform="matrix(1 0 0 1 2659.02 592)">Load energy model</text><path d="M2170.5 827.012C2170.5 817.34 2178.34 809.5 2188.01 809.5L2808.99 809.5C2818.66 809.5 2826.5 817.34 2826.5 827.012L2826.5 951.988C2826.5 961.659 2818.66 969.5 2808.99 969.5L2188.01 969.5C2178.34 969.5 2170.5 961.659 2170.5 951.988Z" stroke="#767171" stroke-width="4.58333" stroke-miterlimit="8" fill="#0070C0" fill-rule="evenodd"/><text fill="#FFFFFF" font-family="Arial,Arial_MSFontService,sans-serif" font-weight="400" font-size="64" transform="matrix(1 0 0 1 2271.93 913)">BFGS optimizer</text><path d="M0-2.29167 82.5493-2.29167 82.5493 434.644 80.2577 432.352 137.598 432.352 137.598 436.935 77.966 436.935 77.966 0 80.2577 2.29167 0 2.29167ZM133.015 420.894 160.515 434.644 133.015 448.394Z" transform="matrix(1.83697e-16 1 1 -1.83697e-16 2063.5 648.5)"/><path d="M2935.44 648.5 2935.44 731.049 2498.5 731.049 2500.79 728.758 2500.79 786.098 2496.21 786.098 2496.21 726.466 2933.14 726.466 2930.85 728.758 2930.85 648.5ZM2512.25 781.515 2498.5 809.015 2484.75 781.515Z"/><path d="M2500.79 969.5 2500.79 1136.24 2496.21 1136.24 2496.21 969.5ZM2512.25 1131.66 2498.5 1159.16 2484.75 1131.66Z"/></g></svg>