<svg width="2137" height="561" xmlns="http://www.w3.org/2000/svg" xmlns:xlink="http://www.w3.org/1999/xlink" xml:space="preserve" overflow="hidden"><defs><clipPath id="clip0"><rect x="4" y="1610" width="2137" height="561"/></clipPath></defs><g clip-path="url(#clip0)" transform="translate(-4 -1610)"><path d="M46.0001 2008.5C46.0001 1930.35 109.576 1867 188 1867 266.424 1867 330 1930.35 330 2008.5 330 2086.65 266.424 2150 188 2150 109.576 2150 46.0001 2086.65 46.0001 2008.5Z" fill="#7970B3" fill-rule="evenodd"/><text fill="#FFFFFF" font-family="Arial,Arial_MSFontService,sans-serif" font-weight="700" font-size="41" transform="matrix(1 0 0 1 96.2781 1999)">Chemical </text><text fill="#FFFFFF" font-family="Arial,Arial_MSFontService,sans-serif" font-weight="700" font-size="41" transform="matrix(1 0 0 1 112.32 2049)">formula</text><path d="M489 2008.5C489 1930.35 552.352 1867 630.5 1867 708.648 1867 772 1930.35 772 2008.5 772 2086.65 708.648 2150 630.5 2150 552.352 2150 489 2086.65 489 2008.5Z" fill="#7970B3" fill-rule="evenodd"/><text fill="#FFFFFF" font-family="Arial,Arial_MSFontService,sans-serif" font-weight="700" font-size="41" transform="matrix(1 0 0 1 585.791 1999)">Bulk </text><text fill="#FFFFFF" font-family="Arial,Arial_MSFontService,sans-serif" font-weight="700" font-size="41" transform="matrix(1 0 0 1 533.083 2049)">relaxation</text><path d="M931 2008.5C931 1930.35 994.576 1867 1073 1867 1151.42 1867 1215 1930.35 1215 2008.5 1215 2086.65 1151.42 2150 1073 2150 994.576 2150 931 2086.65 931 2008.5Z" fill="#7970B3" fill-rule="evenodd"/><text fill="#FFFFFF" font-family="Arial,Arial_MSFontService,sans-serif" font-weight="700" font-size="41" transform="matrix(1 0 0 1 997.387 1999)">Surface </text><text fill="#FFFFFF" font-family="Arial,Arial_MSFontService,sans-serif" font-weight="700" font-size="41" transform="matrix(1 0 0 1 975.617 2049)">relaxation</text><path d="M1374 2008.5C1374 1930.35 1437.35 1867 1515.5 1867 1593.65 1867 1657 1930.35 1657 2008.5 1657 2086.65 1593.65 2150 1515.5 2150 1437.35 2150 1374 2086.65 1374 2008.5Z" fill="#7970B3" fill-rule="evenodd"/><text fill="#FFFFFF" font-family="Arial,Arial_MSFontService,sans-serif" font-weight="700" font-size="37" transform="matrix(1 0 0 1 1417.86 1998)">Adsorption </text><text fill="#FFFFFF" font-family="Arial,Arial_MSFontService,sans-serif" font-weight="700" font-size="41" transform="matrix(1 0 0 1 1418.14 2046)">relaxation</text><path d="M1816 2008.5C1816 1930.35 1879.58 1867 1958 1867 2036.42 1867 2100 1930.35 2100 2008.5 2100 2086.65 2036.42 2150 1958 2150 1879.58 2150 1816 2086.65 1816 2008.5Z" fill="#7970B3" fill-rule="evenodd"/><text fill="#FFFFFF" font-family="Arial,Arial_MSFontService,sans-serif" font-weight="700" font-size="41" transform="matrix(1 0 0 1 1913.39 1999)">Data </text><text fill="#FFFFFF" font-family="Arial,Arial_MSFontService,sans-serif" font-weight="700" font-size="41" transform="matrix(1 0 0 1 1861.83 2049)">collection</text><path d="M332 2007.85 472.203 2007.85 472.203 2010.15 332 2010.15ZM467.62 1999.83 485.953 2009 467.62 2018.17Z"/><path d="M467 1660.04C467 1653.94 471.941 1649 478.036 1649L1666.96 1649C1673.06 1649 1678 1653.94 1678 1660.04L1678 1747.96C1678 1754.06 1673.06 1759 1666.96 1759L478.036 1759C471.941 1759 467 1754.06 467 1747.96Z" fill="#7970B3" fill-rule="evenodd"/><text fill="#FFFFFF" font-family="Arial,Arial_MSFontService,sans-serif" font-weight="700" font-size="41" transform="matrix(1 0 0 1 917.776 1723)">BFGS optimizer</text><path d="M70.0001 1660.04C70.0001 1653.94 74.9412 1649 81.0363 1649L341.964 1649C348.059 1649 353 1653.94 353 1660.04L353 1747.96C353 1754.06 348.059 1759 341.964 1759L81.0363 1759C74.9412 1759 70.0001 1754.06 70.0001 1747.96Z" fill="#E47050" fill-rule="evenodd"/><text fill="#FFFFFF" font-family="Arial,Arial_MSFontService,sans-serif" font-weight="700" font-size="41" transform="matrix(1 0 0 1 86.8912 1723)">AGAT model</text><path d="M1791 1660.04C1791 1653.94 1795.94 1649 1802.04 1649L2063.96 1649C2070.06 1649 2075 1653.94 2075 1660.04L2075 1747.96C2075 1754.06 2070.06 1759 2063.96 1759L1802.04 1759C1795.94 1759 1791 1754.06 1791 1747.96Z" fill="#7970B3" fill-rule="evenodd"/><text fill="#FFFFFF" font-family="Arial,Arial_MSFontService,sans-serif" font-weight="700" font-size="41" transform="matrix(1 0 0 1 1832.25 1723)">Site finder</text><path d="M356 1707.85 450.141 1707.85 450.141 1710.15 356 1710.15ZM445.558 1699.83 463.891 1709 445.558 1718.17Z"/><path d="M775 2007.85 915.204 2007.85 915.204 2010.15 775 2010.15ZM910.62 1999.83 928.954 2009 910.62 2018.17Z"/><path d="M1217 2007.85 1357.2 2007.85 1357.2 2010.15 1217 2010.15ZM1352.62 1999.83 1370.95 2009 1352.62 2018.17Z"/><path d="M1660 2007.85 1800.2 2007.85 1800.2 2010.15 1660 2010.15ZM1795.62 1999.83 1813.95 2009 1795.62 2018.17Z"/><path d="M853.146 1758 853.146 1991.69 850.855 1991.69 850.854 1758ZM861.167 1987.11 852.001 2005.44 842.834 1987.11Z"/><path d="M1259.15 1758 1259.15 1991.69 1256.85 1991.69 1256.85 1758ZM1267.17 1987.11 1258 2005.44 1248.83 1987.11Z"/><path d="M0 0 0.000360892 31.1872" stroke="#000000" stroke-width="2.29167" stroke-miterlimit="8" fill="none" fill-rule="evenodd" transform="matrix(1 0 0 -1 618 1789.19)"/><path d="M1.14587 13.75 1.14619 140.887-1.14547 140.887-1.1458 13.75ZM-9.16662 18.3334 0 0 9.16671 18.3333Z" transform="matrix(1 0 0 -1 393 2004.89)"/><path d="M0 0 148.672 0.000721785" stroke="#000000" stroke-width="2.29167" stroke-miterlimit="8" fill="none" fill-rule="evenodd" transform="matrix(1 0 0 -1 442 1817)"/><path d="M393.001 1864.16C393.194 1837.93 414.829 1816.82 441.331 1817" stroke="#000000" stroke-width="2.29167" stroke-miterlimit="8" fill="none" fill-rule="evenodd"/><path d="M617.999 1788.7C617.892 1804.33 605.443 1816.95 590.091 1817" stroke="#000000" stroke-width="2.29167" stroke-miterlimit="8" fill="none" fill-rule="evenodd"/><path d="M0 0 0.000360892 31.1872" stroke="#000000" stroke-width="2.29167" stroke-miterlimit="8" fill="none" fill-rule="evenodd" transform="matrix(1 0 0 -1 1933 1789.19)"/><path d="M1.14587 13.75 1.14619 140.887-1.14547 140.887-1.1458 13.75ZM-9.16662 18.3334 0 0 9.16671 18.3333Z" transform="matrix(1 0 0 -1 1312 2004.89)"/><path d="M0 0 545.017 0.00108268" stroke="#000000" stroke-width="2.29167" stroke-miterlimit="8" fill="none" fill-rule="evenodd" transform="matrix(1 0 0 -1 1360 1817)"/><path d="M1312 1864.16C1312.19 1837.93 1333.6 1816.82 1359.83 1817" stroke="#000000" stroke-width="2.29167" stroke-miterlimit="8" fill="none" fill-rule="evenodd"/><path d="M1933 1788.7C1932.89 1804.33 1920.44 1816.95 1905.09 1817" stroke="#000000" stroke-width="2.29167" stroke-miterlimit="8" fill="none" fill-rule="evenodd"/><path d="M6.50003 1638.63C6.50003 1624.2 18.1999 1612.5 32.6324 1612.5L2112.37 1612.5C2126.8 1612.5 2138.5 1624.2 2138.5 1638.63L2138.5 2142.37C2138.5 2156.8 2126.8 2168.5 2112.37 2168.5L32.6324 2168.5C18.1999 2168.5 6.50003 2156.8 6.50003 2142.37Z" stroke="#595959" stroke-width="4.58333" stroke-miterlimit="8" fill="none" fill-rule="evenodd"/></g></svg>