<svg width="4346" height="2234" xmlns="http://www.w3.org/2000/svg" xmlns:xlink="http://www.w3.org/1999/xlink" xml:space="preserve" overflow="hidden"><defs><clipPath id="clip0"><rect x="43" y="536" width="4346" height="2234"/></clipPath><linearGradient x1="1651.34" y1="1793.83" x2="1651.34" y2="2007.79" gradientUnits="userSpaceOnUse" spreadMethod="reflect" id="fill1"><stop offset="0" stop-color="#548235"/><stop offset="0.66" stop-color="#548235"/><stop offset="1" stop-color="#E7937F"/></linearGradient></defs><g clip-path="url(#clip0)" transform="translate(-43 -536)"><path d="M1704 567.5C1704 550.103 1718.1 536 1735.5 536L2519.5 536C2536.9 536 2551 550.103 2551 567.5L2551 693.499C2551 710.897 2536.9 725 2519.5 725L1735.5 725C1718.1 725 1704 710.897 1704 693.499Z" fill="#0070C0" fill-rule="evenodd"/><text font-family="Arial,Arial_MSFontService,sans-serif" font-weight="400" font-size="83" transform="matrix(1 0 0 1 2047.03 661)">agat</text><path d="M260 925.834C260 910.462 272.462 898 287.834 898L831.166 898C846.538 898 859 910.462 859 925.834L859 1037.17C859 1052.54 846.538 1065 831.166 1065L287.834 1065C272.462 1065 260 1052.54 260 1037.17Z" fill="#E7937F" fill-rule="evenodd"/><text font-family="Arial,Arial_MSFontService,sans-serif" font-weight="400" font-size="73" transform="matrix(1 0 0 1 488.187 1009)">data</text><path d="M52.9999 2207.33C52.9999 2196.66 61.656 2188 72.3338 2188L513.666 2188C524.344 2188 533 2196.66 533 2207.33L533 2284.67C533 2295.34 524.344 2304 513.666 2304L72.3338 2304C61.656 2304 52.9999 2295.34 52.9999 2284.67Z" fill="#E7937F" fill-rule="evenodd"/><text font-family="Arial,Arial_MSFontService,sans-serif" font-weight="400" font-size="64" transform="matrix(1 0 0 1 81.729 2269)">atomic_feature</text><path d="M1192 925.834C1192 910.462 1204.46 898 1219.83 898L1762.17 898C1777.54 898 1790 910.462 1790 925.834L1790 1037.17C1790 1052.54 1777.54 1065 1762.17 1065L1219.83 1065C1204.46 1065 1192 1052.54 1192 1037.17Z" fill="#0070C0" fill-rule="evenodd"/><text font-family="Arial,Arial_MSFontService,sans-serif" font-weight="400" font-size="73" transform="matrix(1 0 0 1 1391.42 1009)">model</text><path d="M52.9999 1724.33C52.9999 1713.66 61.656 1705 72.3338 1705L513.666 1705C524.344 1705 533 1713.66 533 1724.33L533 1801.67C533 1812.34 524.344 1821 513.666 1821L72.3338 1821C61.656 1821 52.9999 1812.34 52.9999 1801.67Z" fill="#E7937F" fill-rule="evenodd"/><text fill="#FFFFFF" font-family="Arial,Arial_MSFontService,sans-serif" font-weight="400" font-size="64" transform="matrix(1 0 0 1 104.646 1787)">CrystalGraph</text><path d="M52.9999 1483.33C52.9999 1472.66 61.656 1464 72.3338 1464L513.666 1464C524.344 1464 533 1472.66 533 1483.33L533 1560.67C533 1571.34 524.344 1580 513.666 1580L72.3338 1580C61.656 1580 52.9999 1571.34 52.9999 1560.67Z" fill="#E7937F" fill-rule="evenodd"/><text fill="#FFFFFF" font-family="Arial,Arial_MSFontService,sans-serif" font-weight="400" font-size="64" transform="matrix(1 0 0 1 111.807 1546)">ReadGraphs</text><path d="M52.9999 1242.33C52.9999 1231.66 61.656 1223 72.3338 1223L513.666 1223C524.344 1223 533 1231.66 533 1242.33L533 1319.67C533 1330.34 524.344 1339 513.666 1339L72.3338 1339C61.656 1339 52.9999 1330.34 52.9999 1319.67Z" fill="#E7937F" fill-rule="evenodd"/><text fill="#FFFFFF" font-family="Arial,Arial_MSFontService,sans-serif" font-weight="400" font-size="64" transform="matrix(1 0 0 1 84.8799 1304)">BuildDatabase</text><path d="M2.29167-8.39503e-06 2.29194 75.5994-2.29139 75.5994-2.29167 8.39503e-06ZM13.7503 71.016 0.000360892 98.516-13.7497 71.0161Z" fill="#E7937F" transform="matrix(1 0 0 -1 560.5 1163.02)"/><path d="M1251 1724.33C1251 1713.66 1259.66 1705 1270.33 1705L1711.67 1705C1722.34 1705 1731 1713.66 1731 1724.33L1731 1801.67C1731 1812.34 1722.34 1821 1711.67 1821L1270.33 1821C1259.66 1821 1251 1812.34 1251 1801.67Z" fill="#0070C0" fill-rule="evenodd"/><text fill="#FFFFFF" font-family="Arial,Arial_MSFontService,sans-serif" font-weight="400" font-size="64" transform="matrix(1 0 0 1 1411.18 1787)">Layer</text><path d="M2.29167-1.11919e-05 2.29192 50.98-2.29142 50.98-2.29167 1.11919e-05ZM13.7502 46.3966 0.000360892 73.8967-13.7498 46.3968Z" fill="#0070C0" transform="matrix(1 0 0 -1 2127.5 799.397)"/><path d="M3333 925.834C3333 910.462 3345.46 898 3360.83 898L3558.17 898C3573.54 898 3586 910.462 3586 925.834L3586 1037.17C3586 1052.54 3573.54 1065 3558.17 1065L3360.83 1065C3345.46 1065 3333 1052.54 3333 1037.17Z" fill="#BF9000" fill-rule="evenodd"/><text font-family="Arial,Arial_MSFontService,sans-serif" font-weight="400" font-size="73" transform="matrix(1 0 0 1 3423.19 1009)">lib</text><path d="M3691 924.001C3691 908.536 3703.54 896 3719 896L4339 896C4354.46 896 4367 908.536 4367 924.001L4367 1036C4367 1051.46 4354.46 1064 4339 1064L3719 1064C3703.54 1064 3691 1051.46 3691 1036Z" fill="#7970B3" fill-rule="evenodd"/><text font-family="Arial,Arial_MSFontService,sans-serif" font-weight="400" font-size="73" transform="matrix(1 0 0 1 3712.65 1007)">default_parameters</text><path d="M2.29167-5.26017e-06 2.29197 134.311-2.29136 134.311-2.29167 5.26017e-06ZM13.7503 129.728 0.000360892 157.228-13.7497 129.728Z" fill="#0070C0" transform="matrix(1 0 0 -1 1491.5 1222.73)"/><path d="M1915 925.834C1915 910.462 1927.46 898 1942.83 898L2485.17 898C2500.54 898 2513 910.462 2513 925.834L2513 1037.17C2513 1052.54 2500.54 1065 2485.17 1065L1942.83 1065C1927.46 1065 1915 1052.54 1915 1037.17Z" fill="#548235" fill-rule="evenodd"/><text font-family="Arial,Arial_MSFontService,sans-serif" font-weight="400" font-size="73" transform="matrix(1 0 0 1 2152.72 1009)">app</text><path d="M1973 1724.33C1973 1713.66 1981.66 1705 1992.33 1705L2434.67 1705C2445.34 1705 2454 1713.66 2454 1724.33L2454 1801.67C2454 1812.34 2445.34 1821 2434.67 1821L1992.33 1821C1981.66 1821 1973 1812.34 1973 1801.67Z" fill="#548235" fill-rule="evenodd"/><text font-family="Arial,Arial_MSFontService,sans-serif" font-weight="400" font-size="64" transform="matrix(1 0 0 1 2060.77 1787)">calculators</text><path d="M560.5 895.198 560.5 799.5 4044.5 799.5 4044.5 896.5" stroke="#0070C0" stroke-width="4.58333" stroke-miterlimit="8" fill="none" fill-rule="evenodd"/><text fill="#0070C0" font-family="Arial,Arial_MSFontService,sans-serif" font-weight="400" font-size="64" transform="matrix(1 0 0 1 1869.35 2349)">•</text><text fill="#0070C0" font-family="Arial,Arial_MSFontService,sans-serif" font-weight="400" font-size="64" transform="matrix(1 0 0 1 1972.47 2349)">Arrow: nested code</text><text fill="#0070C0" font-family="Arial,Arial_MSFontService,sans-serif" font-weight="400" font-size="64" transform="matrix(1 0 0 1 1869.35 2426)">•</text><text fill="#0070C0" font-family="Arial,Arial_MSFontService,sans-serif" font-weight="400" font-size="64" transform="matrix(1 0 0 1 1972.47 2426)">White </text><text fill="#0070C0" font-family="Arial,Arial_MSFontService,sans-serif" font-weight="400" font-size="64" transform="matrix(1 0 0 1 2154.09 2426)">font</text><text fill="#0070C0" font-family="Arial,Arial_MSFontService,sans-serif" font-weight="400" font-size="64" transform="matrix(1 0 0 1 2260.65 2426)">: Object</text><text fill="#0070C0" font-family="Arial,Arial_MSFontService,sans-serif" font-weight="400" font-size="64" transform="matrix(1 0 0 1 1869.35 2503)">•</text><text fill="#0070C0" font-family="Arial,Arial_MSFontService,sans-serif" font-weight="400" font-size="64" transform="matrix(1 0 0 1 1972.47 2503)">Black font: file</text><text fill="#0070C0" font-family="Arial,Arial_MSFontService,sans-serif" font-weight="400" font-size="64" transform="matrix(1 0 0 1 1869.35 2580)">•</text><text fill="#0070C0" font-family="Arial,Arial_MSFontService,sans-serif" font-weight="400" font-size="64" transform="matrix(1 0 0 1 1972.47 2580)">Gray font: function</text><text fill="#0070C0" font-family="Arial,Arial_MSFontService,sans-serif" font-weight="400" font-size="64" transform="matrix(1 0 0 1 1869.35 2657)">•</text><text fill="#0070C0" font-family="Arial,Arial_MSFontService,sans-serif" font-weight="400" font-size="64" transform="matrix(1 0 0 1 1972.47 2657)">Dark</text><text fill="#0070C0" font-family="Arial,Arial_MSFontService,sans-serif" font-weight="400" font-size="64" transform="matrix(1 0 0 1 2125.44 2657)">gray:</text><text fill="#0070C0" font-family="Arial,Arial_MSFontService,sans-serif" font-weight="400" font-size="64" transform="matrix(1 0 0 1 2285.29 2657)">variable</text><path d="M1251 1482.5C1251 1471.73 1259.73 1463 1270.5 1463L1711.5 1463C1722.27 1463 1731 1471.73 1731 1482.5L1731 1560.5C1731 1571.27 1722.27 1580 1711.5 1580L1270.5 1580C1259.73 1580 1251 1571.27 1251 1560.5Z" fill="#0070C0" fill-rule="evenodd"/><text fill="#FFFFFF" font-family="Arial,Arial_MSFontService,sans-serif" font-weight="400" font-size="64" transform="matrix(1 0 0 1 1279.41 1545)">PotentialModel</text><path d="M1251 1242.33C1251 1231.66 1259.66 1223 1270.33 1223L1711.67 1223C1722.34 1223 1731 1231.66 1731 1242.33L1731 1319.67C1731 1330.34 1722.34 1339 1711.67 1339L1270.33 1339C1259.66 1339 1251 1330.34 1251 1319.67Z" fill="#0070C0" fill-rule="evenodd"/><text fill="#FFFFFF" font-family="Arial,Arial_MSFontService,sans-serif" font-weight="400" font-size="64" transform="matrix(1 0 0 1 1455.58 1304)">Fit</text><path d="M580 1965.5C580 1954.73 588.73 1946 599.5 1946L1040.5 1946C1051.27 1946 1060 1954.73 1060 1965.5L1060 2043.5C1060 2054.27 1051.27 2063 1040.5 2063L599.5 2063C588.73 2063 580 2054.27 580 2043.5Z" fill="#E7937F" fill-rule="evenodd"/><text fill="#FFFFFF" font-family="Arial,Arial_MSFontService,sans-serif" font-weight="400" font-size="64" transform="matrix(1 0 0 1 597.822 2028)">AseGraphTorch</text><path d="M581 1482.5C581 1471.73 589.731 1463 600.5 1463L1042.5 1463C1053.27 1463 1062 1471.73 1062 1482.5L1062 1560.5C1062 1571.27 1053.27 1580 1042.5 1580L600.5 1580C589.731 1580 581 1571.27 581 1560.5Z" fill="#E7937F" fill-rule="evenodd"/><text fill="#767171" font-family="Arial,Arial_MSFontService,sans-serif" font-weight="400" font-size="64" transform="matrix(1 0 0 1 611.694 1545)">concat_graphs</text><path d="M581 1711.83C581 1695.91 593.909 1683 609.834 1683L1033.17 1683C1049.09 1683 1062 1695.91 1062 1711.83L1062 1827.17C1062 1843.09 1049.09 1856 1033.17 1856L609.834 1856C593.909 1856 581 1843.09 581 1827.17Z" fill="#E7937F" fill-rule="evenodd"/><text fill="#767171" font-family="Arial,Arial_MSFontService,sans-serif" font-weight="400" font-size="64" transform="matrix(1 0 0 1 593.934 1755)">select_graphs_r</text><text fill="#767171" font-family="Arial,Arial_MSFontService,sans-serif" font-weight="400" font-size="64" transform="matrix(1 0 0 1 723.711 1832)">andom</text><path d="M581 1241.5C581 1230.73 589.731 1222 600.5 1222L1042.5 1222C1053.27 1222 1062 1230.73 1062 1241.5L1062 1319.5C1062 1330.27 1053.27 1339 1042.5 1339L600.5 1339C589.731 1339 581 1330.27 581 1319.5Z" fill="#E7937F" fill-rule="evenodd"/><text fill="#FFFFFF" font-family="Arial,Arial_MSFontService,sans-serif" font-weight="400" font-size="64" transform="matrix(1 0 0 1 640.054 1304)">LoadDataset</text><path d="M1973 1482.5C1973 1471.73 1981.73 1463 1992.5 1463L2434.5 1463C2445.27 1463 2454 1471.73 2454 1482.5L2454 1560.5C2454 1571.27 2445.27 1580 2434.5 1580L1992.5 1580C1981.73 1580 1973 1571.27 1973 1560.5Z" fill="#548235" fill-rule="evenodd"/><text font-family="Arial,Arial_MSFontService,sans-serif" font-weight="400" font-size="64" transform="matrix(1 0 0 1 2067.93 1545)">optimizers</text><path d="M1973 1242.33C1973 1231.66 1981.66 1223 1992.33 1223L2434.67 1223C2445.34 1223 2454 1231.66 2454 1242.33L2454 1319.67C2454 1330.34 2445.34 1339 2434.67 1339L1992.33 1339C1981.66 1339 1973 1330.34 1973 1319.67Z" fill="#548235" fill-rule="evenodd"/><text font-family="Arial,Arial_MSFontService,sans-serif" font-weight="400" font-size="64" transform="matrix(1 0 0 1 2059.05 1304)">ensembles</text><path d="M2.29167-5.26017e-06 2.29197 134.311-2.29136 134.311-2.29167 5.26017e-06ZM13.7503 129.728 0.000360892 157.228-13.7497 129.728Z" fill="#548235" transform="matrix(1 0 0 -1 2214.5 1222.73)"/><path d="M3193 1242.33C3193 1231.66 3201.66 1223 3212.33 1223L3706.67 1223C3717.34 1223 3726 1231.66 3726 1242.33L3726 1319.67C3726 1330.34 3717.34 1339 3706.67 1339L3212.33 1339C3201.66 1339 3193 1330.34 3193 1319.67Z" fill="#BF9000" fill-rule="evenodd"/><text font-family="Arial,Arial_MSFontService,sans-serif" font-weight="400" font-size="64" transform="matrix(1 0 0 1 3203.76 1304)">adsorbate_poscar</text><path d="M3193 1482.5C3193 1471.73 3201.73 1463 3212.5 1463L3706.5 1463C3717.27 1463 3726 1471.73 3726 1482.5L3726 1560.5C3726 1571.27 3717.27 1580 3706.5 1580L3212.5 1580C3201.73 1580 3193 1571.27 3193 1560.5Z" fill="#BF9000" fill-rule="evenodd"/><text font-family="Arial,Arial_MSFontService,sans-serif" font-weight="400" font-size="64" transform="matrix(1 0 0 1 3306.6 1545)">exceptions</text><path d="M3193 1724.33C3193 1713.66 3201.66 1705 3212.33 1705L3706.67 1705C3717.34 1705 3726 1713.66 3726 1724.33L3726 1801.67C3726 1812.34 3717.34 1821 3706.67 1821L3212.33 1821C3201.66 1821 3193 1812.34 3193 1801.67Z" fill="#BF9000" fill-rule="evenodd"/><text font-family="Arial,Arial_MSFontService,sans-serif" font-weight="400" font-size="64" transform="matrix(1 0 0 1 3368.76 1787)">file_lib</text><path d="M3193 1965.5C3193 1954.73 3201.73 1946 3212.5 1946L3706.5 1946C3717.27 1946 3726 1954.73 3726 1965.5L3726 2043.5C3726 2054.27 3717.27 2063 3706.5 2063L3212.5 2063C3201.73 2063 3193 2054.27 3193 2043.5Z" fill="#BF9000" fill-rule="evenodd"/><text font-family="Arial,Arial_MSFontService,sans-serif" font-weight="400" font-size="64" transform="matrix(1 0 0 1 3322.64 2028)">mode</text><text font-family="Arial,Arial_MSFontService,sans-serif" font-weight="400" font-size="64" transform="matrix(1 0 0 1 3482.49 2028)">l</text><text font-family="Arial,Arial_MSFontService,sans-serif" font-weight="400" font-size="64" transform="matrix(1 0 0 1 3496.81 2028)">_lib</text><path d="M3820 1965.5C3820 1954.73 3828.73 1946 3839.5 1946L4290.5 1946C4301.27 1946 4310 1954.73 4310 1965.5L4310 2043.5C4310 2054.27 4301.27 2063 4290.5 2063L3839.5 2063C3828.73 2063 3820 2054.27 3820 2043.5Z" fill="#7970B3" fill-rule="evenodd"/><text fill="#3B3838" font-family="Arial,Arial_MSFontService,sans-serif" font-weight="400" font-size="64" transform="matrix(1 0 0 1 4003.04 2028)">train</text><path d="M2657 1125.33C2657 1114.66 2665.66 1106 2676.33 1106L2962.67 1106C2973.34 1106 2982 1114.66 2982 1125.33L2982 1202.67C2982 1213.34 2973.34 1222 2962.67 1222L2676.33 1222C2665.66 1222 2657 1213.34 2657 1202.67Z" fill="#6DA945" fill-rule="evenodd"/><text font-family="Arial,Arial_MSFontService,sans-serif" font-weight="400" font-size="64" transform="matrix(1 0 0 1 2759.38 1187)">cata</text><path d="M3820 1724.33C3820 1713.66 3828.66 1705 3839.33 1705L4290.67 1705C4301.34 1705 4310 1713.66 4310 1724.33L4310 1801.67C4310 1812.34 4301.34 1821 4290.67 1821L3839.33 1821C3828.66 1821 3820 1812.34 3820 1801.67Z" fill="#7970B3" fill-rule="evenodd"/><text fill="#3B3838" font-family="Arial,Arial_MSFontService,sans-serif" font-weight="400" font-size="64" transform="matrix(1 0 0 1 3928.28 1787)">calculator</text><path d="M3820 1242.33C3820 1231.66 3828.66 1223 3839.33 1223L4290.67 1223C4301.34 1223 4310 1231.66 4310 1242.33L4310 1319.67C4310 1330.34 4301.34 1339 4290.67 1339L3839.33 1339C3828.66 1339 3820 1330.34 3820 1319.67Z" fill="#7970B3" fill-rule="evenodd"/><text fill="#3B3838" font-family="Arial,Arial_MSFontService,sans-serif" font-weight="400" font-size="64" transform="matrix(1 0 0 1 3834.32 1304)">high_throughput</text><path d="M3820 1482.5C3820 1471.73 3828.73 1463 3839.5 1463L4290.5 1463C4301.27 1463 4310 1471.73 4310 1482.5L4310 1560.5C4310 1571.27 4301.27 1580 4290.5 1580L3839.5 1580C3828.73 1580 3820 1571.27 3820 1560.5Z" fill="#7970B3" fill-rule="evenodd"/><text fill="#3B3838" font-family="Arial,Arial_MSFontService,sans-serif" font-weight="400" font-size="64" transform="matrix(1 0 0 1 3976.4 1545)">hp_dft</text><path d="M2624 1724.33C2624 1713.66 2632.66 1705 2643.33 1705L2994.67 1705C3005.34 1705 3014 1713.66 3014 1724.33L3014 1801.67C3014 1812.34 3005.34 1821 2994.67 1821L2643.33 1821C2632.66 1821 2624 1812.34 2624 1801.67Z" fill="#6DA945" fill-rule="evenodd"/><text fill="#FFFFFF" font-family="Arial,Arial_MSFontService,sans-serif" font-weight="400" font-size="64" transform="matrix(1 0 0 1 2671.01 1787)">AddAtoms</text><path d="M2838 1362.33C2838 1351.66 2846.66 1343 2857.33 1343L3142.67 1343C3153.34 1343 3162 1351.66 3162 1362.33L3162 1439.67C3162 1450.34 3153.34 1459 3142.67 1459L2857.33 1459C2846.66 1459 2838 1450.34 2838 1439.67Z" fill="#6DA945" fill-rule="evenodd"/><text fill="#FFFFFF" font-family="Arial,Arial_MSFontService,sans-serif" font-weight="400" font-size="64" transform="matrix(1 0 0 1 2871.71 1425)">HtDftAds</text><path d="M2477 1366.33C2477 1355.66 2485.66 1347 2496.33 1347L2782.67 1347C2793.34 1347 2802 1355.66 2802 1366.33L2802 1443.67C2802 1454.34 2793.34 1463 2782.67 1463L2496.33 1463C2485.66 1463 2477 1454.34 2477 1443.67Z" fill="#6DA945" fill-rule="evenodd"/><text fill="#FFFFFF" font-family="Arial,Arial_MSFontService,sans-serif" font-weight="400" font-size="64" transform="matrix(1 0 0 1 2552.23 1429)">HtAds</text><path d="M293.5 1221.69 293.5 1162.5 1125.5 1162.5 1125.5 1222.5" stroke="#E7937F" stroke-width="4.58333" stroke-miterlimit="8" fill="none" fill-rule="evenodd"/><path d="M1491.5 898.514 1491.5 799.5" stroke="#0070C0" stroke-width="4.58333" stroke-miterlimit="8" fill="none" fill-rule="evenodd"/><path d="M2.29167-6.65327e-06 2.29196 101.39-2.29137 101.39-2.29167 6.65327e-06ZM13.7503 96.8064 0.000360892 124.306-13.7497 96.8065Z" fill="#0070C0" transform="matrix(1 0 0 -1 1491.5 1463.81)"/><path d="M2.29167-6.65327e-06 2.29196 101.39-2.29137 101.39-2.29167 6.65327e-06ZM13.7503 96.8064 0.000360892 124.306-13.7497 96.8065Z" fill="#0070C0" transform="matrix(1 0 0 -1 1491.5 1705.81)"/><path d="M2.29167-6.61991e-06 2.29196 102.016-2.29137 102.016-2.29167 6.61991e-06ZM13.7503 97.433 0.000360892 124.933-13.7497 97.4331Z" fill="#E7937F" transform="matrix(1 0 0 -1 293.5 1464.43)"/><path d="M2.29167-6.61991e-06 2.29196 102.016-2.29137 102.016-2.29167 6.61991e-06ZM13.7503 97.433 0.000360892 124.933-13.7497 97.4331Z" fill="#E7937F" transform="matrix(1 0 0 -1 293.5 1705.43)"/><path d="M0 0 0.000360892 60.0572" stroke="#E7937F" stroke-width="4.58333" stroke-miterlimit="8" fill="none" fill-rule="evenodd" transform="matrix(1 0 0 -1 821.5 1222.56)"/><path d="M0 0 0.000360892 553.419" stroke="#E7937F" stroke-width="4.58333" stroke-miterlimit="8" fill="none" fill-rule="evenodd" transform="matrix(1 0 0 -1 1125.5 1769.92)"/><path d="M1062.5 1522.5 1125.51 1522.5" stroke="#E7937F" stroke-width="4.58333" stroke-miterlimit="8" fill="none" fill-rule="evenodd"/><path d="M1062.5 1770.5 1125.51 1770.5" stroke="#E7937F" stroke-width="4.58333" stroke-miterlimit="8" fill="none" fill-rule="evenodd"/><path d="M2.29167-6.65327e-06 2.29196 101.39-2.29137 101.39-2.29167 6.65327e-06ZM13.7503 96.8064 0.000360892 124.306-13.7497 96.8065Z" fill="#548235" transform="matrix(1 0 0 -1 2214.5 1463.81)"/><path d="M2.29167-6.58688e-06 2.29196 102.643-2.29137 102.643-2.29167 6.58688e-06ZM13.7503 98.0595 0.000360892 125.56-13.7497 98.0596Z" fill="#548235" transform="matrix(1 0 0 -1 2214.5 1706.06)"/><path d="M2214.5 898.514 2214.5 799.5" stroke="#548235" stroke-width="4.58333" stroke-miterlimit="8" fill="none" fill-rule="evenodd"/><path d="M2.29167-2.25865e-06 2.29201 343.252-2.29133 343.252-2.29167 2.25865e-06ZM13.7503 338.668 0.000360892 366.168-13.7497 338.668Z" fill="#E7937F" transform="matrix(1 0 0 -1 293.5 2187.67)"/><path d="M533.5 2249.21 820.5 2249.21 818.208 2251.5 818.208 2086.42 822.792 2086.42 822.792 2253.79 533.5 2253.79ZM806.75 2091 820.5 2063.5 834.25 2091Z" fill="#E7937F"/><path d="M1060.5 2003.21 2214.5 2003.21 2212.21 2005.5 2212.21 1844.42 2216.79 1844.42 2216.79 2007.79 1060.5 2007.79ZM2200.75 1849 2214.5 1821.5 2228.25 1849Z" fill="url(#fill1)"/><path d="M2639.5 1346.69 2639.5 1287.5 2999.5 1287.5 2999.5 1347.5" stroke="#6DA945" stroke-width="4.58333" stroke-miterlimit="8" fill="none" fill-rule="evenodd"/><path d="M-2.29167 35.2912-2.29167-2.29167 362.292-2.29167 362.292 36.0831 357.708 36.0831 357.708 0 360 2.29167 0 2.29167 2.29167 0 2.29167 35.2912ZM13.75 30.7078 0 58.2078-13.75 30.7078ZM373.75 31.4998 360 58.9998 346.25 31.4998Z" fill="#6DA945" transform="matrix(1 0 0 -1 2639.5 1520.5)"/><path d="M2.29167-1.2702e-05 2.2919 42.1948-2.29143 42.1948-2.29167 1.2702e-05ZM13.7502 37.6114 0.000360892 65.1115-13.7498 37.6116Z" fill="#6DA945" transform="matrix(1 0 0 -1 2820.5 1287.61)"/><path d="M0 0 0.000360892 184.772" stroke="#6DA945" stroke-width="4.58333" stroke-miterlimit="8" fill="none" fill-rule="evenodd" transform="matrix(1 0 0 -1 2819.5 1705.27)"/><path d="M2817.21 1108.5 2817.21 978.5 2819.5 980.792 2536.42 980.792 2536.42 976.208 2821.79 976.208 2821.79 1108.5ZM2541 992.25 2513.5 978.5 2541 964.75Z" fill="#6DA945"/><path d="M3460.5 898.514 3460.5 799.5" stroke="#BF9000" stroke-width="4.58333" stroke-miterlimit="8" fill="none" fill-rule="evenodd"/><path d="M2.29167-6.59425e-06 2.29196 102.502-2.29137 102.502-2.29167 6.59425e-06ZM13.7503 97.9191 0.000360892 125.419-13.7497 97.9192Z" fill="#BF9000" transform="matrix(1 0 0 -1 3464.5 1189.92)"/><path d="M3174.5 1208.35C3174.5 1197.39 3183.39 1188.5 3194.35 1188.5L3728.65 1188.5C3739.61 1188.5 3748.5 1197.39 3748.5 1208.35L3748.5 2070.65C3748.5 2081.61 3739.61 2090.5 3728.65 2090.5L3194.35 2090.5C3183.39 2090.5 3174.5 2081.61 3174.5 2070.65Z" stroke="#BF9000" stroke-width="4.58333" stroke-miterlimit="8" fill="none" fill-rule="evenodd"/><path d="M3791.5 1207.73C3791.5 1197.11 3800.11 1188.5 3810.73 1188.5L4328.27 1188.5C4338.89 1188.5 4347.5 1197.11 4347.5 1207.73L4347.5 2071.27C4347.5 2081.89 4338.89 2090.5 4328.27 2090.5L3810.73 2090.5C3800.11 2090.5 3791.5 2081.89 3791.5 2071.27Z" stroke="#7030A0" stroke-width="4.58333" stroke-miterlimit="8" fill="none" fill-rule="evenodd"/><path d="M2.29167-6.59425e-06 2.29196 102.502-2.29137 102.502-2.29167 6.59425e-06ZM13.7503 97.9191 0.000360892 125.419-13.7497 97.9192Z" fill="#7030A0" transform="matrix(1 0 0 -1 4060.5 1189.92)"/></g></svg>